<svg width="260" height="184" viewBox="0 0 260 184" version="1.1" xmlns="http://www.w3.org/2000/svg" xmlns:xlink="http://www.w3.org/1999/xlink">
<title>child</title>
<desc>Created using Figma</desc>
<g id="Canvas" transform="translate(-115 1009)">
<g id="child">
<g id="Page 1">
<mask id="mask0_outline" mask-type="alpha">
<g id="Mask">
<use xlink:href="#path0_fill" transform="translate(216 -1021)" fill="#FFFFFF"/>
</g>
</mask>
<g id="Page 1" mask="url(#mask0_outline)">
<g id="Group 3">
<mask id="mask1_outline" mask-type="alpha">
<g id="Clip 2">
<use xlink:href="#path1_fill" transform="translate(325.077 -1008.55)" fill="#FFFFFF"/>
</g>
</mask>
<g id="Fill 1" mask="url(#mask1_outline)">
<use xlink:href="#path2_fill" transform="translate(324.428 -1008.22)" fill="#DC5D2A"/>
</g>
</g>
<g id="Fill 4">
<use xlink:href="#path3_fill" transform="translate(333.802 -942.573)" fill="#DC5D2A"/>
</g>
<g id="Fill 6">
<use xlink:href="#path4_fill" transform="translate(275 -1008)" fill="#FF8B4B"/>
</g>
<g id="Fill 8">
<use xlink:href="#path5_fill" transform="translate(258 -920)" fill="#DC5D2A"/>
</g>
<g id="Fill 10">
<use xlink:href="#path6_fill" transform="translate(270 -905.745)" fill="#FF8B4B"/>
</g>
<g id="Fill 12">
<use xlink:href="#path7_fill" transform="translate(262.452 -909.25)" fill="#FF8B4B"/>
</g>
<g id="Fill 14">
<use xlink:href="#path8_fill" transform="translate(284 -892)" fill="#FF8B4B"/>
</g>
<g id="Fill 16">
<use xlink:href="#path9_fill" transform="translate(282 -897.518)" fill="#85252D"/>
</g>
<g id="Fill 18">
<use xlink:href="#path10_fill" transform="translate(289 -914)" fill="#BA928A"/>
</g>
<g id="Fill 20">
<use xlink:href="#path11_fill" transform="translate(294 -891)" fill="#EBBBA5"/>
</g>
<g id="Fill 22">
<use xlink:href="#path12_fill" transform="translate(288 -893.053)" fill="#FFD6B8"/>
</g>
<g id="Fill 24">
<use xlink:href="#path13_fill" transform="translate(270 -893)" fill="#BB414C"/>
</g>
<g id="Fill 26">
<use xlink:href="#path14_fill" transform="translate(257.51 -880.561)" fill="#BB414C"/>
</g>
<g id="Fill 28">
<use xlink:href="#path15_fill" transform="translate(268 -882)" fill="#9B2C35"/>
</g>
<g id="Fill 30">
<use xlink:href="#path16_fill" transform="translate(295.082 -869.243)" fill="#332B33"/>
</g>
<g id="Fill 32">
<use xlink:href="#path17_fill" transform="translate(251 -873)" fill="#BB414C"/>
</g>
<g id="Fill 34">
<use xlink:href="#path18_fill" transform="translate(239 -871)" fill="#9B2C35"/>
</g>
<g id="Fill 36">
<use xlink:href="#path19_fill" transform="translate(294.184 -853.398)" fill="#473B47"/>
</g>
<g id="Fill 38">
<use xlink:href="#path20_fill" transform="translate(239.003 -858.821)" fill="#BB414C"/>
</g>
<g id="Fill 40">
<use xlink:href="#path21_fill" transform="translate(256 -874)" fill="#9B2C35"/>
</g>
<g id="Fill 42">
<use xlink:href="#path22_fill" transform="translate(313 -894)" fill="#BB414C"/>
</g>
<g id="Fill 44">
<use xlink:href="#path23_fill" transform="translate(323 -897)" fill="#85252D"/>
</g>
<g id="Fill 46">
<use xlink:href="#path24_fill" transform="translate(309 -874)" fill="#BB414C"/>
</g>
<g id="Group 50">
<g id="Fill 48">
<use xlink:href="#path25_fill" transform="translate(310.132 -882.492)" fill="#9B2C35"/>
</g>
</g>
<g id="Fill 51">
<use xlink:href="#path26_fill" transform="translate(345 -862.573)" fill="#BB414C"/>
</g>
<g id="Fill 86">
<use xlink:href="#path27_fill" transform="translate(260 -982)" fill="#EBBBA5"/>
</g>
<g id="Fill 88">
<use xlink:href="#path28_fill" transform="translate(340 -936)" fill="#FFD6B8"/>
</g>
<g id="Fill 90">
<use xlink:href="#path29_fill" transform="translate(339 -933)" fill="#BA928A"/>
</g>
<g id="Fill 92">
<use xlink:href="#path30_fill" transform="translate(260 -950)" fill="#FFD6B8"/>
</g>
<g id="Fill 94">
<use xlink:href="#path31_fill" transform="translate(273 -934)" fill="#BA928A"/>
</g>
<g id="Fill 96">
<use xlink:href="#path32_fill" transform="translate(303 -915)" fill="#EBBBA5"/>
</g>
<g id="Fill 98">
<use xlink:href="#path33_fill" transform="translate(302 -918)" fill="#BA928A"/>
</g>
<g id="Fill 100">
<use xlink:href="#path34_fill" transform="translate(305 -919)" fill="#EBBBA5"/>
</g>
<g id="Fill 102">
<use xlink:href="#path35_fill" transform="translate(263 -932)" fill="#BA928A"/>
</g>
<g id="Fill 104">
<use xlink:href="#path36_fill" transform="translate(263 -931)" fill="#EBBBA5"/>
</g>
<g id="Fill 106">
<use xlink:href="#path37_fill" transform="translate(341 -932)" fill="#BA928A"/>
</g>
<g id="Fill 108">
<use xlink:href="#path38_fill" transform="translate(341 -931)" fill="#EBBBA5"/>
</g>
<g id="Fill 142">
<use xlink:href="#path39_fill" transform="translate(313 -946)"/>
</g>
<g id="Fill 144">
<use xlink:href="#path40_fill" transform="translate(277 -946)"/>
</g>
<g id="Fill 146">
<use xlink:href="#path41_fill" transform="translate(317 -992)" fill="#715A72"/>
</g>
<g id="Fill 148">
<use xlink:href="#path42_fill" transform="translate(299 -993)" fill="#DC5D2A"/>
</g>
<g id="Fill 150">
<use xlink:href="#path43_fill" transform="translate(317 -994)" fill="#A88EA6"/>
</g>
<g id="Fill 152">
<use xlink:href="#path44_fill" transform="translate(307 -975)" fill="#DC5D2A"/>
</g>
<g id="Fill 154">
<use xlink:href="#path45_fill" transform="translate(260 -992.552)" fill="#FF8B4B"/>
</g>
<g id="Fill 156">
<use xlink:href="#path46_fill" transform="translate(331 -966)" fill="#DC5D2A"/>
</g>
<g id="Fill 158">
<use xlink:href="#path47_fill" transform="translate(334 -953)" fill="#DC5D2A"/>
</g>
<g id="Fill 160">
<use xlink:href="#path48_fill" transform="translate(258 -975)" fill="#DC5D2A"/>
</g>
<g id="Fill 162">
<use xlink:href="#path49_fill" transform="translate(290 -980)" fill="#DC5D2A"/>
</g>
<g id="Fill 164">
<use xlink:href="#path50_fill" transform="translate(279 -968)" fill="#DC5D2A"/>
</g>
<g id="Fill 166">
<use xlink:href="#path51_fill" transform="translate(267 -947)" fill="#DC5D2A"/>
</g>
<g id="Fill 168">
<use xlink:href="#path52_fill" transform="translate(271 -967)" fill="#DC5D2A"/>
</g>
</g>
<g id="Group" mask="url(#mask0_outline)">
<g id="Fill 48">
<use xlink:href="#path53_fill" transform="translate(284.27 -929)" fill="#0A0001"/>
</g>
<g id="Fill 50">
<use xlink:href="#path54_fill" transform="translate(285 -933)" fill="#FFFFFF"/>
</g>
<g id="Fill 52">
<use xlink:href="#path55_fill" transform="translate(288 -932)" fill="#388BBC"/>
</g>
<g id="Fill 54">
<use xlink:href="#path56_fill" transform="translate(291 -929)" fill="#070707"/>
</g>
<g id="Fill 56">
<use xlink:href="#path57_fill" transform="translate(291 -929)" fill="#FFFFFF"/>
</g>
<g id="Fill 58">
<use xlink:href="#path58_fill" transform="translate(283 -933)" fill="#0A0001"/>
</g>
</g>
<g id="Group Copy" mask="url(#mask0_outline)">
<g id="Fill 48">
<use xlink:href="#path53_fill" transform="matrix(-1 0 0 1 331.73 -929)" fill="#0A0001"/>
</g>
<g id="Fill 50">
<use xlink:href="#path54_fill" transform="matrix(-1 0 0 1 331 -933)" fill="#FFFFFF"/>
</g>
<g id="Fill 52">
<use xlink:href="#path55_fill" transform="matrix(-1 0 0 1 328 -932)" fill="#388BBC"/>
</g>
<g id="Fill 54">
<use xlink:href="#path56_fill" transform="matrix(-1 0 0 1 325 -929)" fill="#070707"/>
</g>
<g id="Fill 56">
<use xlink:href="#path57_fill" transform="matrix(-1 0 0 1 325 -929)" fill="#FFFFFF"/>
</g>
<g id="Fill 58">
<use xlink:href="#path58_fill" transform="matrix(-1 0 0 1 333 -933)" fill="#0A0001"/>
</g>
</g>
<g id="Fill 52" mask="url(#mask0_outline)">
<use xlink:href="#path59_fill" transform="translate(299 -906)" fill="#93222F"/>
</g>
<g id="Fill 56" mask="url(#mask0_outline)">
<use xlink:href="#path60_fill" transform="translate(301.486 -905.059)" fill="#FEFEFE"/>
</g>
</g>
<g id="Page 1 Copy">
<mask id="mask2_outline" mask-type="alpha">
<g id="Mask">
<use xlink:href="#path0_fill" transform="translate(92 -1021)" fill="#FFFFFF"/>
</g>
</mask>
<g id="Page 1" mask="url(#mask2_outline)">
<g id="Fill 1">
<use xlink:href="#path61_fill" transform="translate(169 -907)" fill="#BB7B66"/>
</g>
<g id="Fill 3">
<use xlink:href="#path62_fill" transform="translate(161 -894)" fill="#5F2710"/>
</g>
<g id="Fill 5">
<use xlink:href="#path63_fill" transform="translate(165.707 -893)" fill="#5382C6"/>
</g>
<g id="Fill 7">
<use xlink:href="#path64_fill" transform="translate(169 -890)" fill="#F0B9A0"/>
</g>
<g id="Fill 9">
<use xlink:href="#path65_fill" transform="translate(162 -892)" fill="#7E9BD5"/>
</g>
<g id="Fill 11">
<use xlink:href="#path66_fill" transform="translate(158 -892)" fill="#DC5D2A"/>
</g>
<g id="Fill 13">
<use xlink:href="#path67_fill" transform="translate(152.583 -889)" fill="#FF8B4B"/>
</g>
<g id="Fill 15">
<use xlink:href="#path68_fill" transform="translate(126.03 -864.975)" fill="#DC5D2A"/>
</g>
<g id="Fill 17">
<use xlink:href="#path69_fill" transform="translate(145 -885)" fill="#DC5D2A"/>
</g>
<g id="Fill 19">
<use xlink:href="#path70_fill" transform="translate(130 -879)" fill="#FF8B4B"/>
</g>
<g id="Fill 21">
<use xlink:href="#path71_fill" transform="translate(116 -852)" fill="#FF8B4B"/>
</g>
<g id="Fill 23">
<use xlink:href="#path72_fill" transform="translate(220 -874)" fill="#DC5D2A"/>
</g>
<g id="Fill 25">
<use xlink:href="#path73_fill" transform="translate(221 -871)" fill="#FF8B4B"/>
</g>
<g id="Fill 27">
<use xlink:href="#path74_fill" transform="translate(200 -892)" fill="#DC5D2A"/>
</g>
<g id="Fill 29">
<use xlink:href="#path75_fill" transform="translate(196 -892)" fill="#7E9BD5"/>
</g>
<g id="Fill 31">
<use xlink:href="#path76_fill" transform="translate(195 -879)" fill="#556791"/>
</g>
<g id="Fill 33">
<use xlink:href="#path77_fill" transform="translate(168.574 -890)" fill="#DA9781"/>
</g>
<g id="Fill 35">
<use xlink:href="#path78_fill" transform="translate(191 -876.69)" fill="#6477A4"/>
</g>
<g id="Fill 37">
<use xlink:href="#path79_fill" transform="translate(205.149 -885.174)" fill="#FF8B4B"/>
</g>
<g id="Fill 39">
<use xlink:href="#path80_fill" transform="translate(170 -877)" fill="#556791"/>
</g>
<g id="Fill 41">
<use xlink:href="#path81_fill" transform="translate(171 -873)" fill="#6477A4"/>
</g>
<g id="Fill 43">
<use xlink:href="#path82_fill" transform="translate(173.421 -859)" fill="#7E9BD5"/>
</g>
<g id="Fill 45">
<use xlink:href="#path83_fill" transform="translate(207 -862.166)" fill="#5382C6"/>
</g>
<g id="Fill 47">
<use xlink:href="#path84_fill" transform="translate(192 -860)" fill="#5382C6"/>
</g>
<g id="Fill 49">
<use xlink:href="#path85_fill" transform="translate(195 -845)" fill="#556791"/>
</g>
<g id="Fill 51">
<use xlink:href="#path86_fill" transform="translate(207.248 -846)" fill="#556791"/>
</g>
<g id="Fill 53">
<use xlink:href="#path87_fill" transform="translate(196 -860)" fill="#7E9BD5"/>
</g>
<g id="Fill 55">
<use xlink:href="#path88_fill" transform="translate(200 -845)" fill="#6477A4"/>
</g>
<g id="Fill 57">
<use xlink:href="#path89_fill" transform="translate(177 -844.403)" fill="#6477A4"/>
</g>
<g id="Fill 59">
<use xlink:href="#path90_fill" transform="translate(207.954 -829.97)" fill="#5382C6"/>
</g>
<g id="Fill 61">
<use xlink:href="#path91_fill" transform="translate(197 -830)" fill="#5382C6"/>
</g>
<g id="Fill 63">
<use xlink:href="#path92_fill" transform="translate(179.62 -829)" fill="#7E9BD5"/>
</g>
<g id="Fill 69">
<use xlink:href="#path93_fill" transform="translate(201.507 -830.673)" fill="#7E9BD5"/>
</g>
<g id="Fill 91">
<use xlink:href="#path94_fill" transform="translate(212 -883)" fill="#FF8B4B"/>
</g>
<g id="Fill 180">
<use xlink:href="#path95_fill" transform="translate(219 -864)" fill="#DC5D2A"/>
</g>
<g id="Fill 182">
<use xlink:href="#path96_fill" transform="translate(216 -933)" fill="#BB7B66"/>
</g>
<g id="Fill 184">
<use xlink:href="#path97_fill" transform="translate(134 -949)" fill="#F0B9A0"/>
</g>
<g id="Fill 186">
<use xlink:href="#path98_fill" transform="translate(146 -984)" fill="#DA9781"/>
</g>
<g id="Fill 188">
<use xlink:href="#path99_fill" transform="translate(173 -936.572)" fill="#DA9781"/>
</g>
<g id="Fill 190">
<use xlink:href="#path100_fill" transform="translate(148 -934)" fill="#BB7B66"/>
</g>
<g id="Fill 192">
<use xlink:href="#path101_fill" transform="translate(179 -916)" fill="#DA9781"/>
</g>
<g id="Fill 194">
<use xlink:href="#path102_fill" transform="translate(178 -918)" fill="#BB7B66"/>
</g>
<g id="Fill 196">
<use xlink:href="#path103_fill" transform="translate(182 -919)" fill="#EBBBA5"/>
</g>
<g id="Fill 198">
<use xlink:href="#path104_fill" transform="translate(219 -932)" fill="#DA9781"/>
</g>
<g id="Fill 200">
<use xlink:href="#path105_fill" transform="translate(218 -933)" fill="#BB7B66"/>
</g>
<g id="Fill 202">
<use xlink:href="#path106_fill" transform="translate(138 -933)" fill="#BB7B66"/>
</g>
<g id="Fill 204">
<use xlink:href="#path107_fill" transform="translate(138 -932)" fill="#DA9781"/>
</g>
<g id="Group 12">
<g id="Fill 222">
<use xlink:href="#path108_fill" transform="translate(157.548 -935.477)"/>
</g>
<g id="Fill 224">
<use xlink:href="#path109_fill" transform="translate(158 -933.715)" fill="#E6DFDD"/>
</g>
<g id="Fill 226">
<use xlink:href="#path110_fill" transform="translate(159.99 -931.747)" fill="#FFF7F5"/>
</g>
<g id="Fill 228">
<use xlink:href="#path111_fill" transform="translate(163 -931)" fill="#7F5757"/>
</g>
<g id="Fill 230">
<use xlink:href="#path112_fill" transform="translate(164 -930)"/>
</g>
<g id="Fill 232">
<use xlink:href="#path113_fill" transform="translate(165 -929)" fill="#FFFFFF"/>
</g>
</g>
<g id="Group 12 Copy">
<g id="Fill 222">
<use xlink:href="#path108_fill" transform="matrix(-1 0 0 1 208.452 -935.477)"/>
</g>
<g id="Fill 224">
<use xlink:href="#path109_fill" transform="matrix(-1 0 0 1 208 -933.715)" fill="#E6DFDD"/>
</g>
<g id="Fill 226">
<use xlink:href="#path110_fill" transform="matrix(-1 0 0 1 206.01 -931.747)" fill="#FFF7F5"/>
</g>
<g id="Fill 228">
<use xlink:href="#path111_fill" transform="matrix(-1 0 0 1 203 -931)" fill="#7F5757"/>
</g>
<g id="Fill 230">
<use xlink:href="#path112_fill" transform="matrix(-1 0 0 1 202 -930)"/>
</g>
<g id="Fill 232">
<use xlink:href="#path113_fill" transform="matrix(-1 0 0 1 201 -929)" fill="#FFFFFF"/>
</g>
</g>
<g id="Fill 234">
<use xlink:href="#path114_fill" transform="translate(190 -947)"/>
</g>
<g id="Fill 236">
<use xlink:href="#path115_fill" transform="translate(153 -947)"/>
</g>
<g id="Fill 238">
<use xlink:href="#path116_fill" transform="translate(173 -907)" fill="#BB7B66"/>
</g>
<g id="Fill 240">
<use xlink:href="#path117_fill" transform="translate(181 -898)" fill="#BB7B66"/>
</g>
<g id="Fill 246">
<use xlink:href="#path118_fill" transform="translate(177 -905)" fill="#E7E0DA"/>
</g>
<g id="Fill 248">
<use xlink:href="#path119_fill" transform="translate(177.321 -904.339)" fill="#F3F0ED"/>
</g>
<g id="Fill 252">
<use xlink:href="#path120_fill" transform="translate(187 -996)" fill="#6D4949"/>
</g>
<g id="Fill 254">
<use xlink:href="#path121_fill" transform="translate(128 -1003)" fill="#805858"/>
</g>
<g id="Fill 256">
<use xlink:href="#path122_fill" transform="translate(169 -969)" fill="#6D4949"/>
</g>
<g id="Fill 258">
<use xlink:href="#path123_fill" transform="translate(146 -973)" fill="#6D4949"/>
</g>
<g id="Fill 260">
<use xlink:href="#path124_fill" transform="translate(159 -970)" fill="#6D4949"/>
</g>
<g id="Fill 262">
<use xlink:href="#path125_fill" transform="translate(134 -953)" fill="#6D4949"/>
</g>
</g>
</g>
</g>
</g>
<defs>
<path id="path0_fill" fill-rule="evenodd" d="M 0 0L 180 0L 180 196L 0 196L 0 0Z"/>
<path id="path1_fill" fill-rule="evenodd" d="M 3.19258e-14 0L 40.6741 0L 40.6741 118.325L 0 118.325L 0 0L 3.19258e-14 0Z"/>
<path id="path2_fill" fill-rule="evenodd" d="M 0 0.402679C 9.43168 4.37705 18.2143 12.9398 25.8779 25.6525C 32.1936 39.9438 35.4842 56.6219 36.2705 75.3664L 33.498 98.6554L 28.644 118.724C 40.9109 94.3407 44.468 67.5176 37.8715 39.7246C 29.9277 12.7206 19.822 -0.38633 7.52648 0.402679C 5.08446 -0.302297 2.13312 0.0642907 0 0.402679Z"/>
<path id="path3_fill" fill-rule="evenodd" d="M 13.8483 34.6294L 12.1984 35.458C 0.906781 57.7951 -1.2916 73.4233 0.609159 81.5973C 2.42604 84.5208 4.6338 87.1609 7.28894 89.5732C 4.13107 80.9165 4.13107 72.0041 7.28894 62.8368C 16.205 44.8134 21.8229 29.4295 24.1984 16.6578C 24.0032 12.0881 22.1156 4.17223 21.109 0C 20.3821 10.7852 17.5392 24.2411 13.2355 34.6294L 13.8483 34.6294Z"/>
<path id="path4_fill" fill-rule="evenodd" d="M 73.0521 101.369L 73.1926 100.86C 77.5174 90.4991 80.045 79.9402 80.7756 69.1837C 81.7871 73.3448 82.4052 77.6759 82.6013 82.2335C 83.1633 95.7358 80.1018 110.88 73.3893 127.695C 75.1864 124.722 76.8436 121.694 78.3884 118.665L 83.4718 98.1984L 86 74.8735C 85.2138 56.0489 81.6747 39.4893 75.3556 25.1374C 67.6878 12.3707 59.1215 3.99123 49.6847 0C 43.0278 0.962835 38.1692 6.87917 35.1077 17.7213L 1.43241 81.5255C 0.95475 83.9315 0.477656 86.3097 0 88.7156L 20.4751 112.635C 20.6156 112.069 20.7561 111.503 20.896 110.965L 53.3918 103.974C 52.4646 113.881 52.69 124.185 54.0943 134.914C 55.049 139.357 56.65 143.377 58.8967 147C 56.9866 138.848 61.7053 123.647 73.0521 101.369Z"/>
<path id="path5_fill" fill-rule="evenodd" d="M 24.7799 25.5687L 12.798 59.811C 11.7293 65.2071 10.548 70.6033 9.25365 76C 17.608 60.8845 23.8238 44.8373 27.8465 27.8575L 31.3903 32.2079L 26.1025 46.3624C 25.7929 47.8599 25.4553 49.3573 25.0895 50.8547C 30.9682 43.2834 35.2717 34.2988 38 23.8734L 17.4954 0C 16.7081 3.64492 15.8921 7.261 15.0479 10.9054L 17.805 14.1269L 4.78187 46.9277C 3.29109 51.4765 1.68775 56.0253 0 60.5453C 7.17252 47.5772 13.417 32.8297 18.733 16.3303C 18.9299 15.7368 19.1263 15.1155 19.3239 14.4937L 24.7799 25.5687Z"/>
<path id="path6_fill" fill-rule="evenodd" d="M 13.3052 11.7422L 7.2168 0C 7.01897 0.617453 6.14062 1.97897 5.94392 2.56836C 4.81725 16.9606 2.84515 31.3524 0 45.7446L 13.3052 11.7422Z"/>
<path id="path7_fill" fill-rule="evenodd" d="M 13.8599 3.54297L 10.8022 0C 7.91024 12.0846 3.93073 25.1743 0 37.0894L 13.8599 3.54297Z"/>
<path id="path8_fill" fill-rule="evenodd" d="M 0 19L 5 4.46676L 1.64911 0C 1.67518 6.35249 1.1441 12.676 0 19Z"/>
<path id="path9_fill" fill-rule="evenodd" d="M 6.94287 5.8501L 7.52197 0L 0 4.74643C 1.21615 9.45417 3.18934 13.7112 5.91904 17.5176L 6.94287 5.8501Z"/>
<path id="path10_fill" fill-rule="evenodd" d="M 0.340983 16.8811L 0 21.7239C 7.58403 26.2878 15.4522 27.8836 23.6324 26.5393C 27.0411 25.9798 30.5061 24.9161 34 23.3483L 34 17.2452L 34 2.35197L 1.47703 0L 0.340983 16.8811Z"/>
<path id="path11_fill" fill-rule="evenodd" d="M 2.18736 20.7456L 0 16.5633C 0.227317 18.2759 0.454635 20.016 0.653537 21.8403L 4.80037 22.7952L 9.60074 37L 16.5879 22.2896C 17.1556 18.6123 17.9223 16.114 18.9162 14.8227C 23.092 12.3243 26.4438 9.6575 29 6.76542L 29 0C 25.5061 1.57214 22.0413 2.63933 18.6326 3.20044L 9.62916 29.3926L 5.85115 21.9251L 2.18736 20.7456Z"/>
<path id="path12_fill" fill-rule="evenodd" d="M 7.84217 23.412L 11.4419 24.5907L 15.626 32.4722L 25.4404 4.83594C 17.4034 6.18249 8.47427 4.57347 1.02295 0L 0 13.1167C 1.6466 15.3052 3.54391 17.3528 5.69304 19.2326L 7.84217 23.412Z"/>
<path id="path13_fill" fill-rule="evenodd" d="M 12.3043 0L 0 8.58794L 0.469688 11.1704L 5.42676 38.7329C 10.2929 28.7142 17.3849 22.1443 24.9331 19.3665C 22.8043 17.4859 19.9908 14.9028 18.3593 12.714C 15.5666 8.92486 13.5485 4.68704 12.3043 0Z"/>
<path id="path14_fill" fill-rule="evenodd" d="M 11.5342 0L 0 6.53467C 7.30381 35.0682 15.7778 82.3359 34.7749 108.903C 36.4583 85.7063 37.7754 38.4497 33.1162 16.4194C 27.5814 18.3219 22.2731 22.8881 17.1094 30.0435C 14.3991 19.8222 12.1839 10.1923 10.5576 0L 11.5342 0Z"/>
<path id="path15_fill" fill-rule="evenodd" d="M 2.45283 0L 0 1.47453C 1.6259 11.6538 3.82191 21.8621 6.53212 32.0703C 11.694 24.9246 17.0568 20.3881 22.5902 18.4881C 25.3569 41.2295 25.7215 86.4473 24.0386 109.614C 24.9796 111.826 25.2689 111.389 26.21 113.601C 27.151 100.897 28.6087 69.5003 28.8649 58.5835C 29.2644 41.0026 28.7799 25.9175 27.3823 13.0716C 27.1825 11.2289 26.9543 9.47069 26.726 7.74142C 18.9395 10.5481 12.5215 16.9846 7.50172 27.1077L 2.45283 0Z"/>
<path id="path16_fill" fill-rule="evenodd" d="M 4.00704 1.20115L 0 0C 1.3722 12.7652 1.76692 27.999 1.3747 45.273L 4.87552 17.3475L 11.3163 25.5194L 14.1727 104.703L 12.4363 108.846C 13.2482 110.536 14.0607 112.227 14.9006 113.89C 16.0767 113.692 17.2533 113.523 18.4294 113.382C 19.1573 113.298 19.8857 113.213 20.6141 113.129C 32.6277 111.917 44.0809 113.27 54.9185 117.243L 53.4628 108C 53.7984 107.803 54.1351 107.634 54.4988 107.465L 53.1266 103.012L 52.6503 101.462C 41.7007 103.181 30.1354 103.942 17.9251 103.745L 17.8136 100.054L 14.705 10.7256C 14.7885 8.72462 14.9286 6.92156 15.0967 5.25832C 15.2368 3.56802 14.9006 1.35258 15.0967 0L 8.56787 14.3447L 4.00704 1.20115Z"/>
<path id="path17_fill" fill-rule="evenodd" d="M 0 2.72303C 3.44004 22.9477 9.01134 42.7745 16.6587 62.1484L 8.84127 108.98C 9.94985 109.377 11.0869 109.745 12.2239 110.086C 18.8759 112.157 25.4431 113.461 31.9251 114L 34.7607 96.0103C 21.0017 64.1273 11.062 32.2229 5.17676 0L 0 2.72303Z"/>
<path id="path18_fill" fill-rule="evenodd" d="M 12.3881 0C 11.1692 4.02721 10.0353 8.13893 8.98604 12.3357C 11.991 28.36 16.6403 44.2717 22.9049 60.0153L 20.2119 92.1203C 12.6717 92.9373 5.9249 95.3592 0 99.3588C 0.0283596 100.907 0.0567193 102.456 0.0850789 104.033C 6.40644 99.4151 12.7562 96.6834 19.0781 95.8663L 16.8666 106.652L 20.2119 108.568L 18.7951 116.284C 11.4244 118.34 6.06669 120.396 2.72139 122.453C 3.71341 124.339 4.84723 126.169 6.12285 128C 7.54026 126.479 9.01496 125.184 10.5169 124.114C 13.8906 121.72 17.4905 120.48 21.289 120.425L 23.7274 110.173L 24.5776 106.597C 23.4438 106.258 22.31 105.892 21.2045 105.498L 29 59.0011C 21.3747 39.7655 15.8184 20.0802 12.3881 0Z"/>
<path id="path19_fill" fill-rule="evenodd" d="M 1.65864 29.4765C 1.39999 40.5838 0.949921 71.35 0 84.0435C 4.1459 93.5634 5.37431 95.0939 10.0381 104.473L 17.0215 101.738L 12.2212 8.70312L 5.49707 0L 1.65864 29.4765Z"/>
<path id="path20_fill" fill-rule="evenodd" d="M 23.2544 47.6943C 16.9776 31.9559 12.2829 16.0201 9.27201 0C 2.76783 25.9871 -0.435002 55.8082 0.047484 87.8213C 5.98394 83.8233 12.7439 81.4016 20.2988 80.5853L 23.2544 47.6943Z"/>
<path id="path21_fill" fill-rule="evenodd" d="M 1.67711 0L 0 1.01911C 5.78628 33.1646 15.4569 65.1402 28.9845 96.9465L 26.9445 114.745C 29.1523 114.915 31.3322 115 33.5126 115L 36 101.927C 20.9351 69.1306 9.47492 35.145 1.67711 0Z"/>
<path id="path22_fill" fill-rule="evenodd" d="M 24 9.2026L 15.409 0C 14.479 3.41229 12.676 6.62925 10 9.62235C 7.46495 12.5035 4.14137 15.1608 0 17.6508C 6.62011 21.119 11.803 27.2446 15.4929 36C 20.2819 28.0001 23.0706 19.7484 23.8591 11.2443C 23.916 10.5732 23.9718 9.90218 24 9.2026Z"/>
<path id="path23_fill" fill-rule="evenodd" d="M 0 0L 0 6.17445L 0 13C 2.47369 9.96944 4.35667 7.22704 5.21631 3.77148L 0 0Z"/>
<path id="path24_fill" fill-rule="evenodd" d="M 0.397374 10.2387C 0.226827 11.9122 0.0847049 13.727 0 15.741L 3.15398 105.653C 14.1491 106.844 24.4064 104.972 33.9252 100.008L 32.334 74.453C 33.8683 51.5922 36.7665 28.7315 41 5.84288L 30.7428 0C 28.1857 8.39545 24.179 16.5072 18.7522 24.3641C 11.7063 9.95548 5.59677 5.24701 0.397374 10.2387Z"/>
<path id="path25_fill" fill-rule="evenodd" d="M 0.0634005 18.5432C 5.18831 13.5761 11.3499 19.8653 18.2953 34.2026C 23.6444 26.3848 27.2489 17.3884 29.7693 9.03413L 39.468 14.9335C 35.2945 37.7098 32.1748 60.496 30.6619 83.2446L 32.2712 108.028C 22.8893 112.967 13.6181 114.674 2.77995 113.489L 2.89202 117.186C 15.1031 117.384 26.6691 116.621 37.6194 114.9C 38.684 114.702 39.7481 114.533 40.8122 114.364L 34.9589 80.6078C 36.6108 60.5969 39.9443 40.5577 44.9571 20.5474C 51.3703 49.8432 54.7032 80.5513 54.9553 112.67C 49.3261 113.32 43.7249 114.59 38.0957 116.453L 39.468 120.912C 45.2093 117.948 50.6984 116.735 55.9354 117.327C 56.4111 124.863 55.5437 131.101 53.3869 136.04L 45.8811 139.003C 46.4134 140.358 46.9172 141.713 47.3375 143.068C 50.6143 141.177 53.8627 140.782 57.1396 141.882C 58.1196 142.193 59.0716 142.644 60.0522 143.237C 63.189 135.475 64.6734 127.686 64.5333 119.924C 62.9369 119.106 61.285 118.456 59.632 118.005C 61.0048 73.6647 56.8594 38.413 47.1413 12.2208L 26.6131 0C 25.8286 8.58014 23.0566 15.7362 18.2953 23.8081C 14.6262 14.9744 9.36176 9.41545 2.77995 5.91597C 1.79991 7.21423 0.623185 10.4719 0.0634005 14.169C -0.133281 15.5238 0.203487 16.8503 0.0634005 18.5432Z"/>
<path id="path26_fill" fill-rule="evenodd" d="M 10 0C 4.98627 20.0307 1.65275 40.6624 0 60.6926L 5.85496 94.4824C 4.79011 94.652 3.72583 94.821 2.66099 95.0188L 3.13736 96.5728C 8.76758 94.7085 15.5138 93.4527 21.144 92.8032C 20.8918 60.6527 16.4143 29.8981 10 0.572754L 10 0Z"/>
<path id="path27_fill" fill-rule="evenodd" d="M 83.1031 50.6662C 82.708 51.1172 82.3135 51.5964 81.8902 52.1331C 80.762 53.5713 79.6055 55.264 78.4203 57.2107C 79.2663 54.3333 80.5644 51.7098 82.3412 49.3398C 86.9958 16.5887 75.3742 0.142023 47.4752 0.000917413C 21.1848 -0.140188 9.50622 15.9961 12.44 48.4091C 14.8663 51.343 16.3327 54.2768 16.8683 57.2107C 15.4302 54.8689 14.0474 52.8946 12.7222 51.2865C 11.9602 50.3558 11.1989 49.5374 10.4657 48.8324C 9.84486 48.2398 9.22459 47.7324 8.63196 47.309C 5.5571 45.1084 2.76444 45.1366 0.310421 47.4219C 0.196976 47.563 0.0840959 47.7041 0 47.8452C 3.1313 46.6323 6.43136 47.7041 9.9013 51.0049L 18.9566 61.2164L 24.2032 68.8609L 22.3695 58.5647L 27.5315 62.26C 26.3751 54.813 26.2622 47.3649 27.137 39.9179C 31.1702 45.1084 35.3457 48.7477 39.6611 50.8355L 39.6611 41.6389C 44.6261 45.8985 49.5912 48.6066 54.5557 49.7355C 54.2452 43.7261 55.1765 37.7178 57.3201 31.709L 73.3141 46.0679C 74.7533 53.9099 73.7092 62.4581 70.1834 71.7389C 64.2594 84.6021 54.9225 90.8931 42.2003 90.6109C 47.0237 91.3164 51.7066 91.0624 56.2483 89.8495L 58.3925 89.2568C 61.6361 88.3826 65.2189 85.5898 69.1116 80.935C 71.1705 78.4809 73.935 74.5881 77.4049 69.3124C 77.8559 68.6075 78.3074 67.902 78.7871 67.1688C 78.9282 66.9712 79.0693 66.7455 79.2104 66.5197C 83.2724 67.3381 86.9394 66.0399 90.24 62.6833C 95.7124 55.2076 97.2922 50.13 94.9505 47.4219C 94.3578 46.8857 93.7664 46.463 93.1455 46.1808C 94.4149 49.9889 93.9633 53.7406 91.7351 57.4365C 89.1682 61.8085 86.4314 64.0091 83.4976 64.0656L 80.254 61.6115L 83.1031 50.6657L 83.1031 50.6662Z"/>
<path id="path28_fill" fill-rule="evenodd" d="M 6.59586 1.58747C 5.40459 2.3885 4.18426 3.46594 2.93485 4.87562L 0 15.5958L 3.34124 18C 6.36389 17.9442 9.18188 15.7893 11.8266 11.5066C 14.1219 7.88735 14.5871 4.21224 13.2795 0.482396C 11.2452 -0.429196 9.00804 -0.0422255 6.59586 1.58747Z"/>
<path id="path29_fill" fill-rule="evenodd" d="M 3.53937 2.83878C 3.68332 1.86403 3.85605 0.917384 4 0C 2.18684 2.40849 0.863106 5.07516 0 8C 1.20858 6.0218 2.38837 4.3012 3.53937 2.83878Z"/>
<path id="path30_fill" fill-rule="evenodd" d="M 58.3038 0C 56.1497 6.01791 55.2147 12.0353 55.5266 18.0532C 50.5387 16.9226 45.5513 14.211 40.5634 9.94487L 40.5634 19.1555C 36.2275 17.0639 32.0334 13.4196 27.981 8.22135C 27.1027 15.6801 27.2161 23.1389 28.3779 30.5972L 23.1916 26.8963L 25.0337 37.2081L 19.7629 29.552L 10.6659 19.325C 7.18053 16.0193 3.86469 14.9459 0.718963 16.1606C -1.12323 18.957 0.577212 23.9015 5.79194 31.0211C 9.07942 34.3828 12.7632 35.6829 16.8723 34.8633C 17.3537 35.7954 17.8356 36.7281 18.317 37.6603C 20.5278 41.7285 22.9937 45.3169 25.7136 48.4248C 29.9366 53.2274 34.4709 56.5048 39.3166 58.2283C 40.5917 58.5392 41.8386 58.7931 43.1143 58.9909C 55.8951 59.2735 65.2751 52.973 71.2263 40.0904C 74.7684 30.7956 75.8174 22.2345 74.3715 14.3806L 58.3038 0Z"/>
<path id="path31_fill" fill-rule="evenodd" d="M 0 0C 0.0764623 0.951712 0.152925 1.93286 0.254874 2.94229C 1.45227 4.58657 2.70065 6.60542 4 9C 3.51574 6 2.1909 3 0 0Z"/>
<path id="path32_fill" fill-rule="evenodd" d="M 3.53435 2.24285C 4.18929 2.69153 4.8448 2.94335 5.49974 3C 6.15525 2.91531 6.8102 2.66293 7.46514 2.24285C 8.06365 1.76612 8.80466 1.56983 9.74461 1.71004C 10.6276 1.73808 11.0266 1.34549 10.9986 0.476164C 10.2291 0.924846 9.2031 1.06506 7.97872 0.924846C 6.09825 1.45766 4.27479 1.40157 2.50833 0.784633C 1.51138 0.869321 0.685435 0.588895 0.00142294 0L 0.00142294 0.476164C -0.0270776 1.34549 0.37193 1.73808 1.25488 1.71004C 2.19482 1.56983 2.93584 1.76612 3.53435 2.24285Z"/>
<path id="path33_fill" fill-rule="evenodd" d="M 6 5.55382C 5.34949 5.49742 4.69841 5.24668 4.04789 4.79994C 3.45343 4.32584 2.71743 4.12984 1.78384 4.26944C 0.906861 4.29792 0.510551 3.90702 0.538859 3.04147L 0.538859 2.5668L 0.538859 1.70236C 0.623783 0.418544 1.38809 0.167252 2.88727 0.920568C 1.07671 -0.502857 0.114242 -0.279487 0.0293188 1.61804L 0.001011 3.29276C -0.0272968 4.54865 0.538859 5.02331 1.69891 4.66034C 2.66138 4.52073 3.48174 4.79994 4.16056 5.44213C 4.72672 5.77663 5.2923 5.97208 5.88677 6L 6.05662 6L 6.11323 6C 6.70713 5.97208 7.27328 5.77663 7.83944 5.44213C 8.51826 4.79994 9.33862 4.52073 10.3011 4.66034C 11.4611 5.02331 12.0273 4.54865 11.999 3.29276L 11.9707 1.61804C 11.8858 -0.279487 10.9233 -0.502857 9.11273 0.920568C 10.6119 0.167252 11.3762 0.418544 11.4611 1.70236L 11.4611 3.04147C 11.4894 3.90702 11.0931 4.29792 10.2162 4.26944C 9.28257 4.12984 8.54657 4.32584 7.95211 4.79994C 7.30159 5.2182 6.65051 5.47006 6 5.55382Z"/>
<path id="path34_fill" fill-rule="evenodd" d="M 5 1C 3.43125 -0.31331 1.78214 -0.343092 0 0.970218C 1.755 0.211664 3.43125 0.211664 5 1Z"/>
<path id="path35_fill" fill-rule="evenodd" d="M 2.7041 0.0910337C 1.90032 -0.0503199 1.2758 -0.0298899 0.851362 0.172202C 0.382395 0.373189 0.09211 0.776268 0.0256104 1.36101C -0.130519 2.38914 0.428078 4.06164 1.67769 6.42048C 1.70024 6.46078 1.74477 6.50109 1.81127 6.52152C 1.87835 6.54195 1.92287 6.52152 1.98995 6.50109C 2.03505 6.48066 2.07958 6.44091 2.10155 6.4006C 2.12411 6.33986 2.10155 6.27968 2.07958 6.23937C 2.0125 6.13832 1.96798 6.0174 1.92287 5.9169C 0.829388 3.84022 0.337869 2.32895 0.450051 1.40132C 0.517129 0.978359 0.695233 0.696204 1.03004 0.534973C 1.40996 0.373189 1.92287 0.353311 2.61505 0.494113L 2.59307 0.494113C 5.73995 1.44162 8.66478 4.20299 11.3658 8.79919C 10.3608 8.65839 9.64666 8.89969 9.26732 9.52474C 8.86485 10.1095 8.79835 11.0973 9.04411 12.4876C 9.06609 12.5887 9.08864 12.7102 9.11061 12.8305C 9.13317 12.8913 9.15514 12.9316 9.22279 12.9719C 9.26732 12.9918 9.31185 13.0116 9.37892 12.9918C 9.44542 12.9719 9.48995 12.9515 9.53505 12.9112C 9.55761 12.8504 9.57958 12.8107 9.55761 12.7499C 9.24477 11.3187 9.28929 10.311 9.66863 9.72628C 10.026 9.18239 10.7176 9.04104 11.7226 9.26246C 11.7671 9.26246 11.8117 9.26246 11.8787 9.24258C 11.9233 9.22215 11.9684 9.18239 11.9909 9.12111C 12.0129 9.06092 11.9909 9.02116 11.9684 8.98085C 9.13317 4.04176 6.05279 1.09873 2.72665 0.110912L 2.7041 0.0910337Z"/>
<path id="path36_fill" fill-rule="evenodd" d="M 8.88831 9.05857C 9.27003 8.43805 9.98925 8.19851 11 8.33829C 8.28198 3.7754 5.33876 1.03405 2.1721 0.0939545L 2.19421 0.0939545C 1.49826 -0.0463746 0.981543 -0.0266408 0.599821 0.13397C 0.262905 0.294033 0.0831001 0.574143 0.0156005 0.994034C -0.0967049 1.91494 0.397322 3.41526 1.49826 5.47689C 1.83518 2.97509 3.07054 2.69498 5.20434 4.67603L 8.10159 7.71832C 7.04662 8.99882 7.22642 10.4191 8.6637 12C 8.41639 10.6197 8.48389 9.63907 8.88831 9.05857Z"/>
<path id="path37_fill" fill-rule="evenodd" d="M 9.29548 0.0910337C 10.0993 -0.0503199 10.7243 -0.0298899 11.1482 0.172202C 11.6172 0.373189 11.9074 0.776268 11.9745 1.36101C 12.1301 2.38914 11.5726 4.06164 10.3219 6.42048C 10.2999 6.46078 10.2554 6.50109 10.1883 6.52152C 10.1212 6.54195 10.0773 6.52152 10.0096 6.50109C 9.9651 6.48066 9.92057 6.44091 9.89802 6.4006C 9.87605 6.33986 9.89802 6.27968 9.92057 6.23937C 9.98707 6.13832 10.0316 6.0174 10.0773 5.9169C 11.1702 3.84022 11.6617 2.32895 11.5495 1.40132C 11.483 0.978359 11.3049 0.696204 10.9695 0.534973C 10.5902 0.373189 10.0773 0.353311 9.38453 0.494113L 9.40709 0.494113C 6.25966 1.44162 3.33544 4.20299 0.635009 8.79919C 1.63943 8.65839 2.35299 8.89969 2.73233 9.52474C 3.13479 10.1095 3.20187 11.0973 2.95611 12.4876C 2.93356 12.5887 2.91159 12.7102 2.88903 12.8305C 2.86706 12.8913 2.84451 12.9316 2.77801 12.9719C 2.73233 12.9918 2.68838 13.0116 2.6213 12.9918C 2.55423 12.9719 2.5097 12.9515 2.4646 12.9112C 2.44262 12.8504 2.42007 12.8107 2.44262 12.7499C 2.75488 11.3187 2.71035 10.311 2.33102 9.72628C 1.97366 9.18239 1.28207 9.04104 0.277072 9.26246C 0.232546 9.26246 0.188021 9.26246 0.121522 9.24258C 0.0764184 9.22215 0.0318931 9.18239 0.00934127 9.12111C -0.0132105 9.06092 0.00934127 9.02116 0.0318931 8.98085C 2.86706 4.04176 5.94741 1.09873 9.27293 0.110912L 9.29548 0.0910337Z"/>
<path id="path38_fill" fill-rule="evenodd" d="M 2.11122 9.05857C 1.72948 8.43805 1.0108 8.19851 0 8.33829C 2.71817 3.7754 5.66096 1.03405 8.82837 0.0939545L 8.80567 0.0939545C 9.50224 -0.0463746 10.019 -0.0266408 10.4007 0.13397C 10.7377 0.294033 10.9175 0.574143 10.9844 0.994034C 11.0967 1.91494 10.6027 3.41526 9.50224 5.47689C 9.16472 2.97509 7.9293 2.69498 5.79538 4.67603L 2.89798 7.71832C 3.95359 8.99882 3.77378 10.4191 2.33643 12C 2.58316 10.6197 2.51566 9.63907 2.11122 9.05857Z"/>
<path id="path39_fill" fill-rule="evenodd" d="M 4.50485 1.55569C 2.94635 1.64586 1.44511 1.34327 0 0.647901C 0.90596 2.61417 2.29495 3.94499 4.16469 4.58044C 11.617 0.557727 18.219 1.37413 24 7C 19.8914 0.133488 13.4023 -1.68148 4.50485 1.55569Z"/>
<path id="path40_fill" fill-rule="evenodd" d="M 19.4946 1.55569C 21.0531 1.64586 22.5549 1.34327 24 0.647901C 23.0935 2.61417 21.7045 3.94499 19.8347 4.58044C 12.3824 0.557727 5.77989 1.37413 0 7C 4.10857 0.133488 10.5977 -1.68148 19.4946 1.55569Z"/>
<path id="path41_fill" fill-rule="evenodd" d="M 0.280231 0C 0.168699 0.141252 0.0840692 0.310755 0 0.507943C 18.7962 4.99864 28.9366 16.1813 30.4487 34C 33.6703 29.0584 34.7071 24.8785 33.5302 21.5184C 33.1104 23.3541 32.1576 25.3305 30.6455 27.5052C 28.3762 12.7641 18.2357 3.58668 0.280231 0Z"/>
<path id="path42_fill" fill-rule="evenodd" d="M 17.2316 0.925842C 15.8261 0.585805 14.3925 0.303008 12.9032 0.0479796C 8.2924 -0.0937026 3.9921 0.076316 0 0.585805C 20.127 4.35342 33.6201 11.9164 40.4508 23.2748C 44.0767 29.676 46.0441 35.7094 46.3253 41.4027C 46.6628 55.9053 44.7235 67.292 40.5351 75.534C 40.4508 80.0944 39.9452 85.25 39.0734 91C 44.3861 76.8091 47.2533 61.6548 47.7033 45.5948C 48.0683 41.6578 48.097 37.9752 47.7871 34.5193C 46.2696 16.6463 36.0937 5.42964 17.2316 0.925842Z"/>
<path id="path43_fill" fill-rule="evenodd" d="M 4.14238 0.296417C 2.22388 -0.352999 0.861629 0.070533 0 1.50941C 17.8205 5.09418 27.8847 14.2667 30.1364 29C 31.6377 26.8264 32.5828 24.8511 33 23.0163C 32.9166 22.7622 32.8331 22.5369 32.7219 22.311C 27.7179 11.1061 18.1821 3.76768 4.14238 0.295852L 4.14238 0.296417Z"/>
<path id="path44_fill" fill-rule="evenodd" d="M 7.57556 9.57188L 8 0C 1.66265 11.9647 -0.909958 23.9015 0.283766 35.8092C 1.71517 36.9486 3.22669 38.0031 4.84432 39C 3.91587 29.7131 4.76474 20.1982 7.33682 10.4554C 7.4164 10.1419 7.49598 9.85687 7.57556 9.57188Z"/>
<path id="path45_fill" fill-rule="evenodd" d="M 54.8419 17.389L 54.1694 26.9694C 54.0847 27.2529 54.9266 27.5932 54.8419 27.9051C 59.8683 37.2014 65.1779 44.883 70.7976 50.9773C 73.4244 45.3367 75.4003 37.1736 76.5303 26.9694C 78.083 36.1817 78.0271 44.2875 76.558 50.7788C 77.8011 55.3991 78.1966 59.9338 77.7728 64.4691C 80.4838 58.0918 82.5739 49.843 84.0141 39.7812C 84.5786 50.5242 83.1666 59.906 79.8064 67.9274C 80.0889 70.252 80.2019 72.8029 80.1448 75.5518C 84.3526 67.3041 86.3013 55.9095 85.9623 41.3969C 85.6798 35.6996 83.7033 29.6621 80.0606 23.2564C 73.1978 11.8902 60.1257 3.77022 39.9058 0C 18.528 2.69269 4.88577 15.036 0 35.9259C 3.47377 28.6418 7.82274 23.9519 16.0122 18.8784L 12.0435 23.2564C 11.3377 24.4185 10.449 25.8641 9.85573 26.9694C 2.96469 39.526 2.34429 51.2325 6.58028 62.1167C 6.3537 56.5328 7.4555 51.1474 9.85573 45.9889L 9.85573 51.9692C 11.4655 60.8979 14.2047 67.8423 18.074 72.8029C 14.0075 63.619 11.7197 54.6057 11.2395 45.7904C 11.635 39.0723 12.2851 33.7158 14.2339 26.9694C 13.1892 38.0804 14.7697 46.1585 17.8474 53.9819C 18.2995 55.1439 18.808 56.2776 19.373 57.3829C 19.2318 41.8223 20.5691 31.7882 24.7769 25.5805C 24.6921 28.0753 24.5508 29.4695 24.7769 31.7085C 25.5391 40.2119 30.0198 47.519 34.7355 53.1312C 31.6572 46.8668 29.5672 37.2303 29.991 24.3901C 30.8102 19.7131 32.3917 15.8583 34.7355 12.7687C 32.7867 21.3571 32.7867 28.9254 34.7355 35.5295C 36.7684 42.5306 40.9762 48.398 47.3304 53.1312C 46.0591 41.2835 48.7989 29.4069 55.5482 17.5024L 54.8419 17.389Z"/>
<path id="path46_fill" fill-rule="evenodd" d="M 5.86799 23.6161C 5.86799 23.5595 5.86799 23.5318 5.89691 23.5029C 7.40078 17.0258 7.37129 9.19224 5.78181 0C 4.62498 10.182 2.68788 18.0727 0 23.701C 1.47379 25.2566 2.94817 26.6707 4.48038 28C 5.02987 26.6141 5.4926 25.1717 5.86799 23.6161Z"/>
<path id="path47_fill" fill-rule="evenodd" d="M 3.78138 24.3906C 3.36718 28.9272 2.09752 33.4633 0 38C 2.34604 34.8915 4.25081 31.476 5.769 27.8072C 9.05334 19.8819 10.4335 10.613 9.88175 0C 8.47401 9.94067 6.43117 18.0901 3.78138 24.3906Z"/>
<path id="path48_fill" fill-rule="evenodd" d="M 12.1866 9.56049C 12.7684 8.45753 13.4329 7.32571 14.125 6.16616L 19 0C 10.968 5.0632 5.23461 11.2288 1.82818 18.4979C 0.941521 22.3733 0.331943 26.5304 0 31C 1.43971 22.4293 5.5117 15.2739 12.1866 9.56049Z"/>
<path id="path49_fill" fill-rule="evenodd" d="M 4.8834 0C 2.51004 3.07586 0.908544 6.91462 0.0788999 11.571C -0.349654 24.3567 0.965189 33.8396 4.08236 40.0771C 5.28334 41.4883 6.59876 42.7865 8 44C 5.85551 36.8872 4.82561 29.7749 4.8834 22.6632C 2.90999 16.0869 2.90999 8.55165 4.8834 0Z"/>
<path id="path50_fill" fill-rule="evenodd" d="M 6 7.15045C 5.78585 4.90015 5.70555 2.50736 5.78585 0C 1.79894 6.23904 -0.127321 17.1787 0.00652169 32.818C 1.02319 35.0118 2.22724 37.0911 3.64544 39C 1.04996 28.1464 1.85248 17.5487 6 7.15045Z"/>
<path id="path51_fill" fill-rule="evenodd" d="M 3 6.0588L 3 0C 0.820837 5.22633 -0.178972 10.6819 0.026222 16.3385C 0.769538 18.578 1.76986 20.7893 3 23C 1.82065 17.3434 1.82065 11.7154 3 6.0588Z"/>
<path id="path52_fill" fill-rule="evenodd" d="M 6.60557 47.4175C 7.94241 49.2102 9.38956 50.7193 11 52C 7.91511 44.1727 6.35983 36.346 6.38713 28.5193C 3.412 20.6636 2.40227 11.1569 3.412 0C 1.52852 6.77434 0.382813 13.5475 0 20.2934C 0.464181 29.1451 2.67532 38.1962 6.60557 47.4175Z"/>
<path id="path53_fill" fill-rule="evenodd" d="M 12.2222 5.76105C 15.6111 3.82896 0.949393 -1.57403 0.113476 0.444213C -1.05572 5.76105 7.0772 8.69438 12.2222 5.76105Z"/>
<path id="path54_fill" fill-rule="evenodd" d="M 7.05737 10.9279C 2.43765 10.4087 0 6.95462 0 2.51739C 0 1.33079 2.45151 1.09772 6.15861 0.298546C 7.08168 0.0999696 8.00722 -0.0689753 9.08502 0.0283228C 9.67969 0.0791832 10.567 0.317564 11.0361 0.493585C 14.6321 1.84249 15.2185 6.35693 15.2185 6.35693C 15.2185 6.35693 12.962 11.5914 7.05737 10.9279Z"/>
<path id="path55_fill" fill-rule="evenodd" d="M 9.9966 5.00103C 10.0919 7.76092 8.17785 10.0037 4.99783 10C 1.86896 9.99627 0 7.76232 0 5.00103C 0 2.24021 1.95543 0.0880935 4.99783 0.00206477C 7.75757 -0.0751286 9.89385 2.01979 9.9966 5.00103Z"/>
<path id="path56_fill" fill-rule="evenodd" d="M 3.99992 1.99964C 4.0095 3.10432 3.10641 4 2.00396 4C 0.901521 4 0.105548 3.10005 0.0076481 1.99964C -0.0977012 0.807535 0.901521 0 2.00396 0C 3.10641 0 3.98751 0.652213 3.99992 1.99964Z"/>
<path id="path57_fill" fill-rule="evenodd" d="M 1.99995 1C 2.00532 1.55249 1.55338 2 1.00204 2C 0.450697 2 0.0531033 1.54998 0.00376169 1C -0.0484403 0.403798 0.450697 0 1.00204 0C 1.55338 0 1.99423 0.326048 1.99995 1Z"/>
<path id="path58_fill" fill-rule="evenodd" d="M 17 4.85656C 17 4.85656 13.5077 1.78422 9.73607 1.97555C 5.31167 2.20002 0.0803713 5.22212 0.0106258 4.98697C -0.119232 4.55229 0.911536 2.24135 4.74137 0.750966C 7.35586 -0.266615 14.8179 -1.2222 17 4.85656Z"/>
<path id="path59_fill" fill-rule="evenodd" d="M 17.352 0C 17.352 0 15.7054 3.15724 13.3364 4.39331C 11.3884 5.41095 9.513 5.70868 8.675 5.66968C 7.837 5.70868 6.3137 5.40748 4.3667 4.39331C 1.9937 3.15811 0 0.00866811 0 0.00866811C 0 0.00866811 2.916 0.995966 8.675 0.991632C 14.436 0.988164 17.352 0 17.352 0Z"/>
<path id="path60_fill" fill-rule="evenodd" d="M 6.192 2.23C 2.485 2.232 0.12 0.088 0 0.006C 1.296 0.113 11.087 0.107 12.381 0C 12.258 0.079 9.899 2.229 6.192 2.23Z"/>
<path id="path61_fill" fill-rule="evenodd" d="M 30.9472 0L 0 1.83209L 0.43852 12.7898L 0 14.5917L 0 17.2305C 7.39286 20.2729 15.7493 21.3687 23.2305 19.9805C 26.1814 19.419 28.9891 18.471 31.9698 17.2305C 31.9991 16.7287 31.8816 15.6851 31.9114 15.1821C 31.9406 14.9759 31.9406 14.7992 31.9698 14.5917C 32.0277 13.2626 31.9991 11.8743 31.9114 10.4861L 30.9472 0Z"/>
<path id="path62_fill" fill-rule="evenodd" d="M 4.94662 1.86754L 8 1.38604L 7.93891 0L 0 2.28938C 0.336006 3.40364 0.641466 4.30758 0.976861 5L 4.94662 1.86754Z"/>
<path id="path63_fill" fill-rule="evenodd" d="M 3.12358 0L 0 1.05518C 0.877123 2.60077 2.10433 4.79547 3.20795 6.24951L 3.74902 3.12476L 3.12358 0Z"/>
<path id="path64_fill" fill-rule="evenodd" d="M 0.0885807 2.19839C 0.237206 2.4093 0.415557 2.5907 0.564182 2.80101C 6.59599 8.43317 14.487 12.4274 22.3018 14.9277C 23.9063 11.7043 24.0069 7.28878 23.2935 2.19839C 15.6874 3.61396 7.51747 3.10233 0 0L 0.0885807 2.19839Z"/>
<path id="path65_fill" fill-rule="evenodd" d="M 7.04512 4.298C 5.88109 2.91401 4.80604 1.47114 3.88091 0L 0 3C 3.10449 9.66372 5.85123 16.6443 8.26888 24C 12.1797 17.5094 16.0892 14.5671 20 15.1149C 14.9849 12.0577 10.8358 8.65371 7.52292 4.87514C 7.37361 4.67314 7.19443 4.5 7.04512 4.298Z"/>
<path id="path66_fill" fill-rule="evenodd" d="M 4.37022 2.62183C 4.048 1.95151 3.75454 1.07718 3.43173 0C 2.25848 0.961183 1.11457 1.8938 0 2.7967C 11.2936 25.9572 17.9815 54.7111 20.0346 89.0583C 21.9415 119.707 20.5634 147.907 15.8991 173.689L 19.6537 175C 19.9178 173.777 20.1526 172.553 20.3867 171.3C 21.1791 166.96 21.8828 162.561 22.4997 158.103C 23.0267 154.112 23.4669 150.062 23.849 145.984C 24.1125 142.867 24.3473 139.721 24.5527 136.545C 24.7875 132 24.9342 127.397 24.9929 122.766C 25.0217 118.25 24.963 113.675 24.8162 109.044C 24.7282 106.247 24.5815 103.421 24.4347 100.595C 24.3766 98.2353 24.2892 95.8752 24.1706 93.5448C 23.9658 89.4081 23.7023 85.3296 23.3795 81.3386C 22.9393 76.0652 22.411 70.8792 21.7367 65.8396C 21.0617 60.8582 20.2699 56.022 19.3896 51.2738C 18.363 45.8838 17.1898 40.611 15.8698 35.5125C 15.1367 32.7741 14.4031 30.0648 13.6107 27.4132C 13.2298 26.2189 12.8771 25.0246 12.4962 23.8308C 10.1203 16.4019 7.42104 9.35186 4.37022 2.62183Z"/>
<path id="path67_fill" fill-rule="evenodd" d="M 0 4.27637C 14.7125 37.2174 19.9612 78.1489 17.1792 127.909C 16.4679 145.021 16.3436 158.552 14.5081 168.639L 21.4059 171C 26.1129 145.201 27.5042 116.983 25.5798 86.3157C 23.508 51.9469 16.7582 23.175 5.36134 0C 3.6739 1.31174 1.59919 3.08128 0 4.27637Z"/>
<path id="path68_fill" fill-rule="evenodd" d="M 4.40022 0L 0 14.0986L 8.22387 32.1177L 7.64331 75.9937C 7.87907 89.5783 10.6669 103.531 16.2483 116.301L 3.96957e-13 127.297L 4.40022 130.438L 19.3138 119.094L 23.0346 128.402L 10.4543 140.125L 12.2257 142.975L 14.6182 140.997L 28.9705 129.071C 26.7263 124.882 24.718 120.635 22.9459 116.301C 17.7191 103.473 15.7999 90.1312 14.4705 75.9937L 15.5037 31.5362L 4.40022 0Z"/>
<path id="path69_fill" fill-rule="evenodd" d="M 7.6386 0C 4.9749 1.98336 2.42948 3.9673 0 5.95125C 15.4236 33.9862 22.5346 72.0564 21.3055 120.104C 22.4468 139.503 20.3985 152.427 15.1308 158.932C 16.1549 160.595 17.209 162.229 18.3203 163.862L 21.569 165C 23.3837 154.906 24.642 141.283 25.3447 124.158C 28.0956 74.3608 22.1838 32.9653 7.6386 0Z"/>
<path id="path70_fill" fill-rule="evenodd" d="M 15.4089 0C 9.64901 4.66831 4.50275 9.33604 0 14.0043L 10.9062 45.4561L 9.32726 90.1252C 10.6435 104.305 13.9178 117.813 19.0927 130.68C 20.8471 135.028 22.8355 139.287 25.0574 143.489C 26.724 146.698 28.5656 149.878 30.5254 153C 35.788 146.493 37.8344 133.569 36.6942 114.166C 37.9221 66.1135 30.8179 28.0379 15.4089 0Z"/>
<path id="path71_fill" fill-rule="evenodd" d="M 18.5317 62.7642L 18.5317 18.718L 9.86229 0L 4.63793 18.7473C -2.96945 50.568 -1.21823 82.652 9.89101 115L 27 102.511C 21.5746 89.6712 18.7608 76.4228 18.5317 62.7642Z"/>
<path id="path72_fill" fill-rule="evenodd" d="M 5.46017 3.57763L 1.66487 0C 5.8983 39.9395 5.34334 72.7225 0 98.2915C 0 98.3206 0 98.3788 0.0297923 98.437C 0.175833 99.5131 0.292082 100.561 0.438123 101.608C 0.934661 105.826 1.31437 109.956 1.51882 114L 6.68692 91.1071C 13.3435 89.3029 17.7813 83.9216 20 74.9621C 15.7082 81.5074 11.4455 85.667 7.15366 87.3834C 10.307 59.4578 9.75202 31.5317 5.46017 3.57763Z"/>
<path id="path73_fill" fill-rule="evenodd" d="M 8.76786 6.47576C 7.35455 4.29819 5.88352 2.12005 4.29708 0C 8.53702 27.9057 9.08526 55.7824 5.97009 83.6597C 10.21 81.9457 14.4211 77.7934 18.6611 71.2601C 16.4692 80.2033 12.085 85.5758 5.50841 87.3763L 0.403392 110.229L 0 111.942C 5.33585 118.795 11.3931 124.139 18.1705 128C 22.7856 116.066 24.6606 101.111 23.7949 83.1362C 23.7667 82.8753 23.7667 82.5848 23.7372 82.3234C 20.1898 51.1072 15.1996 25.8153 8.76786 6.47576Z"/>
<path id="path74_fill" fill-rule="evenodd" d="M 12.0102 9.26585C 10.7854 7.80899 9.14218 6.29383 7.05061 4.69123L 0.0597763 0C 0.0298881 0.204625 0.0298881 0.378936 0 0.582395L 5.25852 6.00234C 5.40736 6.46873 5.52691 6.93511 5.67635 7.43064L 10.7257 14.6561C 13.6535 41.9873 14.9979 67.5992 14.7887 91.4914C 14.8484 91.7538 14.9082 91.987 14.968 92.2493C 15.8939 95.8912 16.7009 99.4747 17.4475 103C 19.031 73.1638 17.2084 41.9284 12.0102 9.26585Z"/>
<path id="path75_fill" fill-rule="evenodd" d="M 9.75045 6.96334C 9.6013 6.45944 9.48199 5.98577 9.33344 5.51151L 4.08536 0C 4.05493 0.504496 3.99587 0.978164 3.96604 1.48207C 3.45895 5.60043 2.14708 9.51191 0 13.1554C 5.69552 13.8075 10.0487 17.4226 13 24C 12.1057 17.5115 11.0319 11.8227 9.75045 6.96334Z"/>
<path id="path76_fill" fill-rule="evenodd" d="M 1.73304 0C 1.19363 0.910298 0.625237 1.82003 0 2.70131C 4.00549 2.87256 7.81205 5.54485 11.4202 10.692L 12.2438 18L 15 17.8009C 14.7442 15.2134 14.4322 12.7675 14.119 10.4075C 11.3071 4.09463 7.15953 0.62583 1.73304 0Z"/>
<path id="path77_fill" fill-rule="evenodd" d="M 28.496 11.3288C 30.6234 7.79302 31.9243 3.99719 32.4263 0C 29.4125 1.20756 26.3975 2.06993 23.4127 2.61647C 24.1222 7.47603 23.6788 11.4439 22.0829 14.5212C 14.311 12.1342 5.99861 7.3503 0 1.97412C 3.27928 5.74061 6.9251 10.2773 11.8901 13.3247C 14.7567 15.0788 18.625 17.4086 22.0829 18.9326C 23.3536 17.6388 25.6886 15.4123 26.6931 14.0603C 27.3436 13.1692 27.9349 12.2493 28.496 11.3288Z"/>
<path id="path78_fill" fill-rule="evenodd" d="M 16 8.34521C 12.2847 3.21016 8.59751 0.170847 4.47314 0C 3.47878 1.33385 1.25774 3.30081 0 4.57734C 0.730997 4.88895 1.46199 5.20113 2.19358 5.5133C 3.21721 9.22993 4.89274 13.8938 5.79932 17.6099L 16.8745 16.6904L 16 8.34521Z"/>
<path id="path79_fill" fill-rule="evenodd" d="M 0 0C 1.26524 4.77522 2.66001 11.4486 3.54297 17.8247C 3.86752 20.2417 4.70746 21.8368 4.97252 24.4857C 5.4732 29.1152 5.91497 34.1229 6.23835 39.4807C 6.56232 44.3427 6.79793 49.4674 6.97464 54.9126C 7.1219 60.1824 7.2397 65.7144 7.29802 71.5376L 7.29802 74.9729C 8.21102 78.0884 9.03566 81.1457 9.83026 84.1738C 10.0364 60.2989 8.71169 34.7055 5.82603 7.39462L 0 0Z"/>
<path id="path80_fill" fill-rule="evenodd" d="M 23.0754 5.00296C 22.344 4.68514 21.6131 5.32078 20.8823 5.00296C 17.4603 3.47281 14.3309 1.82594 11.4941 0.0646435C 7.66255 -0.484315 3.83157 2.46157 0 8.96009C 0.380348 10.1441 0.731438 11.3281 1.11179 12.5121L 10.0318 4.56957L 19.8583 9.85518L 21.4376 18L 27.0742 17.2754C 26.1672 13.4916 24.8628 9.77401 23.8394 5.99023L 23.0754 5.00296Z"/>
<path id="path81_fill" fill-rule="evenodd" d="M 19.446 5.29474L 8.77706 0L 0 7.95658C 0.777292 10.5901 1.85752 14.5064 2.57666 17.2256L 21.1904 14.3838L 19.446 5.29474Z"/>
<path id="path82_fill" fill-rule="evenodd" d="M 18.7044 0L 0 2.82129C 1.31976 7.82959 2.69972 13.1268 3.72607 18.4214L 21.5786 14.7947L 18.7044 0Z"/>
<path id="path83_fill" fill-rule="evenodd" d="M 3.27441 0L 0 1.36725L 0.872559 16.166L 4.70361 16.166C 4.38981 10.8787 3.76027 5.93584 3.27441 1.36725L 3.27441 0Z"/>
<path id="path84_fill" fill-rule="evenodd" d="M 2.92549 16L 8 15.052C 6.95476 10.0448 5.85038 5.00726 4.65641 0L 0 0.681192L 2.92549 16Z"/>
<path id="path85_fill" fill-rule="evenodd" d="M 5.17103 0L 0 0.903764L 2.88984 15L 8 14.1239C 7.1479 9.40672 6.20511 4.71777 5.17103 0Z"/>
<path id="path86_fill" fill-rule="evenodd" d="M 0 0L 1.51709 16.7749L 5.38818 16.7749C 5.21164 11.4822 4.3406 4.7265 4.01692 0L 0 0Z"/>
<path id="path87_fill" fill-rule="evenodd" d="M 12 15.4305L 11.1318 0L 0 0.778748C 1.19689 5.84271 2.30456 10.9366 3.35176 16L 12 15.4305Z"/>
<path id="path88_fill" fill-rule="evenodd" d="M 8.3631 0L 0 0.546186C 0.983724 5.34515 1.8806 10.1154 2.6912 14.9132L 9 15L 8.3631 0Z"/>
<path id="path89_fill" fill-rule="evenodd" d="M 18.0933 0L 0 3.69814C 0.868634 8.49179 1.86881 14.4466 2.53418 19.4756L 26.0435 14.5024L 18.0933 0Z"/>
<path id="path90_fill" fill-rule="evenodd" d="M 0 0L 1.05273 16.9697L 5.0459 16.9697C 4.98187 11.0257 4.85381 5.37906 4.69373 0L 0 0Z"/>
<path id="path91_fill" fill-rule="evenodd" d="M 0 0.916873L 1.18073 7.42075L 2.24896 17L 7 16.202C 6.32554 10.7913 5.56614 5.41073 4.72292 0L 0 0.916873Z"/>
<path id="path92_fill" fill-rule="evenodd" d="M 19.2802 6.48088L 18.0646 0L 0 3.67676C 0.665972 8.77317 0.154538 13.5248 0.588867 18.8569L 20.3799 16.0248L 19.2802 6.48088Z"/>
<path id="path93_fill" fill-rule="evenodd" d="M 0 0C 0.867549 5.18205 1.73918 12.3779 2.43311 17.5605L 8.14404 17.5605L 6.79817 0.75784L 0 0Z"/>
<path id="path94_fill" fill-rule="evenodd" d="M 0 0C 5.05353 32.6027 6.8254 63.7809 5.28598 93.5625C 5.60561 95.2786 5.92465 96.9655 6.24485 98.6525C 6.73882 101.474 7.65654 105.317 8.03369 108.08C 13.3493 82.515 14.2159 49.1463 10.0044 9.21387L 0 0Z"/>
<path id="path95_fill" fill-rule="evenodd" d="M 24.3184 39.2154L 24.2888 38.5732C 24.2603 38.4856 24.2603 38.3689 24.2603 38.2813C 22.546 24.7135 17.8973 11.963 10.2851 0C 16.7643 19.4325 21.7903 44.8466 25.3642 76.2123C 25.3938 76.475 25.3938 76.7669 25.4217 77.0291C 26.2937 95.0903 24.405 110.117 19.7563 122.109C 12.9294 118.229 6.82804 112.86 1.45327 105.973L 0.697569 108.22L 0 110.263L 15.486 126.631L 8.71613 140.403C 9.67529 140.957 10.6339 141.512 11.5924 142.037C 12.2319 142.358 12.8713 142.679 13.5102 143L 14.3816 141.599L 24.8125 124.618L 27.7179 121.963C 31.64 96.4622 30.5064 68.8887 24.3184 39.2154Z"/>
<path id="path96_fill" fill-rule="evenodd" d="M 0 8C 0.230315 7.62711 0.460055 7.25364 0.69037 6.88189C 1.66863 5.36164 2.61868 4.01463 3.53879 2.83858C 3.68274 1.86389 3.85605 0.917318 4 0C 2.24442 2.35095 0.920685 4.96006 0.0863682 7.79864C 0.0575788 7.85658 0.0287894 7.91395 0 8Z"/>
<path id="path97_fill" fill-rule="evenodd" d="M 81.8051 24.0065C 81.8337 23.9196 81.8629 23.8617 81.892 23.8037L 79.5002 27.1915C 78.217 17.2883 71.8303 10.8297 60.3103 7.84747C 49.7817 7.29704 39.4573 4.69029 29.3378 0C 28.0248 4.08249 25.8086 7.96335 22.6873 11.5835C 21.7548 17.2883 20.5114 22.9636 21.4438 29.6244C 15.6984 27.5102 13.4139 23.2823 12.1009 15.9267C 11.2548 15.0871 10.4385 14.3924 9.65128 13.842C 6.47222 11.5835 3.58492 11.6119 1.04774 13.9579C -1.31496 16.7373 0.318333 21.9502 5.94763 29.6244C 9.33034 33.0702 13.1221 34.4028 17.3509 33.5621C 20.8503 46.5651 27.8503 54.6154 38.3784 57.7436C 57.6855 59.655 71.4801 50.8799 79.7633 31.4194C 91.3125 32.3465 97.0573 26.0912 96.9996 12.6832C 94.9584 11.7278 92.7416 12.1333 90.3205 13.8414C 88.7456 14.9423 87.1123 16.593 85.3914 18.7936C 84.459 19.9814 83.4962 21.3424 82.5047 22.8767C 82.2713 23.2527 82.0379 23.6299 81.8051 24.0065Z"/>
<path id="path98_fill" fill-rule="evenodd" d="M 67.5887 63.2754L 70.6055 58.8482C 71.4534 55.9755 72.181 53.1313 73.9652 50.7521C 78.7905 17.0629 66.7408 0.14608 37.8162 0.000936234C 10.5581 -0.143627 -1.54951 16.4533 1.49158 49.7947C 4.0072 52.812 5.52804 55.8298 6.08394 58.8482C 4.59236 56.4394 3.1593 54.408 1.78416 52.7545C 1.17033 52.0288 0.585163 51.3611 0 50.7521C 1.31662 58.1225 4.8551 63.8013 10.6172 65.9204C 9.68094 59.2461 9.68094 52.2608 10.6172 46.5444C 13.7461 42.917 16.781 39.8911 18.0977 35.7998C 28.2461 40.5002 37.5493 42.738 48.1074 43.2896C 59.6603 46.2784 66.3019 52.5069 67.5887 62.4307L 67.5887 63.2754Z"/>
<path id="path99_fill" fill-rule="evenodd" d="M 57.9639 0C 58.0226 13.5393 52.2576 19.6327 40.6338 18.6971C 32.2977 38.3491 19.432 47.0051 0 45.0749C 0.264285 45.1626 0.557935 45.2211 0.82222 45.3089C 4.10934 46.2152 7.72064 46.6248 11.6832 46.5663C 28.884 46.7711 39.8324 38.1443 44.5285 20.6561C 47.8168 21.2991 50.8696 20.6561 53.6581 18.6971C 54.4503 18.1413 55.2432 17.469 56.0061 16.6791C 61.7005 8.92996 60.8647 4.4375 59.9751 1.99609C 59.9751 1.99609 58.6387 0.292553 57.9639 0Z"/>
<path id="path100_fill" fill-rule="evenodd" d="M 5 9C 4.39539 5.99942 2.73891 2.99942 0 0C 0.0962029 0.951712 0.191769 1.93228 0.318552 2.94229C 1.81575 4.58599 3.37602 6.606 5 9Z"/>
<path id="path101_fill" fill-rule="evenodd" d="M 5.49969 3C 6.15526 2.91587 6.81083 2.66293 7.46584 2.24285C 8.06383 1.76669 8.80492 1.56983 9.74495 1.71004C 10.6285 1.73864 11.0276 1.34605 10.9985 0.476725C 10.2295 0.925967 9.20396 1.06618 7.97889 0.925967C 6.09826 1.45822 4.27519 1.40213 2.50799 0.785754C 1.51152 0.869321 0.684931 0.589456 0.00142491 0L 0.00142491 0.476725C -0.0270783 1.34605 0.371396 1.73864 1.25499 1.71004C 2.19503 1.56983 2.93554 1.76669 3.53411 2.24285C 4.18911 2.69153 4.84525 2.94335 5.49969 3Z"/>
<path id="path102_fill" fill-rule="evenodd" d="M 7.95302 4.79998C 7.30248 5.21823 6.65137 5.46951 6.00026 5.55383C 5.34972 5.49743 4.69861 5.24671 4.04751 4.79998C 3.45358 4.32533 2.71811 4.12989 1.78391 4.26949C 0.9069 4.29741 0.510574 3.90653 0.538883 3.04099L 0.538883 2.56691L 0.538883 1.70193C 0.62381 0.41815 1.38759 0.166866 2.88797 0.920717C 1.07619 -0.502666 0.114247 -0.279861 0.0298863 1.61817L 0.00101104 3.29284C -0.027298 4.5487 0.538883 5.02279 1.69899 4.66038C 2.66093 4.52078 3.48246 4.79998 4.16131 5.44159C 4.72749 5.77664 5.2931 5.97208 5.88759 6L 6.05688 6L 6.1135 6C 6.70799 5.97208 7.27417 5.77664 7.83978 5.44159C 8.5192 4.79998 9.3396 4.52078 10.3015 4.66038C 11.4616 5.02279 12.0278 4.5487 11.9989 3.29284L 11.9718 1.61817C 11.8863 -0.279861 10.9243 -0.502666 9.11313 0.920717C 10.6129 0.166866 11.3767 0.41815 11.4616 1.70193L 11.4616 3.04099C 11.49 3.90653 11.0942 4.29741 10.2166 4.26949C 9.28298 4.12989 8.54694 4.32533 7.95302 4.79998Z"/>
<path id="path103_fill" fill-rule="evenodd" d="M 5 1C 3.43072 -0.313601 1.78161 -0.342805 0 0.970212C 1.755 0.211489 3.43072 0.211489 5 1Z"/>
<path id="path104_fill" fill-rule="evenodd" d="M 10.4086 0.12756C 10.0311 -0.0208087 9.47784 -0.0510759 8.80945 0.0972925L 8.83854 0.0972925C 5.66937 1.1056 2.73347 4.07238 0 9.02551C 1.01742 8.87714 1.74397 9.1442 2.12267 9.79702C 2.47111 10.3602 2.55895 11.2504 2.41353 12.4665C 2.38386 12.6445 2.35535 12.8226 2.32569 13C 2.47111 12.8226 2.61654 12.6445 2.76197 12.4665C 3.80847 10.9537 3.86723 9.58931 2.9074 8.34361L 5.78571 5.05102C 7.93747 2.9151 9.18699 3.21184 9.50751 5.91155C 10.5831 3.68662 11.077 2.05516 10.9903 1.07652C 10.9321 0.632012 10.7285 0.305008 10.4086 0.12756Z"/>
<path id="path105_fill" fill-rule="evenodd" d="M 9.40256 0.538163C 10.0677 0.389654 10.6182 0.41995 10.9939 0.568458C 11.3122 0.746075 11.5149 1.07279 11.5727 1.51772C 11.659 2.49788 11.1675 4.13088 10.0972 6.35732C 10.0393 6.47612 9.98143 6.59493 9.92297 6.71374C 9.8946 6.74285 9.8946 6.80284 9.92297 6.89135C 9.95249 6.92165 9.98143 6.98105 10.0104 7.01076C 10.0972 7.03986 10.1551 7.03986 10.2124 7.01076C 10.2703 6.98105 10.2998 6.95135 10.3288 6.92165C 11.5727 4.39819 12.1221 2.55669 11.9774 1.45832C 11.9201 0.83518 11.659 0.389654 11.1675 0.181743C 10.734 -0.0255753 10.0972 -0.055871 9.31573 0.0926374L 9.28679 0.122933C 5.96003 1.1619 2.86424 4.3382 0.0289434 9.65302C 0 9.71183 0 9.77182 0 9.83123C 0.0289434 9.86034 0.0868303 9.92033 0.115195 9.95003C 0.173661 9.97914 0.231547 9.97914 0.289434 9.97914C 1.30188 9.71183 1.967 9.89063 2.34384 10.4544C 2.66106 10.9896 2.74847 11.8201 2.60375 12.919C 2.57481 13.1857 2.51634 13.4531 2.45903 13.7204C 2.43009 13.7798 2.43009 13.8392 2.45903 13.8986C 2.51634 13.9283 2.57481 13.9586 2.63269 13.9877C 2.69058 14.0174 2.74847 13.9877 2.77741 13.9586C 2.8353 13.9283 2.86424 13.8689 2.89319 13.8101C 2.92213 13.6616 2.95049 13.5428 2.95049 13.4531C 2.98002 13.2748 3.00838 13.0972 3.0379 12.919C 3.18262 11.7018 3.09521 10.8108 2.74847 10.2471C 2.37162 9.59361 1.64862 9.3263 0.636177 9.47481C 3.35628 4.51641 6.27783 1.54743 9.43151 0.538163L 9.40256 0.538163Z"/>
<path id="path106_fill" fill-rule="evenodd" d="M 0.427821 1.51792C 0.485708 1.07299 0.688313 0.74567 1.00611 0.568052C 1.38238 0.419541 1.9323 0.389839 2.59742 0.53835L 2.56848 0.53835C 5.72158 1.54763 8.64429 4.51664 11.3638 9.4751C 10.3514 9.32659 9.62779 9.59391 9.25153 10.2468C 8.87584 10.8699 8.78901 11.9392 9.04892 13.4534C 9.04892 13.5425 9.07845 13.6613 9.10681 13.8098C 9.13633 13.8692 9.16528 13.9286 9.22316 13.9577C 9.25153 13.9874 9.30999 14.0177 9.3673 13.9874C 9.42577 13.9577 9.48308 13.9286 9.54096 13.8989C 9.57048 13.8389 9.57048 13.7801 9.54096 13.7207C 9.22316 12.2065 9.28105 11.1081 9.65674 10.4547C 10.033 9.89093 10.6987 9.71212 11.7111 9.97944C 11.769 9.97944 11.8269 9.97944 11.8848 9.94974C 11.9137 9.92063 11.9716 9.86063 12 9.83153C 12 9.77212 12 9.71212 11.9716 9.65272C 9.13633 4.33843 6.04054 1.1615 2.7132 0.122521L 2.68425 0.0928189C 1.90336 -0.0556913 1.2666 -0.0259893 0.83303 0.181925C 0.340991 0.389839 0.0799208 0.83537 0.0226127 1.45792C -0.122105 2.5569 0.427821 4.39843 1.67181 6.92191C 1.70076 6.95162 1.7297 6.98072 1.78759 7.01043C 1.84489 7.04013 1.90336 7.04013 1.98961 7.01043C 2.01913 6.98072 2.04808 6.92191 2.07702 6.89162C 2.10539 6.80311 2.10539 6.74311 2.07702 6.714C 2.01913 6.59519 1.96125 6.47638 1.90336 6.35757C 0.83303 4.13052 0.340991 2.4975 0.427821 1.51792Z"/>
<path id="path107_fill" fill-rule="evenodd" d="M 0.590836 0.127613C 0.271475 0.305061 0.0678761 0.632063 0.00970488 1.07657C -0.0769703 2.05521 0.416904 3.68666 1.49249 5.91099C 1.81243 3.21188 3.06195 2.91515 5.21371 5.05105L 8.0926 8.34363C 7.01643 9.73769 7.22003 11.2801 8.67373 13C 8.41196 11.4878 8.49922 10.4196 8.87675 9.79704C 9.25544 9.14422 9.98258 8.87716 11 9.02552C 8.26653 4.07241 5.33005 1.10565 2.16088 0.0973461L 2.18996 0.0973461C 1.52158 -0.0510217 0.968949 -0.0207547 0.590836 0.12702L 0.590836 0.127613Z"/>
<path id="path108_fill" fill-rule="evenodd" d="M 0.207273 6.51766C -0.284385 6.93744 -0.244997 2.84041 4.30298 0.825763C 8.85095 -1.18889 15.6676 0.20635 16.8624 8.10242C 17.0835 8.84433 17.2802 9.63535 17.4524 10.4766C 17.3296 10.0557 17.2063 9.63535 17.0585 9.24013C 16.9113 8.79521 16.7391 8.37485 16.5668 7.97905C 14.033 1.47778 9.54354 1.23208 4.30298 2.59139C 2.36022 3.33273 0.207273 6.51766 0.207273 6.51766Z"/>
<path id="path109_fill" fill-rule="evenodd" d="M 0.191729 4.50887C 0.6253 3.2034 2.10611 1.38712 4.11963 0.604084C 9.55105 -0.83169 13.7772 -0.0602331 16.4033 6.80675C 11.1251 0.462195 6.13233 1.2452 2.53711 4.50887C 0.267929 7.09447 2.56282 7.56385 9.06521 11.7149C 6.05613 10.4095 3.68504 8.76495 1.95076 6.80675C 0.24239 4.58673 -0.343756 2.70755 0.191729 1.21869"/>
<path id="path110_fill" fill-rule="evenodd" d="M 6.57779 9.38025C 0.354641 8.33484 -0.69321 5.02093 0.354642 2.26941C 4.02887 -0.978751 9.09322 -1.29348 14.489 5.02093C 14.6708 5.43701 13.1007 9.38025 6.57779 9.38025Z"/>
<path id="path111_fill" fill-rule="evenodd" d="M 6.82581 1.17411C 7.6149 1.96315 8 2.89908 8 4.00026C 8 5.1004 7.6149 6.03685 6.82581 6.82589C 6.03673 7.6144 5.10126 8 4 8C 2.89927 8 1.9638 7.6144 1.17471 6.82589C 0.385624 6.03685 0 5.1004 0 4.00026C 0 2.89908 0.385624 1.96315 1.17471 1.17411C 1.9638 0.385074 2.89927 0 4 0C 5.10126 0 6.03673 0.385074 6.82581 1.17411Z"/>
<path id="path112_fill" fill-rule="evenodd" d="M 0.734059 4.246C 0.238257 3.74957 0 3.17429 0 2.49972C 0 1.80529 0.238257 1.20958 0.734059 0.713718C 1.23043 0.238284 1.80565 0 2.5 0C 3.1745 0 3.77014 0.238284 4.26594 0.713718C 4.76174 1.20958 5 1.80529 5 2.49972C 5 3.17429 4.76174 3.74957 4.26594 4.246C 3.77014 4.74186 3.1745 5 2.5 5C 1.80565 5 1.23043 4.74186 0.734059 4.246Z"/>
<path id="path113_fill" fill-rule="evenodd" d="M 0.289681 1.70996C 0.101119 1.52186 0 1.27533 0 0.999793C 0 0.724674 0.101119 0.478144 0.289681 0.290035C 0.478243 0.101512 0.724409 0 1 0C 1.27559 0 1.52176 0.101512 1.71032 0.290035C 1.89847 0.478144 2 0.724674 2 0.999793C 2 1.27533 1.89847 1.52186 1.71032 1.70996C 1.52176 1.89849 1.27559 2 1 2C 0.724409 2 0.478243 1.89849 0.289681 1.70996Z"/>
<path id="path114_fill" fill-rule="evenodd" d="M 4.69256 1.55548C 3.06971 1.64566 1.50533 1.34366 0 0.647657C 0.944299 2.614 2.39057 3.94487 4.33822 4.58035C 12.1011 0.55748 18.9787 1.37331 25 7C 20.7202 0.133224 13.9607 -1.68121 4.69256 1.55548Z"/>
<path id="path115_fill" fill-rule="evenodd" d="M 20.3074 1.55548C 21.9303 1.64566 23.4953 1.34366 25 0.647657C 24.0563 2.614 22.61 3.94487 20.6618 4.58035C 12.8989 0.55748 6.02131 1.37331 0 7C 4.27976 0.133224 11.0393 -1.68121 20.3074 1.55548Z"/>
<path id="path116_fill" fill-rule="evenodd" d="M 21.6987 0.875292C 21.5829 0.904468 21.4672 0.933645 21.3225 0.962821C 20.8015 1.1087 20.2811 1.19623 19.7595 1.28318C 19.4701 1.34211 19.1812 1.39988 18.8918 1.42906C 17.0111 1.69165 15.1888 1.83753 13.366 1.86671C 9.98135 1.89588 6.68298 1.48741 3.4425 0.641881C 3.06624 0.525175 2.66104 0.408469 2.28535 0.291764C 1.93804 0.204818 1.5913 0.0875292 1.24398 0L 0 1.05035L 1.88073 1.02117C 3.35625 4.95824 6.65404 6.94165 11.8326 7C 15.5934 6.82436 18.2846 5.97883 19.9042 4.46224C 20.7146 3.70423 21.2646 2.80035 21.554 1.72082C 21.5829 1.75 21.6402 1.75 21.6987 1.72082L 23 2.30435L 22.4507 0.72941C 22.3633 0.72941 22.3059 0.758586 22.2185 0.787763C 22.0165 0.816939 21.8428 0.846115 21.6987 0.875292Z"/>
<path id="path117_fill" fill-rule="evenodd" d="M 8 2C 7.61668 1.54025 7.20266 1.18604 6.78981 0.902683C 5.10771 -0.300894 3.33643 -0.300894 1.41691 0.902683C 0.944998 1.18604 0.47309 1.54025 0 2C 2.68675 0.973523 5.3735 0.973523 8 2Z"/>
<path id="path118_fill" fill-rule="evenodd" d="M 15.9409 0.562734C 15.9705 0.562734 16 0.562734 16 0.530846L 15.9705 0.500208C 15.6456 0.562734 15.3503 0.62526 15.0556 0.656524C 13.1661 0.937891 11.276 1.09421 9.41666 1.12484C 6.25789 1.15611 3.09971 0.781576 0 0C 0.147661 0.343893 0.324855 0.656524 0.560523 0.937891C 4.78187 1.65632 9.06228 1.90579 13.3427 1.68758C 13.5199 1.96895 12.9594 2.40663 11.6901 3C 13.9044 2.62547 15.3208 1.81263 15.9409 0.562734Z"/>
<path id="path119_fill" fill-rule="evenodd" d="M 11.6738 2.14206C 12.9615 1.62327 14.2684 1.02291 14.0886 0.776367C 9.74632 0.967698 4.28298 0.628659 0 0C 1.28825 1.33877 3.60243 2.36072 7.58522 2.33339C 8.87287 2.36072 9.98137 2.27872 10.9694 2.14206"/>
<path id="path120_fill" fill-rule="evenodd" d="M 34.9213 13.1669L 38.3463 12.3515C 31.5835 11.1864 24.791 8.53508 17.9689 4.42782L 23.8321 4.48552C 19.7392 2.44675 15.5591 0.961683 11.2635 0L 0 2.12678C 8.38911 1.98107 17.7656 6.3506 28.1869 15.2354C 34.3702 21.0906 37.7661 27.2657 38.3179 33.7329C 38.405 37.6653 37.9984 41.3354 37.0692 44.6856C 36.576 42.3263 35.8216 39.8498 34.8633 37.2865C 34.7471 39.8795 34.5444 42.3554 34.225 44.6565C 33.2666 51.2402 31.4673 56.5417 28.8258 60.5907C 29.7255 63.1254 30.1611 65.9219 30.0734 68.9515C 30.0449 69.3006 30.0449 69.6503 30.0159 70C 31.0027 68.4561 31.9604 67.0876 32.8891 65.8927C 34.6019 63.6785 36.2276 62.018 37.7952 60.9112C 39.4789 59.717 41.0755 59.1633 42.5566 59.2507C 43.9203 52.755 46.0681 46.113 49 39.3258L 44.2397 42.5011C 42.2946 35.8008 42.2662 28.2851 44.2101 19.9832L 39.1014 22.0219C 41.7429 20.2449 43.5724 18.0318 44.6167 15.4102C 41.2788 15.5845 38.0281 14.8274 34.9213 13.1669Z"/>
<path id="path121_fill" fill-rule="evenodd" d="M 54.2806 0C 36.4103 3.60509 24.8084 11.0474 19.4148 22.2702C 18.1036 18.9881 17.7239 15.8526 18.3072 12.8638C 15.2753 18.8714 14.8087 25.3464 16.9371 32.2335C 10.2609 33.2877 4.60611 37.859 0 45.9169C 2.2736 43.7781 4.66444 42.4889 7.17135 42.0498C 4.54778 48.965 4.11033 55.6757 5.8304 62.2099L 8.80334 50.3416L 8.89084 60.92C 9.41578 62.9427 10.1151 64.8763 11.0192 66.7225C 13.322 71.4984 16.8788 75.572 21.6599 79C 20.2017 76.3629 20.1148 73.8424 19.4148 70.9414C 17.5781 63.264 18.2489 54.1812 21.6599 44.6283L 25.8433 50.3416C 26.3974 46.3273 26.4551 41.5508 25.8433 36.13C 25.6391 34.547 25.4337 33.9332 25.1421 32.2335L 27.723 36.13C 29.0645 39.5 31.7572 42.401 33.5059 44.6283L 30.8765 34.8604L 34.4866 40.6134C 39.5004 44.6869 44.5148 47.9977 49.5001 50.5474C 44.3399 46.1227 41.4836 40.6726 40.9295 34.1378C 53.3188 40.6726 65.0086 47.0613 77.1646 52.0137C 81.8004 56.3803 84.4575 60.1389 84.8652 64.1245C 85.7116 65.4431 86.9019 66.6059 87.456 68.0704C 90.1087 63.9969 93.0201 59.9967 93.9819 53.374C 94.3027 51.0588 93.8647 47.2361 93.9819 44.6283C 94.9437 47.2068 95.7411 51.0013 96.2363 53.374C 97.1696 50.004 97.7979 45.2097 97.7104 41.2534C 97.1569 34.7486 93.6655 28.16 87.456 22.2702C 76.9903 13.3328 67.3336 8.78507 58.9082 8.93164L 69.819 7.12106C 61.9483 5.42082 53.6104 5.50935 44.8065 7.35499C 47.0515 4.3954 50.2286 1.96407 54.2806 0Z"/>
<path id="path122_fill" fill-rule="evenodd" d="M 44 30C 43.5962 25.9839 41.0845 21.7621 36.4939 17.362C 24.4542 12.3716 12.2701 6.58488 0 0C 0.54878 6.58488 3.37817 12.0768 8.48818 16.5354C 12.8767 18.8679 17.2946 20.5805 21.7115 21.6729C 16.5726 17.5687 12.2129 13.4646 8.63259 9.35979L 28.5833 18.6321C 35.7718 21.4372 40.9107 25.2164 44 30Z"/>
<path id="path123_fill" fill-rule="evenodd" d="M 10.2365 5.67574L 6.1402 0C 6.43084 1.67984 6.66335 3.30115 6.8668 4.86567C 7.47656 10.2233 7.5062 14.8566 6.95399 18.8241L 3.29368 14.2777C -0.105628 23.7193 -0.861289 32.2332 0.969154 39.8212C 1.66611 42.6883 2.74089 45.4396 4.1935 48.0459C 5.64611 49.089 7.21556 50.0735 8.90011 51C 7.09873 42.0509 7.04118 32.9865 8.69666 23.8057L 10.469 31.9145C 12.5901 23.8057 12.5023 15.0594 10.2365 5.67574Z"/>
<path id="path124_fill" fill-rule="evenodd" d="M 9 16L 3.63428 6.54966L 0 0L 1.52886 10.3699C 3.69257 13.185 6.202 15.0523 9 16Z"/>
<path id="path125_fill" fill-rule="evenodd" d="M 0 11.6079C 0.485899 13.4999 1.1713 15.3631 2.05736 17.2264C 2.17111 17.4839 2.28544 17.7419 2.42835 18L 3 10.3468L 2.91425 0L 0 11.6079Z"/>
</defs>
</svg>
