<svg width="1244" height="340" viewBox="0 0 1244 340" version="1.1" xmlns="http://www.w3.org/2000/svg" xmlns:xlink="http://www.w3.org/1999/xlink">
<title>header</title>
<desc>Created using Figma</desc>
<g id="Canvas" transform="translate(157 1478)">
<g id="header">
<g id="Page 1">
<g id="Fill 1">
<use xlink:href="#path0_fill" transform="translate(782.248 -1252.13)" fill="#FFD800"/>
</g>
<g id="Fill 2">
<use xlink:href="#path1_fill" transform="translate(779 -1255)" fill="#393B53"/>
</g>
<g id="Group 16">
<g id="Fill 3">
<use xlink:href="#path2_fill" transform="translate(765.868 -1252.13)" fill="#FFD800"/>
</g>
<g id="Group 7">
<g id="Fill 5">
<use xlink:href="#path3_fill" transform="translate(763 -1255)" fill="#393B53"/>
</g>
</g>
<g id="Fill 8">
<use xlink:href="#path4_fill" transform="translate(786.986 -1252.12)" fill="#FFFFFF"/>
</g>
<g id="Fill 10">
<use xlink:href="#path5_fill" transform="translate(784 -1255)" fill="#393B53"/>
</g>
<g id="Fill 12">
<use xlink:href="#path6_fill" transform="translate(849.438 -1252.1)" fill="#FFFFFF"/>
</g>
<g id="Fill 14">
<use xlink:href="#path7_fill" transform="translate(847 -1255)" fill="#393B53"/>
</g>
</g>
</g>
<g id="Page 1">
<use xlink:href="#path8_fill" transform="translate(-23 -1478)" fill="#FFFFFF"/>
</g>
<g id="Rectangle 8">
<use xlink:href="#path9_fill" transform="translate(84 -1228)" fill="#FFFFFF"/>
<mask id="mask0_outline_ins">
<use xlink:href="#path9_fill" fill="white" transform="translate(84 -1228)"/>
</mask>
<g mask="url(#mask0_outline_ins)">
<use xlink:href="#path10_stroke_2x" transform="translate(84 -1228)" fill="#393B53"/>
</g>
</g>
<g id="Rectangle 14">
<use xlink:href="#path11_fill" transform="translate(166 -1209)" fill="#CBC7FA"/>
<mask id="mask1_outline_ins">
<use xlink:href="#path11_fill" fill="white" transform="translate(166 -1209)"/>
</mask>
<g mask="url(#mask1_outline_ins)">
<use xlink:href="#path12_stroke_2x" transform="translate(166 -1209)" fill="#393B53"/>
</g>
</g>
<g id="Rectangle 15">
<use xlink:href="#path13_fill" transform="translate(184 -1193)" fill="#AAA3F7"/>
<mask id="mask2_outline_ins">
<use xlink:href="#path13_fill" fill="white" transform="translate(184 -1193)"/>
</mask>
<g mask="url(#mask2_outline_ins)">
<use xlink:href="#path14_stroke_2x" transform="translate(184 -1193)" fill="#393B53"/>
</g>
</g>
<g id="Oval 4">
<use xlink:href="#path15_fill" transform="translate(194 -1183)" fill="#7068F3"/>
</g>
<g id="Oval 4 Copy">
<use xlink:href="#path15_fill" transform="translate(194 -1169)" fill="#7068F3"/>
</g>
<g id="Oval 4 Copy 2">
<use xlink:href="#path15_fill" transform="translate(194 -1155)" fill="#7068F3"/>
</g>
<g id="Rectangle 14 Copy">
<use xlink:href="#path11_fill" transform="translate(734 -1209)" fill="#CBC7FA"/>
<mask id="mask3_outline_ins">
<use xlink:href="#path11_fill" fill="white" transform="translate(734 -1209)"/>
</mask>
<g mask="url(#mask3_outline_ins)">
<use xlink:href="#path12_stroke_2x" transform="translate(734 -1209)" fill="#393B53"/>
</g>
</g>
<g id="Rectangle 15 Copy">
<use xlink:href="#path13_fill" transform="translate(752 -1193)" fill="#AAA3F7"/>
<mask id="mask4_outline_ins">
<use xlink:href="#path13_fill" fill="white" transform="translate(752 -1193)"/>
</mask>
<g mask="url(#mask4_outline_ins)">
<use xlink:href="#path14_stroke_2x" transform="translate(752 -1193)" fill="#393B53"/>
</g>
</g>
<g id="Oval 4 Copy 5">
<use xlink:href="#path15_fill" transform="translate(762 -1183)" fill="#7068F3"/>
</g>
<g id="Oval 4 Copy 4">
<use xlink:href="#path15_fill" transform="translate(762 -1169)" fill="#7068F3"/>
</g>
<g id="Oval 4 Copy 3">
<use xlink:href="#path15_fill" transform="translate(762 -1155)" fill="#7068F3"/>
</g>
<g id="Page 1">
<g id="Fill 1">
<use xlink:href="#path16_fill" transform="translate(153.87 -1370.25)" fill="#FFFFFF"/>
</g>
<g id="Fill 3">
<use xlink:href="#path17_fill" transform="translate(151.08 -1373.04)" fill="#00476C"/>
</g>
<g id="Fill 5">
<use xlink:href="#path16_fill" transform="translate(153.87 -1370.25)" fill="#FFFFFF"/>
</g>
<g id="Group 9">
<mask id="mask5_outline" mask-type="alpha">
<g id="Clip 8">
<use xlink:href="#path18_fill" transform="translate(151 -1373.12)" fill="#FFFFFF"/>
</g>
</mask>
<g id="Fill 7" mask="url(#mask5_outline)">
<use xlink:href="#path19_fill" transform="translate(151 -1373.12)" fill="#393B53"/>
</g>
</g>
<g id="Fill 10">
<use xlink:href="#path20_fill" transform="translate(163.657 -1360.46)" fill="#393B53"/>
</g>
<g id="Group 14">
<g id="Fill 12">
<use xlink:href="#path21_fill" transform="translate(175.16 -1384.64)" fill="#393B53"/>
</g>
</g>
<g id="Fill 15">
<use xlink:href="#path22_fill" transform="translate(195 -1393)" fill="#393B53"/>
</g>
<g id="Fill 17">
<use xlink:href="#path23_fill" transform="translate(195 -1277)" fill="#393B53"/>
</g>
<g id="Fill 18">
<use xlink:href="#path24_fill" transform="translate(165.63 -1239.34)" fill="#FFFFFF"/>
</g>
<g id="Fill 19">
<use xlink:href="#path25_fill" transform="translate(162.842 -1242.13)" fill="#393B53"/>
</g>
</g>
<g id="Page 1">
<g id="Fill 1">
<use xlink:href="#path26_fill" transform="translate(262.005 -1258.57)" fill="#FF7900"/>
</g>
<g id="Fill 3">
<use xlink:href="#path27_fill" transform="translate(259.132 -1261.41)" fill="#393B53"/>
</g>
<g id="Fill 5">
<use xlink:href="#path28_fill" transform="translate(260.79 -1280.21)" fill="#38D231"/>
</g>
<g id="Group 9">
<mask id="mask6_outline" mask-type="alpha">
<g id="Clip 8">
<use xlink:href="#path29_fill" transform="translate(258 -1283)" fill="#FFFFFF"/>
</g>
</mask>
<g id="Fill 7" mask="url(#mask6_outline)">
<use xlink:href="#path30_fill" transform="translate(258 -1283)" fill="#393B53"/>
</g>
</g>
</g>
<g id="Page 1">
<g id="Fill 1">
<use xlink:href="#path31_fill" transform="translate(659.903 -1423.23)" fill="#FFD800"/>
</g>
<g id="Fill 2">
<use xlink:href="#path32_fill" transform="translate(656.506 -1426.58)" fill="#393B53"/>
</g>
<g id="Fill 3">
<use xlink:href="#path33_fill" transform="translate(657.38 -1430.62)" fill="#FFFFFF"/>
</g>
<g id="Fill 4">
<use xlink:href="#path34_fill" transform="translate(654 -1434)" fill="#393B53"/>
</g>
<g id="Group 35">
<g id="Fill 5">
<use xlink:href="#path35_fill" transform="translate(677.654 -1415.13)" fill="#393B53"/>
</g>
<g id="Fill 7">
<use xlink:href="#path36_fill" transform="translate(709.258 -1397.83)" fill="#393B53"/>
</g>
<g id="Fill 9">
<use xlink:href="#path37_fill" transform="translate(704.085 -1372.42)" fill="#393B53"/>
</g>
<g id="Fill 11">
<use xlink:href="#path38_fill" transform="translate(711.57 -1376.75)" fill="#393B53"/>
</g>
<g id="Fill 13">
<use xlink:href="#path39_fill" transform="translate(690.815 -1389.73)" fill="#393B53"/>
</g>
<g id="Fill 15">
<use xlink:href="#path40_fill" transform="translate(715.216 -1392.48)" fill="#393B53"/>
</g>
<g id="Fill 17">
<use xlink:href="#path41_fill" transform="translate(685.84 -1416.66)" fill="#393B53"/>
</g>
<g id="Fill 19">
<use xlink:href="#path42_fill" transform="translate(728.341 -1386.22)" fill="#393B53"/>
</g>
<g id="Fill 21">
<use xlink:href="#path43_fill" transform="translate(678.84 -1366.88)" fill="#393B53"/>
</g>
<g id="Fill 23">
<use xlink:href="#path44_fill" transform="translate(720.46 -1337.32)" fill="#393B53"/>
</g>
<g id="Fill 25">
<use xlink:href="#path45_fill" transform="translate(695.2 -1346.75)" fill="#393B53"/>
</g>
<g id="Fill 27">
<use xlink:href="#path46_fill" transform="translate(670.36 -1347.44)" fill="#393B53"/>
</g>
<g id="Fill 29">
<use xlink:href="#path47_fill" transform="translate(683.635 -1343.24)" fill="#393B53"/>
</g>
<g id="Fill 31">
<use xlink:href="#path48_fill" transform="translate(710.138 -1337.69)" fill="#393B53"/>
</g>
<g id="Fill 33">
<use xlink:href="#path49_fill" transform="translate(709.381 -1333.89)" fill="#393B53"/>
</g>
</g>
</g>
<g id="Rectangle 9">
<use xlink:href="#path50_fill" transform="translate(368 -1187)" fill="#FFFFFF" fill-opacity="0.577927"/>
<mask id="mask7_outline_ins">
<use xlink:href="#path50_fill" fill="white" transform="translate(368 -1187)"/>
</mask>
<g mask="url(#mask7_outline_ins)">
<use xlink:href="#path51_stroke_2x" transform="translate(368 -1187)" fill="#393B53"/>
</g>
</g>
<g id="Rectangle 10">
<use xlink:href="#path52_fill" transform="translate(450 -1161)" fill="#393B53"/>
</g>
<g id="Page 1">
<g id="Fill 1">
<use xlink:href="#path53_fill" transform="translate(910.412 -1203.13)" fill="#EB665F"/>
</g>
<g id="Group 5">
<g id="Fill 3">
<use xlink:href="#path54_fill" transform="translate(905 -1206)" fill="#393B53"/>
</g>
</g>
<g id="Fill 6">
<use xlink:href="#path55_fill" transform="translate(921.926 -1187.97)" fill="#FFFFFF"/>
</g>
<g id="Fill 8">
<use xlink:href="#path56_fill" transform="translate(920 -1189)" fill="#393B53"/>
</g>
<g id="Fill 10">
<use xlink:href="#path57_fill" transform="translate(1026.61 -1187.27)" fill="#38D231"/>
</g>
<g id="Fill 12">
<use xlink:href="#path58_fill" transform="translate(1025 -1189)" fill="#393B53"/>
</g>
</g>
<g id="Group 3">
<g id="Rectangle 5">
<use xlink:href="#path59_fill" transform="translate(-157 -1213)" fill="#FFFFFF" fill-opacity="0.392918"/>
<mask id="mask8_outline_ins">
<use xlink:href="#path59_fill" fill="white" transform="translate(-157 -1213)"/>
</mask>
<g mask="url(#mask8_outline_ins)">
<use xlink:href="#path60_stroke_2x" transform="translate(-157 -1213)" fill="#393B53"/>
</g>
</g>
<g id="Rectangle 6">
<use xlink:href="#path61_fill" transform="translate(-120 -1230)" fill="#FAFAFF"/>
<mask id="mask9_outline_ins">
<use xlink:href="#path61_fill" fill="white" transform="translate(-120 -1230)"/>
</mask>
<g mask="url(#mask9_outline_ins)">
<use xlink:href="#path62_stroke_2x" transform="translate(-120 -1230)" fill="#393B53"/>
</g>
</g>
<g id="Rectangle 7">
<use xlink:href="#path63_fill" transform="translate(-27 -1270)" fill="#FAFAFF"/>
<mask id="mask10_outline_out">
<rect id="mask10_outline_inv" fill="white" x="-5" y="-6" width="17" height="50" transform="translate(-27 -1270)"/>
<use xlink:href="#path63_fill" fill="black" transform="translate(-27 -1270)"/>
</mask>
<g mask="url(#mask10_outline_out)">
<use xlink:href="#path64_stroke_2x" transform="translate(-27 -1270)" fill="#393B53"/>
</g>
</g>
<g id="Oval">
<use xlink:href="#path65_fill" transform="translate(-96 -1222)" fill="#38D231"/>
</g>
<g id="Oval Copy">
<use xlink:href="#path65_fill" transform="translate(-81 -1222)" fill="#544E4E"/>
</g>
<g id="Oval Copy 2">
<use xlink:href="#path65_fill" transform="translate(-66 -1222)" fill="#544E4E"/>
</g>
<g id="Oval Copy 5">
<use xlink:href="#path65_fill" transform="translate(-51 -1222)" fill="#544E4E"/>
</g>
<g id="Oval Copy 4">
<use xlink:href="#path65_fill" transform="translate(-36 -1222)" fill="#544E4E"/>
</g>
<g id="Oval Copy 3">
<use xlink:href="#path65_fill" transform="translate(-21 -1222)" fill="#544E4E"/>
</g>
<g id="Rectangle 5 Copy">
<use xlink:href="#path66_fill" transform="translate(-142 -1198)" fill="#FFFFFF" fill-opacity="0.392918"/>
<mask id="mask11_outline_ins">
<use xlink:href="#path66_fill" fill="white" transform="translate(-142 -1198)"/>
</mask>
<g mask="url(#mask11_outline_ins)">
<use xlink:href="#path67_stroke_2x" transform="translate(-142 -1198)" fill="#393B53"/>
</g>
</g>
<g id="Rectangle 5 Copy 2">
<use xlink:href="#path68_fill" transform="translate(-104 -1187)" fill="#FFFFFF"/>
<mask id="mask12_outline_ins">
<use xlink:href="#path68_fill" fill="white" transform="translate(-104 -1187)"/>
</mask>
<g mask="url(#mask12_outline_ins)">
<use xlink:href="#path69_stroke_2x" transform="translate(-104 -1187)" fill="#393B53"/>
</g>
</g>
</g>
<g id="Group 8">
<g id="Page 1">
<g id="Rectangle 16 Copy 2">
<use xlink:href="#path70_fill" transform="translate(427 -1459)" fill="#FFFFFF" fill-opacity="0.5"/>
<mask id="mask13_outline_ins">
<use xlink:href="#path70_fill" fill="white" transform="translate(427 -1459)"/>
</mask>
<g mask="url(#mask13_outline_ins)">
<use xlink:href="#path71_stroke_2x" transform="translate(427 -1459)" fill="#393B53"/>
</g>
</g>
<g id="Rectangle 16 Copy">
<use xlink:href="#path70_fill" transform="translate(411 -1443)" fill="#FFFFFF" fill-opacity="0.5"/>
<mask id="mask14_outline_ins">
<use xlink:href="#path70_fill" fill="white" transform="translate(411 -1443)"/>
</mask>
<g mask="url(#mask14_outline_ins)">
<use xlink:href="#path71_stroke_2x" transform="translate(411 -1443)" fill="#393B53"/>
</g>
</g>
<g id="Rectangle 16">
<use xlink:href="#path70_fill" transform="translate(395 -1427)" fill="#FFFFFF"/>
<mask id="mask15_outline_ins">
<use xlink:href="#path70_fill" fill="white" transform="translate(395 -1427)"/>
</mask>
<g mask="url(#mask15_outline_ins)">
<use xlink:href="#path71_stroke_2x" transform="translate(395 -1427)" fill="#393B53"/>
</g>
</g>
</g>
<g id="Rectangle 17" opacity="0.3">
<use xlink:href="#path72_fill" transform="translate(465 -1390)" fill="#393B53"/>
</g>
<g id="Rectangle 17 Copy" opacity="0.3">
<use xlink:href="#path73_fill" transform="translate(465 -1375)" fill="#393B53"/>
</g>
<g id="Rectangle 17 Copy 3" opacity="0.3">
<use xlink:href="#path72_fill" transform="translate(465 -1339)" fill="#393B53"/>
</g>
<g id="Rectangle 17 Copy 2" opacity="0.3">
<use xlink:href="#path73_fill" transform="translate(465 -1324)" fill="#393B53"/>
</g>
<g id="Rectangle 17 Copy 5" opacity="0.3">
<use xlink:href="#path72_fill" transform="translate(465 -1289)" fill="#393B53"/>
</g>
<g id="Rectangle 17 Copy 4" opacity="0.3">
<use xlink:href="#path74_fill" transform="translate(465 -1274)" fill="#393B53"/>
</g>
<g id="Group 13">
<g id="Oval 3">
<use xlink:href="#path75_fill" transform="translate(418 -1397)" fill="#38D231"/>
<use xlink:href="#path76_stroke" transform="translate(418 -1397)" fill="#393B53"/>
</g>
<g id="Line">
<use xlink:href="#path77_stroke" transform="translate(426 -1380)" fill="#FFFFFF"/>
</g>
<g id="Line Copy">
<use xlink:href="#path78_stroke" transform="translate(433 -1385)" fill="#FFFFFF"/>
</g>
</g>
<g id="Group 13 Copy">
<g id="Oval 3">
<use xlink:href="#path75_fill" transform="translate(418 -1347)" fill="#38D231"/>
<use xlink:href="#path76_stroke" transform="translate(418 -1347)" fill="#393B53"/>
</g>
<g id="Line">
<use xlink:href="#path77_stroke" transform="translate(426 -1330)" fill="#FFFFFF"/>
</g>
<g id="Line Copy">
<use xlink:href="#path78_stroke" transform="translate(433 -1335)" fill="#FFFFFF"/>
</g>
</g>
<g id="Group 13 Copy 2">
<g id="Oval 3">
<use xlink:href="#path75_fill" transform="translate(418 -1297)" fill="#38D231"/>
<use xlink:href="#path76_stroke" transform="translate(418 -1297)" fill="#393B53"/>
</g>
<g id="Line">
<use xlink:href="#path77_stroke" transform="translate(426 -1280)" fill="#FFFFFF"/>
</g>
<g id="Line Copy">
<use xlink:href="#path78_stroke" transform="translate(433 -1285)" fill="#FFFFFF"/>
</g>
</g>
<g id="Page 1">
<g id="Fill 1">
<use xlink:href="#path79_fill" transform="matrix(-1 0 0 1 526 -1276)" fill="#FFFFFF"/>
</g>
<g id="Fill 3">
<use xlink:href="#path80_fill" transform="matrix(-1 0 0 1 632 -1385)" fill="#393B53"/>
</g>
<g id="Fill 6">
<use xlink:href="#path81_fill" transform="matrix(-1 0 0 1 550.363 -1300.21)" fill="#9FB7F9"/>
</g>
<g id="Fill 8">
<use xlink:href="#path82_fill" transform="matrix(-1 0 0 1 623.394 -1373.67)" fill="#EB665F"/>
</g>
<g id="Fill 10">
<use xlink:href="#path83_fill" transform="matrix(-1 0 0 1 627.232 -1377.43)" fill="#9FB7F9"/>
</g>
</g>
</g>
</g>
</g>
<defs>
<path id="path0_fill" fill-rule="evenodd" d="M 67.677 0.029L 87.722 13.071L 67.666 25.093L 0 25.064L 0.012 0L 67.677 0.029Z"/>
<path id="path1_fill" fill-rule="evenodd" d="M 0 31L 71 31L 96 16L 71 0L 0 0L 0 31ZM 6 25L 6 6L 70 6L 85 16L 70 25L 6 25Z"/>
<path id="path2_fill" fill-rule="evenodd" d="M 20.602 0.00600121L 12.413 1.21499e-06C 5.561 -0.00299879 0.00400122 5.55 0.00100121 12.402L 1.21499e-06 12.652C -0.00299879 19.504 5.55 25.061 12.402 25.064L 20.591 25.07L 20.602 0.00600121Z"/>
<path id="path3_fill" fill-rule="evenodd" d="M 16 6C 10.32 6 6.00202 10.2032 6 15L 6 16C 5.99798 20.786 10.314 24.9941 16 25L 21 25L 21 6L 16 6ZM 26 31L 15 31C 6.75738 30.9869 -0.00394649 24.0889 0 16L 0 15C 0.00394995 6.89202 6.76725 0 15 0L 26 0L 26 31Z"/>
<path id="path4_fill" fill-rule="evenodd" d="M 0 25.064L 12.449 25.068L 12.46 0.004L 0.011 0L 0 25.064Z"/>
<path id="path5_fill" fill-rule="evenodd" d="M 6 26L 13 26L 13 6L 6 6L 6 26ZM 18 31L 0 31L 0 0L 18 0L 18 31Z"/>
<path id="path6_fill" fill-rule="evenodd" d="M 0 25.064L 0.476 25.064L 20.533 13.042L 0.487 0L 0.011 0L 0 25.064Z"/>
<path id="path7_fill" fill-rule="evenodd" d="M 6 8L 6 24L 19 16L 6 8ZM 4 31L 0 31L 0 0L 4 0L 29 16L 4 31Z"/>
<path id="path8_fill" fill-rule="evenodd" d="M 546.117 2.73978C 544.216 2.69084 542.329 2.66187 540.454 2.65488L 540.464 0C 542.358 0.00699179 544.266 0.0359578 546.185 0.0858991L 546.117 2.73978ZM 531.023 2.79977L 530.93 0.145883C 532.821 0.0799607 534.728 0.0350135 536.651 0.0140381L 536.68 2.66892C 534.78 2.6899 532.894 2.73384 531.023 2.79977ZM 555.55 3.14527C 553.654 3.0314 551.767 2.93751 549.891 2.8626L 549.997 0.209717C 551.891 0.284629 553.795 0.380516 555.71 0.495381L 555.55 3.14527ZM 521.611 3.33108L 521.403 0.684186C 523.279 0.537358 525.203 0.411506 527.117 0.312622L 527.256 2.96351C 525.363 3.06239 523.464 3.18625 521.611 3.33108ZM 564.968 3.86449C 563.077 3.68969 561.194 3.53388 559.32 3.39704L 559.515 0.749146C 561.405 0.886984 563.305 1.0448 565.213 1.22059L 564.968 3.86449ZM 512.238 4.29195L 511.902 1.65805C 513.773 1.41933 515.688 1.20458 517.598 1.0188L 517.855 3.6617C 515.972 3.84448 514.084 4.05623 512.238 4.29195ZM 574.359 4.87626C 572.477 4.64453 570.599 4.43079 568.727 4.23402L 569.005 1.59412C 570.892 1.79089 572.786 2.00763 574.685 2.24036L 574.359 4.87626ZM 502.941 5.73532L 502.46 3.12439C 504.301 2.78479 506.204 2.46816 508.117 2.1825L 508.509 4.80841C 506.626 5.09008 504.753 5.40171 502.941 5.73532ZM 583.721 6.16475C 581.847 5.87908 579.975 5.6104 578.11 5.35869L 578.464 2.72778C 580.346 2.98149 582.233 3.25217 584.124 3.53983L 583.721 6.16475ZM 593.043 7.7209C 591.177 7.3823 589.314 7.06067 587.455 6.75603L 587.886 4.13611C 589.76 4.44275 591.637 4.76737 593.518 5.10797L 593.043 7.7209ZM 493.757 7.72589L 493.108 5.15091C 494.924 4.69445 496.807 4.25996 498.703 3.86243L 499.25 6.46038C 497.387 6.85092 495.539 7.27742 493.757 7.72589ZM 602.319 9.53285C 600.465 9.14331 598.612 8.77075 596.76 8.41517L 597.262 5.80823C 599.13 6.16681 600.998 6.54237 602.866 6.93391L 602.319 9.53285ZM 484.752 10.3479L 483.908 7.82981C 485.688 7.23551 487.537 6.66617 489.405 6.13879L 490.129 8.69379C 488.3 9.21019 486.49 9.76753 484.752 10.3479ZM 611.544 11.5953C 609.702 11.1568 607.859 10.7343 606.015 10.3278L 606.59 7.73486C 608.445 8.14538 610.303 8.57088 612.159 9.01136L 611.544 11.5953ZM 476.016 13.7019L 474.946 11.2718C 476.66 10.5186 478.457 9.7905 480.289 9.1073L 481.218 11.5954C 479.434 12.2606 477.683 12.9698 476.016 13.7019ZM 620.684 13.8947C 618.858 13.4103 617.032 12.9399 615.204 12.4854L 615.847 9.90942C 617.687 10.3669 619.527 10.8403 621.366 11.3288L 620.684 13.8947ZM 629.773 16.4407C 627.959 15.9064 626.144 15.387 624.326 14.8836L 625.036 12.3256C 626.867 12.833 628.697 13.3554 630.523 13.8937L 629.773 16.4407ZM 467.691 17.907L 466.358 15.6097C 467.984 14.6678 469.699 13.7528 471.457 12.8918L 472.627 15.275C 470.925 16.1101 469.263 16.995 467.691 17.907ZM 638.803 19.2294C 637.005 18.6471 635.201 18.0798 633.393 17.5264L 634.171 14.9874C 635.992 15.5448 637.811 16.1171 639.623 16.7044L 638.803 19.2294ZM 647.769 22.2658C 645.984 21.6346 644.195 21.0173 642.4 20.415L 643.245 17.8979C 645.054 18.5042 646.859 19.1265 648.657 19.7638L 647.769 22.2658ZM 459.983 23.0839L 458.347 20.9903C 459.84 19.8267 461.428 18.695 463.071 17.6283L 464.52 19.8537C 462.942 20.8795 461.415 21.9662 459.983 23.0839ZM 656.66 25.552C 654.893 24.8708 653.117 24.2036 651.336 23.5503L 652.252 21.0573C 654.046 21.7155 655.836 22.3877 657.616 23.0749L 656.66 25.552ZM 665.427 29.0748C 663.686 28.3457 661.936 27.6305 660.179 26.9303L 661.164 24.4642C 662.935 25.1704 664.699 25.8906 666.455 26.6257L 665.427 29.0748ZM 453.171 29.3306L 451.215 27.5327C 452.503 26.1333 453.9 24.764 455.369 23.4645L 457.131 25.4511C 455.73 26.6917 454.399 27.9972 453.171 29.3306ZM 674.087 32.8494C 672.369 32.0703 670.641 31.3052 668.904 30.5541L 669.96 28.1169C 671.711 28.8751 673.452 29.6461 675.185 30.4322L 674.087 32.8494ZM 447.605 36.648L 445.344 35.2516C 446.353 33.6185 447.48 32.0154 448.693 30.4862L 450.776 32.1343C 449.627 33.5836 448.56 35.1018 447.605 36.648ZM 682.625 36.8836C 680.935 36.0526 679.23 35.2346 677.518 34.4315L 678.646 32.0273C 680.375 32.8374 682.093 33.6624 683.799 34.5014L 682.625 36.8836ZM 691.032 41.1836C 689.37 40.2987 687.694 39.4277 686.005 38.5707L 687.209 36.2035C 688.913 37.0685 690.605 37.9474 692.282 38.8404L 691.032 41.1836ZM 443.584 44.9003L 441.09 43.9833C 441.759 42.1665 442.547 40.3696 443.43 38.6416L 445.797 39.8502C 444.96 41.4833 444.216 43.1823 443.584 44.9003ZM 463.779 45.6983L 463.676 43.0454C 465.605 42.9695 467.531 42.9216 469.401 42.9016L 469.43 45.5565C 467.584 45.5765 465.684 45.6244 463.779 45.6983ZM 478.837 45.7014C 477.008 45.6225 475.11 45.5725 473.197 45.5545L 473.222 42.8997C 475.166 42.9176 477.094 42.9686 478.953 43.0495L 478.837 45.7014ZM 699.287 45.7613C 697.657 44.8194 696.012 43.8925 694.353 42.9806L 695.633 40.6543C 697.31 41.5752 698.97 42.5111 700.616 43.461L 699.287 45.7613ZM 454.371 46.2657L 454.157 43.6188C 456.096 43.463 457.999 43.3332 459.865 43.2273L 460.014 45.8782C 458.169 45.9821 456.289 46.1109 454.371 46.2657ZM 488.204 46.4015C 486.376 46.2038 484.488 46.038 482.591 45.9101L 482.772 43.2612C 484.704 43.3911 486.628 43.5599 488.49 43.7616L 488.204 46.4015ZM 444.983 47.1956L 444.674 44.5577C 446.602 44.3329 448.498 44.1312 450.359 43.9534L 450.612 46.5973C 448.77 46.7731 446.893 46.9718 444.983 47.1956ZM 497.471 47.7679C 495.677 47.4273 493.812 47.1217 491.925 46.86L 492.29 44.2301C 494.22 44.4978 496.13 44.8104 497.967 45.16L 497.471 47.7679ZM 506.553 49.9484C 504.814 49.434 502.99 48.9585 501.133 48.534L 501.726 45.9451C 503.636 46.3816 505.515 46.872 507.307 47.4024L 506.553 49.9484ZM 426.303 49.9603L 425.838 47.3454C 427.743 47.0078 429.619 46.6912 431.47 46.3945L 431.891 49.0165C 430.054 49.3111 428.192 49.6257 426.303 49.9603ZM 707.37 50.6246C 705.779 49.6258 704.168 48.6409 702.543 47.6711L 703.905 45.3907C 705.549 46.3716 707.175 47.3664 708.784 48.3762L 707.37 50.6246ZM 417.02 51.7232L 416.491 49.1213C 418.383 48.7377 420.251 48.3742 422.093 48.0286L 422.584 50.6375C 420.754 50.9811 418.899 51.3427 417.02 51.7232ZM 515.294 53.1216C 513.647 52.3965 511.9 51.7113 510.103 51.087L 510.976 48.579C 512.841 49.2272 514.654 49.9384 516.366 50.6925L 515.294 53.1216ZM 407.776 53.7049L 407.189 51.115C 409.072 50.6905 410.929 50.284 412.764 49.8944L 413.316 52.4914C 411.493 52.8779 409.645 53.2834 407.776 53.7049ZM 441.268 53.7919L 438.644 53.3683C 438.948 51.4945 439.353 49.6357 439.851 47.8418C 438.457 48.0286 437.05 48.2284 435.624 48.4401L 435.232 45.8142C 437.149 45.5286 439.035 45.2669 440.891 45.0251L 441.233 47.6581C 440.911 47.7 440.589 47.743 440.264 47.7859L 442.454 48.3992C 441.963 50.1471 441.564 51.961 441.268 53.7919ZM 715.263 55.7885C 713.712 54.7287 712.142 53.6839 710.553 52.6531L 712 50.4268C 713.607 51.4685 715.195 52.5253 716.763 53.597L 715.263 55.7885ZM 398.573 55.8814L 397.936 53.3034C 399.806 52.842 401.654 52.3965 403.483 51.968L 404.089 54.553C 402.272 54.9795 400.434 55.422 398.573 55.8814ZM 523.441 57.4945C 521.939 56.5146 520.324 55.5787 518.644 54.7147L 519.86 52.3545C 521.622 53.2594 523.315 54.2413 524.895 55.2711L 523.441 57.4945ZM 389.414 58.2346L 388.729 55.6687C 390.588 55.1732 392.428 54.6938 394.248 54.2303L 394.905 56.8033C 393.094 57.2638 391.264 57.7412 389.414 58.2346ZM 380.293 60.7477L 379.566 58.1937C 381.415 57.6673 383.247 57.1569 385.058 56.6605L 385.761 59.2215C 383.957 59.7149 382.134 60.2243 380.293 60.7477ZM 722.936 61.2661C 721.44 60.1494 719.901 59.0307 718.36 57.941L 719.896 55.7736C 721.455 56.8773 723.013 58.0089 724.526 59.1386L 722.936 61.2661ZM 130.085 62.5745L 129.398 60.0095C 131.379 59.4801 133.373 59.1895 135.326 59.1455L 135.386 61.8004C 133.644 61.8393 131.86 62.1 130.085 62.5745ZM 437.927 63.013L 437.926 62.5416C 437.926 60.7477 438.005 58.9518 438.162 57.2148L 440.808 57.4536C 440.658 59.1116 440.583 60.8266 440.583 62.5516L 440.585 62.9951L 437.927 63.013ZM 530.594 63.2487C 529.325 61.9812 527.932 60.7616 526.45 59.623L 528.071 57.5184C 529.643 58.727 531.124 60.0235 532.474 61.3719L 530.594 63.2487ZM 371.212 63.4066L 370.445 60.8646C 372.285 60.3112 374.107 59.7709 375.912 59.2455L 376.655 61.7945C 374.859 62.3179 373.044 62.8552 371.212 63.4066ZM 144.001 63.5703C 142.388 62.8242 140.681 62.3068 138.929 62.0321L 139.342 59.4092C 141.337 59.7218 143.28 60.3111 145.117 61.1601L 144.001 63.5703ZM 362.171 66.2012L 361.367 63.6712C 363.198 63.0909 365.012 62.5245 366.81 61.9722L 367.59 64.5102C 365.801 65.0595 363.995 65.6239 362.171 66.2012ZM 121.91 66.3421L 120.428 64.1377C 122.098 63.018 123.852 62.0642 125.643 61.3051L 126.68 63.7492C 125.045 64.4424 123.44 65.3153 121.91 66.3421ZM 730.353 67.0702C 728.915 65.8906 727.427 64.705 725.933 63.5474L 727.562 61.4498C 729.075 62.6215 730.582 63.822 732.04 65.0186L 730.353 67.0702ZM 151.094 68.9081C 149.845 67.5277 148.495 66.3271 147.079 65.3403L 148.6 63.1628C 150.18 64.2645 151.682 65.598 153.065 67.1282L 151.094 68.9081ZM 353.167 69.1198L 352.331 66.5998C 354.152 65.9955 355.958 65.4052 357.748 64.8279L 358.564 67.3539C 356.781 67.9292 354.983 68.5185 353.167 69.1198ZM 536.22 70.4243C 535.295 68.8771 534.232 67.3739 533.059 65.9556L 535.107 64.2635C 536.366 65.7858 537.508 67.4009 538.502 69.0639L 536.22 70.4243ZM 344.201 72.1533L 343.333 69.6433C 345.146 69.018 346.944 68.4057 348.727 67.8044L 349.577 70.3205C 347.799 70.9198 346.007 71.5301 344.201 72.1533ZM 115.223 72.445L 113.158 70.7739C 114.39 69.2537 115.778 67.8254 117.286 66.5299L 119.018 68.5425C 117.631 69.7351 116.355 71.0476 115.223 72.445ZM 438.69 72.6357C 438.406 70.7019 438.198 68.7652 438.072 66.8794L 440.722 66.7026C 440.845 68.5185 441.045 70.3853 441.32 72.2501L 438.69 72.6357ZM 737.483 73.219C 736.104 71.9685 734.677 70.7129 733.242 69.4874L 734.969 67.4688C 736.424 68.7113 737.871 69.9848 739.269 71.2533L 737.483 73.219ZM 335.225 75.2317L 334.369 72.7176C 336.149 72.1133 337.943 71.501 339.749 70.8798L 340.614 73.3908C 338.804 74.0131 337.008 74.6264 335.225 75.2317ZM 156.14 76.4612C 155.285 74.7532 154.347 73.166 153.348 71.7437L 155.524 70.2195C 156.597 71.7487 157.603 73.4497 158.517 75.2735L 156.14 76.4612ZM 326.226 78.2511L 325.388 75.7311C 327.172 75.1398 328.968 74.5395 330.78 73.9302L 331.627 76.4472C 329.813 77.0575 328.012 77.6588 326.226 78.2511ZM 539.805 78.7776C 539.315 77.0206 538.68 75.2946 537.92 73.6486L 540.333 72.5359C 541.153 74.3118 541.837 76.1706 542.365 78.0624L 539.805 78.7776ZM 744.275 79.7244C 742.975 78.407 741.618 77.0786 740.243 75.7771L 742.071 73.8503C 743.468 75.1728 744.846 76.5212 746.168 77.8596L 744.275 79.7244ZM 110.788 80.2498L 108.279 79.3738C 108.919 77.548 109.788 75.7391 110.863 74.0001L 113.124 75.3945C 112.149 76.9716 111.364 78.6047 110.788 80.2498ZM 317.206 81.2076L 316.387 78.6816C 318.174 78.1033 319.975 77.516 321.79 76.9197L 322.62 79.4417C 320.801 80.039 318.996 80.6283 317.206 81.2076ZM 440.637 82.0566C 440.139 80.1668 439.702 78.2751 439.342 76.4342L 441.949 75.9238C 442.299 77.7087 442.723 79.5446 443.207 81.3804L 440.637 82.0566ZM 308.163 84.0973L 307.365 81.5652C 309.155 81.0009 310.959 80.4266 312.781 79.8433L 313.591 82.3723C 311.767 82.9566 309.958 83.5309 308.163 84.0973ZM 159.484 85.0631C 158.934 83.2202 158.319 81.4563 157.654 79.8182L 160.117 78.8214C 160.813 80.5364 161.457 82.3812 162.031 84.304L 159.484 85.0631ZM 750.678 86.6023C 749.464 85.215 748.188 83.8116 746.886 82.4312L 748.82 80.6094C 750.144 82.0147 751.443 83.443 752.678 84.8544L 750.678 86.6023ZM 299.098 86.9139L 298.32 84.3749C 300.114 83.8256 301.923 83.2672 303.749 82.6979L 304.54 85.2319C 302.711 85.8032 300.897 86.3636 299.098 86.9139ZM 541.098 87.7929C 541.069 85.9561 540.901 84.1213 540.6 82.3384L 543.22 81.8959C 543.543 83.8106 543.723 85.7803 543.755 87.75L 541.098 87.7929ZM 107.151 89.3111C 107.039 88.4671 106.982 87.6001 106.982 86.7331C 106.982 85.5905 107.081 84.4208 107.276 83.2572L 109.896 83.6957C 109.726 84.7145 109.639 85.7363 109.639 86.7331C 109.639 87.4832 109.689 88.2334 109.786 88.9615L 107.151 89.3111ZM 290.009 89.6528L 289.252 87.1077C 291.05 86.5744 292.865 86.031 294.696 85.4777L 295.465 88.0197C 293.629 88.574 291.81 89.1184 290.009 89.6528ZM 443.482 91.207C 442.854 89.439 442.249 87.6032 441.686 85.7504L 444.229 84.9783C 444.781 86.7931 445.372 88.589 445.986 90.319L 443.482 91.207ZM 280.893 92.3096L 280.161 89.7576C 281.962 89.2412 283.782 88.7148 285.618 88.1785L 286.365 90.7265C 284.524 91.2648 282.699 91.7932 280.893 92.3096ZM 756.629 93.8608C 755.501 92.3885 754.32 90.9072 753.116 89.4589L 755.16 87.7629C 756.386 89.2382 757.59 90.7474 758.739 92.2477L 756.629 93.8608ZM 161.586 94.1335C 161.255 92.2387 160.873 90.3959 160.452 88.653L 163.034 88.0287C 163.47 89.8266 163.863 91.7273 164.203 93.6781L 161.586 94.1335ZM 271.75 94.8766L 271.044 92.3166C 272.851 91.8192 274.675 91.3108 276.517 90.7924L 277.238 93.3484C 275.391 93.8687 273.561 94.3782 271.75 94.8766ZM 262.58 97.3457L 261.903 94.7778C 263.713 94.3013 265.541 93.8139 267.392 93.3135L 268.085 95.8755C 266.231 96.3779 264.396 96.8673 262.58 97.3457ZM 542.783 97.4565L 540.184 96.8992C 540.574 95.0873 540.844 93.2555 540.985 91.4546L 543.633 91.6613C 543.483 93.5791 543.197 95.5288 542.783 97.4565ZM 111.027 98.5693C 109.768 96.9122 108.788 95.1253 108.113 93.2585L 110.613 92.3566C 111.196 93.9717 112.047 95.5209 113.144 96.9652L 111.027 98.5693ZM 253.38 99.708L 252.735 97.132C 254.548 96.6785 256.384 96.2121 258.239 95.7336L 258.903 98.3046C 257.041 98.7841 255.2 99.2525 253.38 99.708ZM 447.082 100.093C 446.299 98.3885 445.54 96.6066 444.826 94.7977L 447.299 93.8239C 447.994 95.5878 448.735 97.3247 449.497 98.9858L 447.082 100.093ZM 762.057 101.505C 761.036 99.9507 759.963 98.3915 758.867 96.8723L 761.022 95.3191C 762.141 96.8703 763.237 98.4604 764.279 100.049L 762.057 101.505ZM 244.15 101.955L 243.539 99.3713C 245.356 98.9418 247.197 98.4993 249.059 98.0428L 249.692 100.622C 247.822 101.079 245.974 101.524 244.15 101.955ZM 162.87 103.441C 162.659 101.594 162.421 99.7239 162.158 97.8341L 164.79 97.4685C 165.056 99.3803 165.296 101.27 165.51 103.139L 162.87 103.441ZM 234.887 104.073L 234.313 101.48C 236.136 101.078 237.982 100.661 239.852 100.231L 240.448 102.818C 238.57 103.251 236.716 103.668 234.887 104.073ZM 118.457 105.115C 116.689 104.025 115.095 102.821 113.721 101.537L 115.536 99.597C 116.782 100.762 118.234 101.858 119.853 102.855L 118.457 105.115ZM 225.591 106.047L 225.061 103.446C 226.886 103.074 228.737 102.687 230.616 102.285L 231.173 104.881C 229.286 105.285 227.426 105.674 225.591 106.047ZM 539.773 106.705L 537.339 105.637C 538.086 103.938 538.733 102.195 539.262 100.458L 541.805 101.23C 541.245 103.067 540.561 104.91 539.773 106.705ZM 216.261 107.862L 215.777 105.251C 217.606 104.914 219.465 104.559 221.351 104.189L 221.864 106.794C 219.966 107.166 218.099 107.523 216.261 107.862ZM 451.552 108.605C 450.588 106.996 449.648 105.297 448.759 103.553L 451.126 102.347C 451.989 104.038 452.899 105.684 453.832 107.242L 451.552 108.605ZM 127.302 109.212C 125.38 108.548 123.562 107.801 121.899 106.995L 123.059 104.607C 124.628 105.367 126.347 106.072 128.17 106.703L 127.302 109.212ZM 206.893 109.497L 206.464 106.877C 208.296 106.577 210.16 106.26 212.055 105.926L 212.518 108.54C 210.612 108.876 208.736 109.196 206.893 109.497ZM 766.885 109.526C 765.993 107.901 765.044 106.267 764.064 104.668L 766.33 103.282C 767.332 104.916 768.303 106.587 769.215 108.25L 766.885 109.526ZM 197.487 110.925L 197.12 108.295C 198.955 108.039 200.825 107.765 202.728 107.471L 203.134 110.095C 201.218 110.391 199.336 110.667 197.487 110.925ZM 136.633 111.682C 134.675 111.297 132.78 110.851 131 110.357L 131.711 107.799C 133.426 108.275 135.255 108.704 137.147 109.077L 136.633 111.682ZM 188.045 112.114L 187.749 109.475C 189.586 109.27 191.461 109.045 193.375 108.798L 193.715 111.431C 191.785 111.68 189.896 111.908 188.045 112.114ZM 178.563 113.021L 178.353 110.374C 180.19 110.23 182.07 110.062 183.993 109.871L 184.257 112.513C 182.315 112.706 180.417 112.874 178.563 113.021ZM 146.133 113.066C 144.166 112.868 142.244 112.626 140.422 112.345L 140.826 109.721C 142.604 109.994 144.478 110.231 146.399 110.424L 146.133 113.066ZM 169.048 113.594L 168.942 110.941C 170.775 110.867 172.658 110.769 174.591 110.645L 174.761 113.295C 172.806 113.42 170.902 113.52 169.048 113.594ZM 155.683 113.677C 153.734 113.618 151.805 113.521 149.951 113.391L 150.137 110.742C 151.957 110.87 153.851 110.965 155.766 111.024L 155.683 113.677ZM 161.011 113.758C 160.505 113.758 160.004 113.756 159.505 113.752L 159.527 111.098C 160.858 111.108 162.222 111.106 163.614 111.086C 163.511 109.796 163.395 108.492 163.268 107.188L 165.913 106.93C 166.1 108.845 166.262 110.762 166.396 112.629L 165.212 112.714L 165.234 113.711C 163.794 113.743 162.387 113.758 161.011 113.758ZM 535.04 115.187L 532.85 113.685C 533.894 112.164 534.861 110.573 535.727 108.954L 538.071 110.204C 537.159 111.91 536.14 113.587 535.04 115.187ZM 457.024 116.544C 455.846 115.063 454.699 113.488 453.613 111.862L 455.822 110.387C 456.869 111.953 457.972 113.469 459.104 114.892L 457.024 116.544ZM 771.029 117.909C 770.282 116.216 769.474 114.51 768.63 112.838L 771 111.641C 771.867 113.354 772.694 115.102 773.46 116.837L 771.029 117.909ZM 164.201 122.219C 164.155 120.36 164.081 118.462 163.98 116.576L 166.634 116.435C 166.736 118.345 166.811 120.269 166.857 122.154L 164.201 122.219ZM 528.829 122.657L 526.96 120.769C 527.275 120.458 527.584 120.143 527.887 119.823C 528.848 118.807 529.777 117.741 530.65 116.651L 532.725 118.309C 531.807 119.456 530.829 120.579 529.816 121.648C 529.492 121.989 529.165 122.325 528.829 122.657ZM 463.608 123.633C 462.207 122.352 460.83 120.961 459.519 119.5L 461.498 117.727C 462.751 119.123 464.065 120.452 465.402 121.673L 463.608 123.633ZM 774.407 126.621C 773.818 124.865 773.169 123.095 772.478 121.362L 774.946 120.379C 775.656 122.16 776.322 123.975 776.927 125.777L 774.407 126.621ZM 521.234 128.747L 519.795 126.515C 521.344 125.516 522.839 124.415 524.24 123.245L 525.945 125.282C 524.462 126.521 522.876 127.687 521.234 128.747ZM 471.342 129.504C 469.712 128.496 468.106 127.367 466.566 126.15L 468.215 124.067C 469.675 125.222 471.199 126.292 472.74 127.247L 471.342 129.504ZM 166.85 131.693L 164.193 131.622C 164.236 130.036 164.258 128.431 164.258 126.806L 164.256 125.982L 166.913 125.968L 166.915 126.807C 166.915 128.456 166.893 130.084 166.85 131.693ZM 512.568 133.175L 511.602 130.701C 513.312 130.033 515 129.254 516.62 128.386L 517.876 130.725C 516.163 131.644 514.377 132.468 512.568 133.175ZM 480.101 133.754C 478.283 133.097 476.478 132.313 474.736 131.42L 475.949 129.057C 477.591 129.899 479.292 130.639 481.004 131.258L 480.101 133.754ZM 776.944 135.587C 776.526 133.78 776.049 131.958 775.524 130.172L 778.074 129.425C 778.613 131.26 779.104 133.133 779.532 134.991L 776.944 135.587ZM 503.19 135.778L 502.745 133.161C 504.545 132.854 506.354 132.431 508.12 131.9L 508.884 134.443C 507.014 135.005 505.099 135.453 503.19 135.778ZM 489.572 136.058C 487.644 135.807 485.711 135.424 483.825 134.923L 484.509 132.357C 486.282 132.829 488.102 133.189 489.916 133.424L 489.572 136.058ZM 495.444 136.437L 495.425 136.437C 494.773 136.437 494.119 136.423 493.464 136.394L 493.58 133.742C 494.204 133.769 494.837 133.756 495.445 133.782C 496.655 133.782 497.881 133.73 499.094 133.626L 499.32 136.272C 498.032 136.381 496.728 136.437 495.444 136.437ZM 166.325 141.226L 163.678 141.004C 163.833 139.152 163.959 137.259 164.051 135.379L 166.705 135.509C 166.611 137.42 166.484 139.342 166.325 141.226ZM 778.589 144.766C 778.353 142.929 778.058 141.069 777.711 139.24L 780.323 138.746C 780.679 140.627 780.982 142.539 781.225 144.428L 778.589 144.766ZM 165.236 150.718L 162.607 150.333C 162.878 148.492 163.116 146.612 163.317 144.745L 165.959 145.03C 165.756 146.93 165.511 148.844 165.236 150.718ZM 779.312 154.07C 779.261 152.212 779.153 150.33 778.99 148.478L 781.636 148.246C 781.804 150.151 781.915 152.085 781.969 153.996L 779.312 154.07ZM 163.533 160.127L 160.936 159.565C 161.33 157.747 161.692 155.888 162.013 154.04L 164.632 154.494C 164.304 156.377 163.935 158.272 163.533 160.127ZM 781.764 163.594L 779.113 163.409C 779.244 161.531 779.321 159.646 779.342 157.806L 781.999 157.838C 781.977 159.727 781.899 161.664 781.764 163.594ZM 161.171 169.398L 158.622 168.649C 159.147 166.865 159.641 165.038 160.089 163.219L 162.67 163.854C 162.212 165.711 161.707 167.577 161.171 169.398ZM 780.641 173.123L 778.02 172.692C 778.324 170.841 778.579 168.971 778.778 167.133L 781.421 167.418C 781.216 169.305 780.954 171.224 780.641 173.123ZM 158.115 178.472L 155.633 177.528C 156.294 175.792 156.926 174.01 157.509 172.23L 160.035 173.056C 159.438 174.876 158.792 176.697 158.115 178.472ZM 778.669 182.503L 776.095 181.847C 776.56 180.025 776.981 178.183 777.346 176.372L 779.951 176.896C 779.577 178.751 779.145 180.638 778.669 182.503ZM 154.343 187.278L 151.944 186.133C 152.746 184.458 153.518 182.733 154.243 181.005L 156.694 182.03C 155.953 183.799 155.162 185.564 154.343 187.278ZM 775.916 191.728L 773.423 190.806C 774.04 189.141 774.288 188.159 774.291 188.149C 774.588 187.197 774.854 186.326 775.106 185.458L 777.658 186.2C 777.399 187.087 777.129 187.977 776.847 188.869L 776.847 188.868C 776.849 188.868 776.579 189.936 775.916 191.728ZM 149.847 195.743L 147.555 194.4C 148.496 192.796 149.41 191.142 150.273 189.484L 152.631 190.709C 151.747 192.406 150.811 194.1 149.847 195.743ZM 771.782 200.499L 769.47 199.187C 770.404 197.545 771.258 195.876 772.008 194.226L 774.428 195.325C 773.644 197.047 772.753 198.788 771.782 200.499ZM 144.643 203.794L 142.476 202.259C 143.553 200.739 144.606 199.17 145.605 197.595L 147.849 199.016C 146.826 200.629 145.748 202.237 144.643 203.794ZM 766.458 208.552L 764.342 206.945C 765.473 205.46 766.55 203.921 767.545 202.372L 769.781 203.806C 768.749 205.414 767.63 207.011 766.458 208.552ZM 706.709 211.26C 704.803 211.015 702.948 210.881 701.193 210.861L 701.221 208.208C 703.08 208.227 705.04 208.368 707.046 208.626L 706.709 211.26ZM 138.767 211.371L 136.738 209.656C 137.943 208.232 139.127 206.758 140.257 205.276L 142.371 206.885C 141.214 208.402 140.002 209.912 138.767 211.371ZM 692.182 211.933L 691.469 209.376C 693.281 208.872 695.246 208.526 697.305 208.348L 697.533 210.994C 695.636 211.157 693.836 211.474 692.182 211.933ZM 715.796 213.14C 713.95 212.625 712.123 212.193 710.366 211.852L 710.872 209.245C 712.698 209.6 714.594 210.049 716.509 210.581L 715.796 213.14ZM 760.154 215.844L 758.253 213.987C 759.559 212.653 760.823 211.263 762.014 209.852L 764.045 211.564C 762.813 213.023 761.504 214.463 760.154 215.844ZM 684.401 216.012L 682.621 214.041C 684.07 212.735 685.781 211.625 687.71 210.74L 688.819 213.153C 687.135 213.926 685.649 214.888 684.401 216.012ZM 724.645 216.122C 722.862 215.422 721.087 214.783 719.367 214.22L 720.194 211.697C 721.961 212.275 723.786 212.932 725.617 213.65L 724.645 216.122ZM 132.274 218.422L 130.395 216.546C 131.716 215.225 133.02 213.855 134.271 212.475L 136.241 214.257C 134.96 215.67 133.626 217.071 132.274 218.422ZM 733.226 219.896C 731.504 219.061 729.782 218.272 728.11 217.55L 729.166 215.111C 730.873 215.849 732.629 216.655 734.387 217.508L 733.226 219.896ZM 753.021 222.311L 751.353 220.243C 752.81 219.068 754.235 217.837 755.583 216.587L 757.392 218.531C 755.998 219.825 754.528 221.096 753.021 222.311ZM 680.209 223.335L 677.594 222.868C 677.958 220.827 678.743 218.898 679.926 217.136L 682.133 218.615C 681.157 220.071 680.51 221.658 680.209 223.335ZM 741.545 224.265C 739.88 223.326 738.21 222.423 736.585 221.581L 737.808 219.224C 739.462 220.081 741.157 220.999 742.851 221.951L 741.545 224.265ZM 125.233 224.915L 123.508 222.894L 124.259 222.25C 125.426 221.24 126.584 220.197 127.701 219.152L 129.518 221.088C 128.376 222.158 127.192 223.224 125.999 224.257L 125.233 224.915ZM 749.622 229.096C 748.554 228.421 747.484 227.76 746.428 227.119C 746.021 227.388 745.612 227.654 745.201 227.914L 743.773 225.676C 744.496 225.215 745.214 224.743 745.923 224.262L 746.158 223.863C 746.22 223.899 746.283 223.936 746.344 223.973C 747.038 223.495 747.724 223.008 748.395 222.516L 749.966 224.657C 749.592 224.932 749.214 225.205 748.832 225.474C 749.566 225.926 750.304 226.385 751.042 226.851L 749.622 229.096ZM 117.709 230.839L 116.144 228.693C 117.659 227.589 119.165 226.441 120.617 225.279L 122.278 227.353C 120.793 228.539 119.257 229.711 117.709 230.839ZM 736.844 232.649L 735.652 230.276C 737.33 229.435 738.989 228.539 740.584 227.616L 741.916 229.912C 740.277 230.863 738.57 231.784 736.844 232.649ZM 679.342 232.898C 678.305 231.046 677.667 229.067 677.448 227.015L 680.091 226.735C 680.271 228.426 680.8 230.063 681.661 231.599L 679.342 232.898ZM 757.479 234.298C 755.925 233.221 754.348 232.157 752.791 231.136L 754.25 228.917C 755.824 229.95 757.42 231.026 758.992 232.115L 757.479 234.298ZM 109.776 236.195L 108.366 233.945C 109.969 232.941 111.555 231.904 113.078 230.858L 114.582 233.047C 113.027 234.114 111.411 235.173 109.776 236.195ZM 728.071 236.54L 727.105 234.067C 728.858 233.384 730.596 232.651 732.276 231.888L 733.376 234.305C 731.654 235.088 729.867 235.84 728.071 236.54ZM 719 239.636L 718.247 237.09C 720.053 236.554 721.852 235.974 723.595 235.365L 724.473 237.87C 722.691 238.495 720.85 239.088 719 239.636ZM 765.137 239.803C 763.593 238.651 762.068 237.539 760.567 236.466L 762.11 234.306C 763.628 235.39 765.167 236.511 766.726 237.677L 765.137 239.803ZM 686.598 239.9C 684.751 238.885 683.128 237.641 681.774 236.202L 683.713 234.384C 684.874 235.62 686.276 236.693 687.878 237.574L 686.598 239.9ZM 101.501 240.998L 100.241 238.66C 101.902 237.767 103.554 236.836 105.154 235.895L 106.503 238.182C 104.875 239.14 103.192 240.088 101.501 240.998ZM 709.71 242.001L 709.169 239.401L 709.52 239.326C 711.247 238.948 712.967 238.535 714.634 238.097L 715.31 240.665C 713.608 241.112 711.852 241.534 710.089 241.919L 709.71 242.001ZM 696.089 242.814C 694.037 242.569 692.081 242.132 690.276 241.514L 691.136 239.003C 692.764 239.56 694.538 239.954 696.405 240.178L 696.089 242.814ZM 700.244 243.054L 700.234 243.054L 700.018 243.053L 700.039 240.398L 700.234 240.399L 700.245 240.399C 701.932 240.399 703.709 240.276 705.525 240.032L 705.877 242.665C 703.945 242.923 702.049 243.054 700.244 243.054ZM 92.9442 245.268L 91.8286 242.858C 93.542 242.066 95.2504 241.24 96.9078 240.401L 98.1094 242.768C 96.424 243.622 94.6856 244.463 92.9442 245.268ZM 772.612 245.565C 771.106 244.366 769.618 243.205 768.149 242.08L 769.765 239.972C 771.247 241.108 772.747 242.278 774.267 243.487L 772.612 245.565ZM 84.1583 249.032L 83.1786 246.563C 84.942 245.864 86.6964 245.136 88.3938 244.397L 89.4554 246.832C 87.73 247.582 85.9487 248.322 84.1583 249.032ZM 779.924 251.543C 778.451 250.305 776.995 249.102 775.557 247.932L 777.234 245.872C 778.684 247.052 780.151 248.264 781.633 249.51L 779.924 251.543ZM 75.1865 252.317L 74.3358 249.802C 76.1291 249.196 77.9215 248.56 79.6619 247.913L 80.5896 250.401C 78.8232 251.058 77.0048 251.702 75.1865 252.317ZM 66.0677 255.154L 65.3379 252.601C 67.1593 252.081 68.9817 251.534 70.754 250.973L 71.5557 253.504C 69.7594 254.073 67.913 254.628 66.0677 255.154ZM 56.8299 257.568L 56.2142 254.985C 58.0505 254.547 59.8969 254.083 61.7012 253.603L 62.384 256.168C 60.5576 256.655 58.6883 257.125 56.8299 257.568ZM 47.4992 259.579L 46.9924 256.973C 48.8138 256.62 50.6631 256.237 52.5365 255.826L 53.1073 258.419C 51.2119 258.835 49.3406 259.222 47.4992 259.579ZM 38.0956 261.211L 37.6937 258.586C 39.5161 258.308 41.3804 258.001 43.2807 257.662L 43.7466 260.277C 41.8242 260.618 39.9379 260.929 38.0956 261.211ZM 28.6349 262.474L 28.335 259.836C 30.1474 259.629 32.0247 259.395 33.956 259.13L 34.3179 261.76C 32.3656 262.028 30.4692 262.266 28.6349 262.474ZM 19.1332 263.372L 18.9343 260.725C 20.7187 260.59 22.604 260.429 24.5793 260.234L 24.8392 262.877C 22.8429 263.073 20.9366 263.237 19.1332 263.372ZM 9.59461 263.893L 9.50564 261.239C 11.345 261.177 13.2483 261.089 15.1646 260.977L 15.3196 263.627C 13.3823 263.741 11.456 263.83 9.59461 263.893ZM 3.44378 264C 1.21657 264 0 263.951 0 263.951L 0.105963 261.298C 0.126955 261.298 2.15624 261.375 5.73198 261.329L 5.76696 263.984C 4.90127 263.995 4.12554 264 3.44378 264Z"/>
<path id="path9_fill" fill-rule="evenodd" d="M 0 4C 0 1.79086 1.79086 0 4 0L 796 0C 798.209 0 800 1.79086 800 4L 800 18C 800 20.2091 798.209 22 796 22L 4 22C 1.79086 22 0 20.2091 0 18L 0 4Z"/>
<path id="path10_stroke_2x" d="M 4 4L 796 4L 796 -4L 4 -4L 4 4ZM 796 4L 796 18L 804 18L 804 4L 796 4ZM 796 18L 4 18L 4 26L 796 26L 796 18ZM 4 18L 4 4L -4 4L -4 18L 4 18ZM 4 -4C -0.418278 -4 -4 -0.418278 -4 4L 4 4L 4 -4ZM 796 4L 804 4C 804 -0.418278 800.418 -4 796 -4L 796 4ZM 796 18L 796 26C 800.418 26 804 22.4183 804 18L 796 18ZM 4 18L -4 18C -4 22.4183 -0.418278 26 4 26L 4 18Z"/>
<path id="path11_fill" fill-rule="evenodd" d="M 0 0L 65 0L 65 20L 0 20L 0 0Z"/>
<path id="path12_stroke_2x" d="M 0 0L 0 -4L -4 -4L -4 0L 0 0ZM 65 0L 69 0L 69 -4L 65 -4L 65 0ZM 65 20L 65 24L 69 24L 69 20L 65 20ZM 0 20L -4 20L -4 24L 0 24L 0 20ZM 0 4L 65 4L 65 -4L 0 -4L 0 4ZM 61 0L 61 20L 69 20L 69 0L 61 0ZM 65 16L 0 16L 0 24L 65 24L 65 16ZM 4 20L 4 0L -4 0L -4 20L 4 20Z"/>
<path id="path13_fill" fill-rule="evenodd" d="M 0 0L 29 0L 29 55L 0 55L 0 0Z"/>
<path id="path14_stroke_2x" d="M 0 0L 0 -4L -4 -4L -4 0L 0 0ZM 29 0L 33 0L 33 -4L 29 -4L 29 0ZM 29 55L 29 59L 33 59L 33 55L 29 55ZM 0 55L -4 55L -4 59L 0 59L 0 55ZM 0 4L 29 4L 29 -4L 0 -4L 0 4ZM 25 0L 25 55L 33 55L 33 0L 25 0ZM 29 51L 0 51L 0 59L 29 59L 29 51ZM 4 55L 4 0L -4 0L -4 55L 4 55Z"/>
<path id="path15_fill" fill-rule="evenodd" d="M 4 8C 6.20914 8 8 6.20914 8 4C 8 1.79086 6.20914 0 4 0C 1.79086 0 0 1.79086 0 4C 0 6.20914 1.79086 8 4 8Z"/>
<path id="path16_fill" fill-rule="evenodd" d="M 90.793 45.397C 90.793 70.469 70.468 90.794 45.396 90.794C 20.324 90.794 0 70.469 0 45.397C 0 20.325 20.324 0 45.396 0C 70.468 0 90.793 20.325 90.793 45.397Z"/>
<path id="path17_fill" fill-rule="evenodd" d="M 48.187 5.578C 24.693 5.578 5.57899 24.692 5.57899 48.186C 5.57899 71.679 24.693 90.792 48.187 90.792C 71.68 90.792 90.794 71.679 90.794 48.186C 90.794 24.692 71.68 5.578 48.187 5.578ZM 48.187 96.371C 21.617 96.371 0 74.755 0 48.186C 0 21.616 21.617 0 48.187 0C 74.757 0 96.373 21.616 96.373 48.186C 96.373 74.755 74.757 96.371 48.187 96.371Z"/>
<path id="path18_fill" fill-rule="evenodd" d="M 0 96.532L 0 0L 96.5316 0L 96.5316 96.532L 0 96.532Z"/>
<path id="path19_fill" fill-rule="evenodd" d="M 48.267 5.73901C 24.817 5.73901 5.739 24.817 5.739 48.266C 5.739 71.715 24.817 90.793 48.267 90.793C 71.717 90.793 90.794 71.715 90.794 48.266C 90.794 24.817 71.717 5.73901 48.267 5.73901ZM 48.267 96.532C 21.652 96.532 0 74.88 0 48.266C 0 21.652 21.652 0 48.267 0C 74.88 0 96.532 21.652 96.532 48.266C 96.532 74.88 74.88 96.532 48.267 96.532Z"/>
<path id="path20_fill" fill-rule="evenodd" d="M 5.739 35.609L 0 35.609C 0 15.974 15.975 0 35.61 0L 35.61 5.739C 19.139 5.739 5.739 19.138 5.739 35.609Z"/>
<path id="path21_fill" fill-rule="evenodd" d="M 25.332 120.222C 16.834 120.222 8.207 118.428 0 114.635L 2.339 109.572C 29.887 122.294 62.658 110.244 75.389 82.693C 79.84 73.06 81.414 62.441 79.941 51.983C 76.214 25.528 52.342 5.578 24.415 5.578C 23.739 5.578 23.056 5.588 22.367 5.611L 22.187 0.036C 22.935 0.011 23.678 0 24.415 0C 55.106 0 81.352 22.014 85.464 51.205C 87.087 62.726 85.355 74.424 80.452 85.033C 70.225 107.167 48.251 120.222 25.332 120.222Z"/>
<path id="path22_fill" fill-rule="evenodd" d="M 0 22L 6 22L 6 0L 0 0L 0 22Z"/>
<path id="path23_fill" fill-rule="evenodd" d="M 0 35L 6 35L 6 0L 0 0L 0 35Z"/>
<path id="path24_fill" fill-rule="evenodd" d="M 66.503 12.518L 0 12.518L 0 12.393C 0 5.548 5.549 0 12.393 0L 54.11 0C 60.955 0 66.503 5.548 66.503 12.393L 66.503 12.518Z"/>
<path id="path25_fill" fill-rule="evenodd" d="M 5.95399 12.517L 66.127 12.517C 64.969 8.51398 61.27 5.57898 56.898 5.57898L 15.182 5.57898C 10.811 5.57898 7.11199 8.51398 5.95399 12.517ZM 72.082 18.096L 0 18.096L 0 15.182C 0 6.81 6.81 0 15.182 0L 56.898 0C 65.27 0 72.082 6.81 72.082 15.182L 72.082 18.096Z"/>
<path id="path26_fill" fill-rule="evenodd" d="M 31.8092 16.302C 30.3062 25.698 24.7422 32.088 16.0232 32.088C 7.30519 32.088 2.11719 26.45 0.238191 16.302C -1.34981 7.73003 5.12419 -5.12097 16.0232 2.77103C 27.6752 -5.87297 33.1862 7.69303 31.8092 16.302Z"/>
<path id="path27_fill" fill-rule="evenodd" d="M 12.4038 6.01869C 10.9458 6.01869 9.6248 6.71869 8.4768 8.09769C 6.3478 10.6587 5.2768 15.0837 5.9318 18.6207C 7.6058 27.6637 11.8468 32.0597 18.8958 32.0597C 28.6548 32.0597 31.2038 22.7107 31.8478 18.6907C 32.4748 14.7687 31.3488 9.93569 29.2298 7.45069C 28.2308 6.27969 27.1228 5.71069 25.8408 5.71069C 24.3618 5.71069 22.5518 6.47369 20.6058 7.91769L 18.9168 9.17069L 17.2138 7.93769C 15.4558 6.66469 13.8378 6.01869 12.4038 6.01869ZM 18.8958 37.7987C 11.9398 37.7987 3.06481 34.6527 0.288808 19.6657C -0.679192 14.4317 0.837808 8.30867 4.06481 4.42867C 7.81481 -0.0803294 13.3838 -0.987329 18.8648 2.17367C 24.4508 -1.23333 29.9268 -0.57533 33.5958 3.72667C 36.7978 7.48167 38.4088 14.0067 37.5138 19.5967C 35.7188 30.8247 28.5848 37.7987 18.8958 37.7987Z"/>
<path id="path28_fill" fill-rule="evenodd" d="M 18.366 18.366L 18.182 18.366C 8.14 18.366 0 10.225 0 0.184L 0 0L 0.183 0C 10.225 0 18.366 8.14 18.366 18.182L 18.366 18.366Z"/>
<path id="path29_fill" fill-rule="evenodd" d="M 23.9456 0L 0 7.10543e-15L 0 23.9451L 23.9456 23.9451L 23.9456 2.13163e-14L 23.9456 0Z"/>
<path id="path30_fill" fill-rule="evenodd" d="M 5.84799 5.84802C 7.02199 12.036 11.91 16.924 18.098 18.098C 16.924 11.91 12.036 7.02102 5.84799 5.84802ZM 23.946 23.946L 20.973 23.946C 9.409 23.946 0 14.537 0 2.973L 0 0L 2.973 0C 14.537 0 23.946 9.409 23.946 20.972L 23.946 23.946Z"/>
<path id="path31_fill" fill-rule="evenodd" d="M 86.254 125.617L 0 109.186L 22.426 0L 108.679 16.431L 86.254 125.617Z"/>
<path id="path32_fill" fill-rule="evenodd" d="M 0 114.808L 91.891 132.313L 115.472 17.506L 23.58 0L 0 114.808ZM 6.79199 110.26L 28.063 6.69604L 108.68 22.054L 87.409 125.617L 6.79199 110.26Z"/>
<path id="path33_fill" fill-rule="evenodd" d="M 79.37 118.651L 0 102.671L 20.671 0L 100.041 15.98L 79.37 118.651Z"/>
<path id="path34_fill" fill-rule="evenodd" d="M 21.804 0L 0 108.297L 84.997 125.41L 106.8 17.113L 21.804 0ZM 6.75897 103.805L 26.297 6.75903L 100.041 21.605L 80.504 118.651L 6.75897 103.805Z"/>
<path id="path35_fill" fill-rule="evenodd" d="M 18.697 42.912C 20.104 44.048 21.677 44.922 23.405 45.48L 24.297 42.715C 22.707 42.201 21.265 41.369 20.015 40.246L 18.194 42.272L 16.318 39.881L 18.346 38.4C 17.356 37.043 16.677 35.526 16.328 33.891L 13.486 34.497C 13.716 35.577 14.07 36.612 14.529 37.602L 5.00598 25.47L 20.113 18.865C 18.51 19.872 17.078 21.188 15.968 22.721L 18.32 24.425C 19.291 23.085 20.559 21.937 21.987 21.106L 20.567 18.666L 23.384 17.434L 24.253 20.088C 25.832 19.57 27.539 19.395 29.172 19.559L 29.462 16.668C 27.683 16.487 25.836 16.655 24.083 17.129L 50.387 5.62903L 42.685 31.343L 39.857 31.394C 39.857 33.079 39.512 34.706 38.833 36.23L 40.94 37.169L 33.552 61.837L 18.697 42.912ZM 55.37 0L 0 24.21L 34.83 68.582L 55.37 0Z"/>
<path id="path36_fill" fill-rule="evenodd" d="M 6.225 3.062C 4.665 1.667 2.869 0.637 0.888 0L 0 2.766C 1.59 3.278 3.033 4.106 4.287 5.227L 6.225 3.062Z"/>
<path id="path37_fill" fill-rule="evenodd" d="M 0.299 0.518L 0 3.409C 0.502 3.461 1.017 3.487 1.532 3.487C 3.098 3.486 4.64 3.243 6.115 2.762L 5.216 0C 3.641 0.512 1.929 0.687 0.299 0.518Z"/>
<path id="path38_fill" fill-rule="evenodd" d="M 3.673 0C 2.7 1.338 1.43 2.484 0 3.313L 1.458 5.827C 3.261 4.781 4.797 3.396 6.023 1.709L 3.673 0Z"/>
<path id="path39_fill" fill-rule="evenodd" d="M 0 5.992L 0 6.018L 2.905 5.992C 2.905 4.316 3.247 2.696 3.92 1.178L 1.264 0C 0.425 1.892 0 3.908 0 5.992Z"/>
<path id="path40_fill" fill-rule="evenodd" d="M 2.028 6.224L 4.868 5.611C 4.429 3.575 3.579 1.687 2.343 0L 0 1.717C 0.992 3.073 1.674 4.589 2.028 6.224Z"/>
<path id="path41_fill" fill-rule="evenodd" d="M 6.822 13.522C 9.808 13.522 11.318 12.025 11.952 11.133L 12.248 10.718L 9.368 8.047L 8.984 8.58C 8.501 9.252 7.804 9.607 6.969 9.607C 5.406 9.607 4.355 8.459 4.355 6.749C 4.355 5.055 5.406 3.916 6.969 3.916C 7.845 3.916 8.521 4.257 8.975 4.929L 9.357 5.493L 12.25 2.774L 11.948 2.361C 11.308 1.479 9.79 0 6.822 0C 2.87 0 0 2.839 0 6.749C 0 10.674 2.87 13.522 6.822 13.522Z"/>
<path id="path42_fill" fill-rule="evenodd" d="M 8.754 10.966C 8.754 12.687 7.804 13.799 6.335 13.799C 5.579 13.799 4.704 13.401 4.258 12.869L 4.258 9.08201C 4.704 8.52601 5.581 8.10901 6.335 8.10901C 7.804 8.10901 8.754 9.23001 8.754 10.966ZM 7.31 4.193C 6.179 4.193 5.132 4.542 4.258 5.196L 4.258 0L 0 0L 0 17.422L 4.258 17.422L 4.258 16.703C 5.139 17.362 6.187 17.714 7.31 17.714C 10.778 17.714 13.108 15.002 13.108 10.966C 13.108 6.915 10.778 4.193 7.31 4.193Z"/>
<path id="path43_fill" fill-rule="evenodd" d="M 4.28101 9.11404C 4.28101 8.22804 5.16401 7.91504 5.92001 7.91504C 6.71701 7.91504 7.42701 8.16304 7.82601 8.57104L 7.82601 9.60804C 7.42701 10.017 6.71701 10.265 5.92001 10.265C 5.10401 10.265 4.28101 9.90904 4.28101 9.11404ZM 2.77802 4.93204C 3.66202 4.11204 4.68703 3.69604 5.82202 3.69604C 6.79102 3.69604 7.82603 4.06305 7.82603 5.09104L 7.82603 5.44405C 6.97503 4.93604 5.88303 4.65704 4.67502 4.65704C 3.99703 4.65704 3.30202 4.78204 2.66302 5.03904L 2.77802 4.93204ZM 7.826 13.23L 12.083 13.23L 12.083 5.042C 12.083 1.838 9.997 0 6.358 0C 4.255 0 2.291 0.71 0.83 1.998L 0.477 2.31L 2.154 5.278C 0.92 5.951 0 7.185 0 9.041C 0 11.951 2.409 13.522 4.675 13.522C 5.848 13.522 6.954 13.217 7.826 12.677L 7.826 13.23Z"/>
<path id="path44_fill" fill-rule="evenodd" d="M 6.73277 3.695C 7.47177 3.842 7.98277 4.242 8.25177 4.884L 8.51677 5.512L 11.6168 3.58L 11.4028 3.115C 10.9938 2.226 9.91777 0.658 7.31077 0.137C 6.85277 0.046 6.39377 0 5.94477 0C 3.00577 0 0.724771 1.911 0.133771 4.871C -0.201229 6.548 0.0977713 8.188 0.976771 9.489C 1.85077 10.784 3.25877 11.682 4.93877 12.017C 5.40777 12.111 5.86877 12.158 6.31077 12.158C 8.07077 12.158 9.21777 11.428 9.86877 10.815L 10.2398 10.465L 8.12277 7.536L 7.64277 7.985C 7.12777 8.465 6.48377 8.652 5.77077 8.511C 5.12977 8.383 4.62577 8.05 4.31577 7.549C 3.99477 7.032 3.90177 6.375 4.04677 5.651C 4.33177 4.226 5.41177 3.431 6.73277 3.695Z"/>
<path id="path45_fill" fill-rule="evenodd" d="M 8.73899 11.114C 8.44899 12.571 7.47999 13.356 6.22299 13.104C 5.60199 12.98 4.92799 12.498 4.63599 11.989L 5.28399 8.74504C 5.74299 8.37404 6.54299 8.16204 7.18599 8.28904C 7.78299 8.40804 8.24499 8.72604 8.51999 9.21104C 8.80999 9.71904 8.88599 10.377 8.73899 11.114ZM 8.738 4.925C 7.798 4.739 6.839 4.844 5.988 5.219L 6.877 0.764L 3.048 0L 0 15.27L 3.829 16.035L 3.941 15.473C 4.591 16.156 5.42 16.617 6.366 16.805C 6.724 16.877 7.085 16.913 7.436 16.913C 10.037 16.913 12.035 14.99 12.653 11.895C 13.363 8.336 11.791 5.535 8.738 4.925Z"/>
<path id="path46_fill" fill-rule="evenodd" d="M 6.12622 3.40461C 6.65922 3.51061 7.09023 3.72661 7.34223 4.01261C 7.56222 4.26261 7.64022 4.55661 7.57422 4.88661L 7.53623 5.08061C 6.88323 4.52261 6.00523 4.11361 4.98822 3.91161C 4.66123 3.84561 4.32723 3.81261 3.99623 3.81261C 3.82323 3.81261 3.65623 3.82061 3.49323 3.83661C 4.33222 3.36961 5.22223 3.22361 6.12622 3.40461ZM 5.09622 8.99963C 4.68522 8.91763 4.34122 8.74463 4.12922 8.51163C 3.93722 8.30063 3.87022 8.06663 3.92422 7.79363C 4.05522 7.13863 4.67722 7.04163 5.03622 7.04163C 5.18022 7.04163 5.32822 7.05663 5.47922 7.08663C 6.14222 7.21963 6.69322 7.53863 6.96522 7.93763L 6.79522 8.78563C 6.39422 9.04863 5.74222 9.12963 5.09622 8.99963ZM 7.25925 0.155569C 5.43825 -0.208431 3.56225 0.0715688 2.06225 0.940569L 1.65625 1.17657L 2.59025 4.02257C 1.28525 4.44257 0.383249 5.47657 0.0882485 6.96057C -0.220751 8.50357 0.340249 9.58957 0.866249 10.2296C 1.49325 10.9926 2.42625 11.5446 3.42625 11.7436C 4.40125 11.9406 5.39825 11.8836 6.23425 11.5946L 6.14925 12.0236L 9.97825 12.7876L 11.4112 5.60857C 11.9752 2.78257 10.4632 0.795569 7.25925 0.155569Z"/>
<path id="path47_fill" fill-rule="evenodd" d="M 7.615 0.718L 4.021 0L 3.396 3.127L 0.718 2.591L 0 6.186L 2.679 6.721L 2.056 9.847L 5.649 10.564L 6.273 7.439L 8.953 7.974L 9.669 4.379L 6.991 3.844L 7.615 0.718Z"/>
<path id="path48_fill" fill-rule="evenodd" d="M 0 3.371L 8.73 5.114L 9.403 1.743L 0.673 0L 0 3.371Z"/>
<path id="path49_fill" fill-rule="evenodd" d="M 0 3.372L 8.729 5.115L 9.402 1.744L 0.672 0L 0 3.372Z"/>
<path id="path50_fill" fill-rule="evenodd" d="M 0 13C 0 5.8203 5.8203 0 13 0L 194 0C 201.18 0 207 5.8203 207 13C 207 20.1797 201.18 26 194 26L 13 26C 5.8203 26 0 20.1797 0 13Z"/>
<path id="path51_stroke_2x" d="M 13 4L 194 4L 194 -4L 13 -4L 13 4ZM 194 22L 13 22L 13 30L 194 30L 194 22ZM 13 -4C 3.61116 -4 -4 3.61116 -4 13L 4 13C 4 8.02944 8.02944 4 13 4L 13 -4ZM 194 4C 198.971 4 203 8.02944 203 13L 211 13C 211 3.61116 203.389 -4 194 -4L 194 4ZM 203 13C 203 17.9706 198.971 22 194 22L 194 30C 203.389 30 211 22.3888 211 13L 203 13ZM 13 22C 8.02944 22 4 17.9706 4 13L -4 13C -4 22.3888 3.61116 30 13 30L 13 22Z"/>
<path id="path52_fill" fill-rule="evenodd" d="M 0 0L 44 0L 44 22L 0 22L 0 0Z"/>
<path id="path53_fill" fill-rule="evenodd" d="M 0 0L 143.97 0C 159.945 0 172.895 12.95 172.895 28.925L 172.895 29.509C 172.895 45.484 159.945 58.434 143.97 58.434L 0 58.434L 8.899 43.196L 8.899 13.126L 0 0Z"/>
<path id="path54_fill" fill-rule="evenodd" d="M 10.41 58.435L 149.382 58.435C 163.75 58.435 175.438 46.747 175.438 32.379L 175.438 31.795C 175.438 17.427 163.75 5.73901 149.382 5.73901L 10.824 5.73901L 17.18 15.114L 17.18 46.841L 10.41 58.435ZM 149.382 64.174L 0.414 64.174L 11.441 45.289L 11.441 16.876L 0 0L 149.382 0C 166.914 0 181.177 14.263 181.177 31.795L 181.177 32.379C 181.177 49.911 166.914 64.174 149.382 64.174Z"/>
<path id="path55_fill" fill-rule="evenodd" d="M 129.843 0L 0 0L 0 26.747L 129.843 26.747C 137.155 26.747 143.083 20.819 143.083 13.507L 143.083 13.24C 143.083 5.928 137.155 0 129.843 0Z"/>
<path id="path56_fill" fill-rule="evenodd" d="M 3 27L 131 27C 137.716 27 143 21.6773 143 15C 143 8.32271 137.716 3 131 3L 3 3L 3 27ZM 131 30L 1 30C 0.64712 30 0 29.3451 0 29L 0 1C 0 0.654925 0.64712 0 1 0L 131 0C 139.411 0 146 6.66869 146 15C 146 23.3313 139.411 30 131 30Z"/>
<path id="path57_fill" fill-rule="evenodd" d="M 0 0L 0 19.465L 8.161 12.323L 16.833 19.465L 16.833 0L 0 0Z"/>
<path id="path58_fill" fill-rule="evenodd" d="M 10 12L 17 18L 17 3L 3 3L 3 18L 10 12ZM 0 24L 0 0L 20 0L 20 24L 10 16L 0 24Z"/>
<path id="path59_fill" fill-rule="evenodd" d="M 0 4C 0 1.79086 1.79086 0 4 0L 198 0C 200.209 0 202 1.79086 202 4L 202 71L 0 71L 0 4Z"/>
<path id="path60_stroke_2x" d="M 202 71L 202 75L 206 75L 206 71L 202 71ZM 0 71L -4 71L -4 75L 0 75L 0 71ZM 4 4L 198 4L 198 -4L 4 -4L 4 4ZM 198 4L 198 71L 206 71L 206 4L 198 4ZM 202 67L 0 67L 0 75L 202 75L 202 67ZM 4 71L 4 4L -4 4L -4 71L 4 71ZM 4 -4C -0.418278 -4 -4 -0.418278 -4 4L 4 4L 4 -4ZM 198 4L 206 4C 206 -0.418278 202.418 -4 198 -4L 198 4Z"/>
<path id="path61_fill" fill-rule="evenodd" d="M 0 21C 0 9.40202 9.40202 0 21 0L 107 0C 118.598 0 128 9.40202 128 21L 0 21Z"/>
<path id="path62_stroke_2x" d="M 21 4L 107 4L 107 -4L 21 -4L 21 4ZM 128 17L 0 17L 0 25L 128 25L 128 17ZM 21 -4C 7.19288 -4 -4 7.19288 -4 21L 4 21C 4 11.6112 11.6112 4 21 4L 21 -4ZM 107 4C 116.389 4 124 11.6112 124 21L 132 21C 132 7.19288 120.807 -4 107 -4L 107 4Z"/>
<path id="path63_fill" fill-rule="evenodd" d="M 1.71633 0.0953026C 1.82669 -2.47052 5.63064 -2.4501 5.71344 0.116762L 7 40L 0 40L 1.71633 0.0953026Z"/>
<path id="path64_stroke_2x" d="M 7 40L 7 44L 11.1311 44L 10.9979 39.871L 7 40ZM 0 40L -3.99631 39.8281L -4.17574 44L 0 44L 0 40ZM 1.71552 0.245727L 3.00208 40.129L 10.9979 39.871L 9.71136 -0.0122031L 1.71552 0.245727ZM 7 36L 0 36L 0 44L 7 44L 7 36ZM 3.99631 40.1719L 5.71264 0.267187L -2.27997 -0.0765815L -3.99631 39.8281L 3.99631 40.1719ZM 9.71136 -0.0122031C 9.46296 -7.71279 -1.9489 -7.77406 -2.27997 -0.0765815L 5.71264 0.267187C 5.69442 0.690719 5.47742 1.26674 4.9729 1.69744C 4.53422 2.07194 4.06151 2.18314 3.70375 2.18122C 3.34598 2.1793 2.87449 2.06303 2.43986 1.68384C 1.94 1.24775 1.72919 0.669431 1.71552 0.245727L 9.71136 -0.0122031Z"/>
<path id="path65_fill" fill-rule="evenodd" d="M 2.5 5C 3.88071 5 5 3.88071 5 2.5C 5 1.11929 3.88071 0 2.5 0C 1.11929 0 0 1.11929 0 2.5C 0 3.88071 1.11929 5 2.5 5Z"/>
<path id="path66_fill" fill-rule="evenodd" d="M 0 4C 0 1.79086 1.79086 0 4 0L 168 0C 170.209 0 172 1.79086 172 4L 172 56L 0 56L 0 4Z"/>
<path id="path67_stroke_2x" d="M 172 56L 172 60L 176 60L 176 56L 172 56ZM 0 56L -4 56L -4 60L 0 60L 0 56ZM 4 4L 168 4L 168 -4L 4 -4L 4 4ZM 168 4L 168 56L 176 56L 176 4L 168 4ZM 172 52L 0 52L 0 60L 172 60L 172 52ZM 4 56L 4 4L -4 4L -4 56L 4 56ZM 4 -4C -0.418278 -4 -4 -0.418278 -4 4L 4 4L 4 -4ZM 168 4L 176 4C 176 -0.418278 172.418 -4 168 -4L 168 4Z"/>
<path id="path68_fill" fill-rule="evenodd" d="M 0 4C 0 1.79086 1.79086 0 4 0L 93 0C 95.2091 0 97 1.79086 97 4L 97 9C 97 11.2091 95.2091 13 93 13L 4 13C 1.79086 13 0 11.2091 0 9L 0 4Z"/>
<path id="path69_stroke_2x" d="M 4 4L 93 4L 93 -4L 4 -4L 4 4ZM 93 4L 93 9L 101 9L 101 4L 93 4ZM 93 9L 4 9L 4 17L 93 17L 93 9ZM 4 9L 4 4L -4 4L -4 9L 4 9ZM 4 -4C -0.418278 -4 -4 -0.418278 -4 4L 4 4L 4 -4ZM 93 4L 101 4C 101 -0.418278 97.4183 -4 93 -4L 93 4ZM 93 9L 93 17C 97.4183 17 101 13.4183 101 9L 93 9ZM 4 9L -4 9C -4 13.4183 -0.418278 17 4 17L 4 9Z"/>
<path id="path70_fill" fill-rule="evenodd" d="M 0 8C 0 3.58172 3.58172 0 8 0L 148 0C 152.418 0 156 3.58172 156 8L 156 195C 156 199.418 152.418 203 148 203L 8 203C 3.58172 203 0 199.418 0 195L 0 8Z"/>
<path id="path71_stroke_2x" d="M 8 4L 148 4L 148 -4L 8 -4L 8 4ZM 152 8L 152 195L 160 195L 160 8L 152 8ZM 148 199L 8 199L 8 207L 148 207L 148 199ZM 4 195L 4 8L -4 8L -4 195L 4 195ZM 8 -4C 1.37258 -4 -4 1.37258 -4 8L 4 8C 4 5.79086 5.79086 4 8 4L 8 -4ZM 148 4C 150.209 4 152 5.79086 152 8L 160 8C 160 1.37258 154.627 -4 148 -4L 148 4ZM 152 195C 152 197.209 150.209 199 148 199L 148 207C 154.627 207 160 201.627 160 195L 152 195ZM 8 199C 5.79086 199 4 197.209 4 195L -4 195C -4 201.627 1.37258 207 8 207L 8 199Z"/>
<path id="path72_fill" fill-rule="evenodd" d="M 0 0L 51 0L 51 5L 0 5L 0 0Z"/>
<path id="path73_fill" fill-rule="evenodd" d="M 0 0L 65 0L 65 5L 0 5L 0 0Z"/>
<path id="path74_fill" fill-rule="evenodd" d="M 0 0L 58 0L 58 5L 0 5L 0 0Z"/>
<path id="path75_fill" fill-rule="evenodd" d="M 17.5 35C 27.165 35 35 27.165 35 17.5C 35 7.83502 27.165 0 17.5 0C 7.83502 0 0 7.83502 0 17.5C 0 27.165 7.83502 35 17.5 35Z"/>
<path id="path76_stroke" d="M 17.5 37C 28.2696 37 37 28.2696 37 17.5L 33 17.5C 33 26.0604 26.0604 33 17.5 33L 17.5 37ZM 37 17.5C 37 6.73045 28.2696 -2 17.5 -2L 17.5 2C 26.0604 2 33 8.93959 33 17.5L 37 17.5ZM 17.5 -2C 6.73045 -2 -2 6.73045 -2 17.5L 2 17.5C 2 8.93959 8.93959 2 17.5 2L 17.5 -2ZM -2 17.5C -2 28.2696 6.73045 37 17.5 37L 17.5 33C 8.93959 33 2 26.0604 2 17.5L -2 17.5Z"/>
<path id="path77_stroke" d="M 1.7324 -1.09603C 0.951347 -1.87708 -0.314983 -1.87708 -1.09603 -1.09603C -1.87708 -0.314983 -1.87708 0.951347 -1.09603 1.7324L 1.7324 -1.09603ZM 5.2676 8.09603C 6.04865 8.87708 7.31498 8.87708 8.09603 8.09603C 8.87708 7.31498 8.87708 6.04865 8.09603 5.2676L 5.2676 8.09603ZM -1.09603 1.7324L 5.2676 8.09603L 8.09603 5.2676L 1.7324 -1.09603L -1.09603 1.7324Z"/>
<path id="path78_stroke" d="M 12.8007 2.02776C 13.5817 1.24671 13.5817 -0.0196165 12.8007 -0.800665C 12.0196 -1.58171 10.7533 -1.58171 9.97224 -0.800665L 12.8007 2.02776ZM -1.09842 10.27C -1.87947 11.051 -1.87947 12.3174 -1.09842 13.0984C -0.317376 13.8795 0.948954 13.8795 1.73 13.0984L -1.09842 10.27ZM 9.97224 -0.800665L -1.09842 10.27L 1.73 13.0984L 12.8007 2.02776L 9.97224 -0.800665Z"/>
<path id="path79_fill" fill-rule="evenodd" d="M 4 3.30693C 4 3.4934 3.92697 3.67043 3.79505 3.80261C 3.53121 4.06461 3.06949 4.06698 2.80565 3.80261L 0 0.989009L 0.989399 0L 3.79505 2.81124C 3.92697 2.94342 4 3.12045 4 3.30693Z"/>
<path id="path80_fill" fill-rule="evenodd" d="M 6.90589 26.8523L 24.0411 9.68061L 22.1819 7.81748C 22.0229 7.66072 21.8178 7.58105 21.61 7.58105C 21.4023 7.58105 21.1972 7.66072 21.0382 7.81748L 5.04671 23.8456C 4.89285 23.9972 4.81079 24.2002 4.81079 24.4161C 4.81079 24.6345 4.89285 24.8375 5.04671 24.9891L 6.90589 26.8523ZM 112.102 110.752C 113.299 111.95 113.299 113.9 112.102 115.101C 111.504 115.699 110.717 116 109.932 116C 109.148 116 108.36 115.699 107.763 115.101L 104.709 112.04L 103.842 112.908L 90.1225 106.846C 82.2217 103.354 75.1184 98.4814 69.0126 92.3626L 3.41319 26.6261C 2.82595 26.035 2.50283 25.2512 2.50283 24.416C 2.50283 23.5834 2.82595 22.7996 3.41319 22.2086L 4.01838 21.6046L 1.6771 19.2584C 0.594936 18.1765 0 16.7374 0 15.2057C 0 13.6741 0.594936 12.235 1.6771 11.1505L 8.37526 4.44068C 9.45486 3.35621 10.8909 2.76001 12.4193 2.76001C 13.9477 2.76001 15.3837 3.35621 16.4633 4.44068L 18.8046 6.78438L 19.4072 6.18303C 20.6202 4.96493 22.5973 4.96493 23.8128 6.18303L 30.7033 13.0882L 33.4677 10.3179L 24.8027 1.63442L 26.4362 0L 70.9512 44.6124C 73.5284 47.1925 77.2109 48.3541 80.7985 47.7142L 81.2011 49.9911C 80.4189 50.1299 79.6291 50.1993 78.847 50.1993C 75.3056 50.1993 71.8667 48.7987 69.3203 46.2468L 35.0987 11.9523L 32.3343 14.7226L 89.4122 71.9195C 95.518 78.0409 100.38 85.1568 103.865 93.0745L 109.912 106.823L 109.048 107.689L 112.102 110.752ZM 109.394 113.466C 109.681 113.754 110.184 113.751 110.471 113.466C 110.614 113.322 110.694 113.13 110.694 112.927C 110.694 112.724 110.614 112.531 110.471 112.387L 107.417 109.326L 106.34 110.403L 109.394 113.466ZM 81.7626 99.7201C 84.7117 101.622 87.812 103.297 91.0534 104.729L 103.326 110.154L 107.163 106.307L 101.752 94.0099C 100.324 90.7616 98.6516 87.6521 96.7514 84.6993L 81.7626 99.7201ZM 70.6435 90.7282C 73.4823 93.5731 76.5467 96.1352 79.8086 98.4069L 95.4436 82.7386C 93.1741 79.4698 90.6174 76.4014 87.7787 73.5566L 25.672 11.3176L 8.5368 28.4893L 70.6435 90.7282ZM 3.30803 17.624L 5.64931 19.9702L 17.1736 8.42138L 14.8323 6.07511C 14.1887 5.43008 13.3296 5.07288 12.4193 5.07288C 11.5063 5.07288 10.6498 5.43008 10.0062 6.07511L 3.30803 12.7875C 2.66437 13.4326 2.30792 14.2909 2.30792 15.2058C 2.30792 16.118 2.66437 16.9764 3.30803 17.624Z"/>
<path id="path81_fill" fill-rule="evenodd" d="M 15.0706 0C 16.9408 2.90005 18.6313 6.16378 20.0372 9.35409L 25.4722 21.5986L 21.6843 25.4265L 9.50716 19.8816C 6.31686 18.4757 2.90257 16.9056 0 15.0378L 15.0706 0Z"/>
<path id="path82_fill" fill-rule="evenodd" d="M 78.7204 61.8419C 81.5622 64.6838 84.5457 68.2079 86.8176 71.4734L 71.2056 86.9873C 67.9402 84.7179 64.4087 81.8378 61.5668 78.9959L 0 17.1716L 17.0367 0L 78.7204 61.8419Z"/>
<path id="path83_fill" fill-rule="evenodd" d="M 17.53 0.358765L 19.2521 2.07458L 2.11938 19.2786L 0.281128 17.4972C 0.129108 17.3477 0 17.0843 0 16.8689C 0 16.6561 0.313133 16.2677 0.465153 16.1182L 16.1511 0.358765C 16.3082 0.204211 16.6197 0 16.825 0C 17.0302 0 17.3729 0.204211 17.53 0.358765Z"/>
</defs>
</svg>
