<svg width="250" height="186" viewBox="0 0 250 186" version="1.1" xmlns="http://www.w3.org/2000/svg" xmlns:xlink="http://www.w3.org/1999/xlink">
<title>quick</title>
<desc>Created using Figma</desc>
<g id="Canvas" transform="translate(-143 99)">
<g id="quick">
<g id="Oval 7" opacity="0.1">
<use xlink:href="#path0_fill" transform="translate(143 -48)" fill="#EB665F"/>
</g>
<g id="Oval 7 Copy" opacity="0.1">
<use xlink:href="#path1_fill" transform="translate(254 -38)" fill="#FFD800"/>
</g>
<g id="Oval 7 Copy 2" opacity="0.1">
<use xlink:href="#path1_fill" transform="translate(229 -99)" fill="#38D231"/>
</g>
<g id="Page 1">
<g id="Fill 1">
<use xlink:href="#path2_fill" transform="translate(338.434 -49.2561)" fill="#FFFFFF"/>
</g>
<g id="Fill 3">
<use xlink:href="#path3_fill" transform="translate(337.56 -50.49)" fill="#393B53"/>
</g>
<g id="Fill 5">
<use xlink:href="#path4_fill" transform="translate(321.241 -66.12)" fill="#00476C"/>
</g>
<g id="Fill 7">
<use xlink:href="#path5_fill" transform="translate(353.109 -40.373)" fill="#00476C"/>
</g>
<g id="Fill 9">
<use xlink:href="#path6_fill" transform="translate(322.121 -65.2575)" fill="#FFD800"/>
</g>
<g id="Fill 11">
<use xlink:href="#path7_fill" transform="translate(320.383 -66.9899)" fill="#393B53"/>
</g>
<g id="Fill 13">
<use xlink:href="#path8_fill" transform="translate(353.985 -40.0203)" fill="#FFD800"/>
</g>
<g id="Fill 15">
<use xlink:href="#path9_fill" transform="translate(352.246 -42.2142)" fill="#393B53"/>
</g>
<g id="Fill 17">
<use xlink:href="#path10_fill" transform="translate(337.459 -83.9863)" fill="#FFFFFF"/>
</g>
<g id="Fill 19">
<use xlink:href="#path11_fill" transform="translate(337.459 -83.9862)" fill="#393B53"/>
</g>
<g id="Fill 21">
<use xlink:href="#path12_fill" transform="translate(371.647 -82.2673)" fill="#FFD800"/>
</g>
<g id="Fill 23">
<use xlink:href="#path13_fill" transform="translate(368.449 -84)" fill="#393B53"/>
</g>
<g id="Fill 25">
<use xlink:href="#path14_fill" transform="translate(334.711 -52.235)" fill="#393B53"/>
</g>
<g id="Fill 27" opacity="0.3">
<use xlink:href="#path15_fill" transform="translate(362.426 -68.8169)" fill="#38D231"/>
</g>
<g id="Fill 29">
<use xlink:href="#path16_fill" transform="translate(361.581 -69.659)" fill="#393B53"/>
</g>
<g id="Fill 31">
<use xlink:href="#path17_fill" transform="translate(296.085 -35.9095)" fill="#393B53"/>
</g>
<g id="Fill 33">
<use xlink:href="#path18_fill" transform="translate(313.565 -20.8853)" fill="#393B53"/>
</g>
<g id="Fill 35">
<use xlink:href="#path18_fill" transform="translate(293 -17.4708)" fill="#393B53"/>
</g>
</g>
<g id="Page 1">
<g id="Fill 1">
<use xlink:href="#path19_fill" transform="translate(157.815 -10.5763)" fill="#EB665F"/>
</g>
<g id="Group 5">
<g id="Fill 3">
<use xlink:href="#path20_fill" transform="translate(156 -12.3935)" fill="#393B53"/>
</g>
</g>
<g id="Fill 11">
<use xlink:href="#path21_fill" transform="translate(165.267 67.7482)" fill="#04455B"/>
</g>
<g id="Fill 12">
<use xlink:href="#path22_fill" transform="translate(166.181 67.7485)" fill="#FFFFFF"/>
</g>
<g id="Fill 13">
<use xlink:href="#path22_fill" transform="translate(166.181 67.7485)" fill="#393B53"/>
</g>
<g id="Fill 14">
<use xlink:href="#path23_fill" transform="translate(166.181 -3.87449)" fill="#FFFFFF"/>
</g>
<g id="Fill 15">
<use xlink:href="#path24_fill" transform="translate(165.267 -4.78994)" fill="#393B53"/>
</g>
<g id="Fill 16">
<use xlink:href="#path25_fill" transform="translate(226.321 -3.87449)" fill="#FFFFFF"/>
</g>
<g id="Fill 17">
<use xlink:href="#path26_fill" transform="translate(225.408 -4.78982)" fill="#393B53"/>
</g>
<g id="Fill 18">
<use xlink:href="#path27_fill" transform="translate(180.023 23.3455)" fill="#393B53"/>
</g>
<g id="Fill 19">
<use xlink:href="#path27_fill" transform="translate(180.023 33.4933)" fill="#393B53"/>
</g>
<g id="Fill 20">
<use xlink:href="#path27_fill" transform="translate(180.023 43.6412)" fill="#393B53"/>
</g>
<g id="Fill 21">
<use xlink:href="#path27_fill" transform="translate(180.023 53.7891)" fill="#393B53"/>
</g>
<g id="Fill 22">
<use xlink:href="#path28_fill" transform="translate(247.58 7.04727)" fill="#393B53"/>
</g>
<g id="Fill 23">
<use xlink:href="#path29_fill" transform="translate(240.619 23.3455)" fill="#393B53"/>
</g>
<g id="Fill 24">
<use xlink:href="#path29_fill" transform="translate(240.619 33.4933)" fill="#393B53"/>
</g>
<g id="Fill 25">
<use xlink:href="#path29_fill" transform="translate(240.619 43.6412)" fill="#393B53"/>
</g>
<g id="Fill 26">
<use xlink:href="#path29_fill" transform="translate(240.619 53.7891)" fill="#393B53"/>
</g>
<g id="Fill 28">
<use xlink:href="#path30_fill" transform="translate(235.503 -3.59467)" fill="#393B53"/>
</g>
<g id="Fill 29">
<use xlink:href="#path31_fill" transform="translate(234.621 -4.47788)" fill="#04455B"/>
</g>
</g>
<g id="Page 1">
<g id="Fill 1">
<use xlink:href="#path32_fill" transform="translate(167.928 -66.3433)" fill="#626CFA"/>
</g>
<g id="Fill 2">
<use xlink:href="#path33_fill" transform="translate(164 -68.3963)" fill="#393B53"/>
</g>
<g id="Group 15">
<g id="Fill 3">
<use xlink:href="#path34_fill" transform="translate(194 -45.5614)" fill="#ADB2FC"/>
</g>
<g id="Fill 5">
<use xlink:href="#path35_fill" transform="translate(192.147 -47.3731)" fill="#393B53"/>
</g>
<g id="Fill 9">
<use xlink:href="#path36_fill" transform="translate(182.992 -46.4755)" fill="#FFBC00"/>
</g>
<g id="Fill 11">
<use xlink:href="#path37_fill" transform="translate(181.179 -49.1201)" fill="#393B53"/>
</g>
</g>
</g>
</g>
</g>
<defs>
<path id="path0_fill" fill-rule="evenodd" d="M 60 120C 93.1371 120 120 93.1371 120 60C 120 26.8629 93.1371 0 60 0C 26.8629 0 0 26.8629 0 60C 0 93.1371 26.8629 120 60 120Z"/>
<path id="path1_fill" fill-rule="evenodd" d="M 44 88C 68.3005 88 88 68.3005 88 44C 88 19.6995 68.3005 0 44 0C 19.6995 0 0 19.6995 0 44C 0 68.3005 19.6995 88 44 88Z"/>
<path id="path2_fill" fill-rule="evenodd" d="M 11.6073 17.85L 18.2745 11.3733L 7.14182 0L 0.474545 6.47668C -0.104848 7.04 -0.161818 7.91849 0.348485 8.43955L 9.63455 17.9266C 10.1442 18.4471 11.0279 18.4133 11.6073 17.85Z"/>
<path id="path3_fill" fill-rule="evenodd" d="M 7.99998 2.46762L 1.96059 8.3351C 1.7315 8.55789 1.68059 8.89178 1.84968 9.06446L 11.1351 18.5509C 11.2212 18.6385 11.3345 18.6572 11.4145 18.6572C 11.5739 18.6572 11.7406 18.5848 11.8697 18.4586L 17.9097 12.5917L 7.99998 2.46762ZM 11.4145 20.4021L 11.4139 20.4021C 10.8248 20.4021 10.2806 20.1775 9.88119 19.7694L 0.595125 10.2829C -0.250935 9.41766 -0.187299 7.9837 0.73755 7.08528L 8.03149 0L 20.3866 12.6225L 13.0933 19.7084C 12.6327 20.1558 12.0363 20.4021 11.4145 20.4021Z"/>
<path id="path4_fill" fill-rule="evenodd" d="M 19.8862 20.2579L 2.44559 20.0671C 1.42923 20.0562 0.561955 19.4658 0.183773 18.5257C -0.195014 17.5862 0.0207431 16.5622 0.748016 15.854L 13.471 3.45368C 17.0832 -0.0675242 22.5862 -0.998543 27.1632 1.13459L 27.2353 1.1684L 26.491 2.74848L 26.4195 2.71466C 22.5007 0.888853 17.7892 1.68644 14.6959 4.70108L 1.97286 17.1014C 1.6565 17.4099 1.76802 17.7716 1.80923 17.8754C 1.85105 17.9793 2.02135 18.3168 2.46438 18.3222L 19.9056 18.513L 19.8862 20.2579Z"/>
<path id="path5_fill" fill-rule="evenodd" d="M 2.48136 26.7659C 2.15288 26.7659 1.81955 26.6989 1.49773 26.5618C 0.562577 26.1645 -0.0107561 25.2878 0.000152954 24.2753L 0.191668 6.89992L 1.94318 6.91925L 1.75167 24.2946C 1.74743 24.736 2.08258 24.9129 2.18561 24.957C 2.28924 25.0005 2.64924 25.12 2.96621 24.8115L 15.6892 12.4112C 18.7826 9.39653 19.6868 4.72151 17.9395 0.777057L 17.9074 0.705208L 19.5105 0L 19.5426 0.0724528C 21.5832 4.67864 20.5268 10.138 16.9147 13.6586L 4.19106 26.0589C 3.7147 26.5232 3.10743 26.7659 2.48136 26.7659Z"/>
<path id="path6_fill" fill-rule="evenodd" d="M 25.9844 1.0958L 25.9128 1.06259C 21.6401 -0.928652 16.5765 -0.0712931 13.2044 3.21505L 0.481321 15.6153C -0.531406 16.6025 0.158897 18.3166 1.57587 18.3323L 19.0171 18.5225L 25.9844 1.0958Z"/>
<path id="path7_fill" fill-rule="evenodd" d="M 3.69131 18.336L 19.5804 18.5099L 25.4531 3.82128C 24.6131 3.5846 23.7446 3.46506 22.858 3.46506C 20.338 3.46506 17.9586 4.4311 16.158 6.18566L 3.69131 18.336ZM 21.9283 22.0009L 3.29435 21.7968C 1.94344 21.7823 0.744649 20.9654 0.241012 19.7162C -0.262018 18.4664 0.03677 17.0506 1.00283 16.1093L 13.7265 3.70898C 16.1804 1.31683 19.4234 0 22.858 0C 24.7816 0 26.6422 0.412377 28.3871 1.22566L 29.9434 1.95321L 21.9283 22.0009Z"/>
<path id="path8_fill" fill-rule="evenodd" d="M 17.8328 0L 17.865 0.0724528C 19.7692 4.37132 18.7977 9.39592 15.4256 12.6823L 2.70253 25.0826C 1.68981 26.0697 -0.0156491 25.344 0.000108427 23.9324L 0.191018 6.55698L 17.8328 0Z"/>
<path id="path9_fill" fill-rule="evenodd" d="M 3.65657 9.95864L 3.48203 25.7878L 15.9493 13.6374C 18.4111 11.238 19.3614 7.69268 18.5232 4.43291L 3.65657 9.95864ZM 3.34081 29.4642C 2.4499 29.4642 1.57899 29.1013 0.951718 28.4697C 0.328082 27.8418 -0.00949373 27.0026 0.000203245 26.1072L 0.205052 7.54355L 20.5008 0L 21.1954 1.56619C 23.3802 6.49841 22.2493 12.3448 18.3814 16.1141L 5.65778 28.5144C 5.03051 29.1266 4.20748 29.4642 3.34081 29.4642Z"/>
<path id="path10_fill" fill-rule="evenodd" d="M 8.04619 46.2824L 0.264979 38.2075L 0.157707 37.7631C 0.0692217 37.396 -1.8629 28.6365 10.6401 16.7566C 33.1032 -5.13679 52.5577 0.61053 53.3759 0.86653L 54.2953 1.15393L 54.5153 2.08917C 54.7159 2.94291 59.185 23.2466 37.6207 44.2628C 28.7238 53.1569 21.6577 54.4255 18.3516 54.4255C 17.1316 54.4255 16.4244 54.2534 16.3256 54.2268L 15.8735 54.1085L 8.56013 46.6573L 8.04619 46.2824Z"/>
<path id="path11_fill" fill-rule="evenodd" d="M 18.3514 54.4255C 17.1314 54.4255 16.4241 54.2528 16.3253 54.2268L 15.8732 54.1085L 8.55988 46.6573L 10.9768 44.3026L 17.5738 51.0232C 19.2211 51.1832 25.9671 51.1415 35.2411 41.8706C 52.8308 24.7265 51.9496 8.04721 51.3902 3.85883C 47.3393 3.086 31.1799 1.44917 12.9884 19.179C 7.21685 24.6631 4.93563 29.2379 4.03563 32.1118C 3.33866 34.3373 3.34412 35.9041 3.40048 36.5985L 10.4847 43.9494L 8.04594 46.2824L 0.264724 38.2075L 0.157451 37.7631C 0.0695726 37.396 -1.86316 28.6365 10.6399 16.7566C 33.1035 -5.13679 52.5575 0.61053 53.3756 0.86653L 54.295 1.15393L 54.515 2.08917C 54.7156 2.94291 59.1847 23.2466 37.6205 44.2628C 28.7235 53.1569 21.6575 54.4255 18.3514 54.4255Z"/>
<path id="path12_fill" fill-rule="evenodd" d="M 16.8297 19.1581C 20.4776 8.42721 18.6806 0.754461 18.6806 0.754461C 18.6806 0.754461 11.1085 -1.60448 0 2.01997L 16.8297 19.1581Z"/>
<path id="path13_fill" fill-rule="evenodd" d="M 6.47092 4.608L 19.2146 17.5855C 20.9655 11.0303 20.6243 5.9834 20.3527 3.90762C 19.3467 3.7126 17.6218 3.46506 15.3436 3.46506C 12.4503 3.46506 9.47698 3.84845 6.47092 4.608ZM 20.7661 24.1202L 0 2.97298L 2.65697 2.10596C 6.94 0.70883 11.2085 0 15.3436 0C 19.6721 0 22.2885 0.799396 22.3982 0.833208L 23.3467 1.12906L 23.5727 2.09328C 23.6503 2.42596 25.4382 10.3746 21.6752 21.4466L 20.7661 24.1202Z"/>
<path id="path14_fill" fill-rule="evenodd" d="M 0.652027 23.8744L 0.621118 23.843C -0.220094 22.9862 -0.204943 21.6127 0.655057 20.7746L 21.3363 0.618846C 22.1963 -0.219192 23.5751 -0.204097 24.4163 0.652054L 24.4472 0.68345C 25.2884 1.5402 25.2732 2.91379 24.4132 3.75183L 3.73203 23.9082C 2.87203 24.7462 1.49324 24.7311 0.652027 23.8744Z"/>
<path id="path15_fill" fill-rule="evenodd" d="M 12.6028 12.67C 9.67492 15.5234 4.97916 15.4721 2.11492 12.5552C -0.749323 9.63841 -0.697808 4.96037 2.23007 2.10694C 5.15795 -0.746495 9.85371 -0.695175 12.7179 2.22166C 15.5822 5.13849 15.5307 9.81652 12.6028 12.67Z"/>
<path id="path16_fill" fill-rule="evenodd" d="M 8.26112 1.68392C 6.53324 1.68392 4.90172 2.34687 3.66657 3.55079C 2.41142 4.77403 1.7096 6.41026 1.69021 8.15879C 1.67142 9.90732 2.33687 11.5586 3.56415 12.8084C 4.81081 14.0782 6.4793 14.7774 8.26172 14.7774C 9.9896 14.7774 11.6217 14.1138 12.8569 12.9099C 15.4466 10.3861 15.4926 6.23275 12.9587 3.65222C 11.712 2.38309 10.0435 1.68392 8.26112 1.68392ZM 8.26172 16.4613C 6.02051 16.4613 3.92294 15.5822 2.35627 13.9858C 0.812634 12.4148 -0.0237298 10.3384 0.000512593 8.14008C 0.024755 5.94174 0.906573 3.88468 2.48415 2.34747C 4.03748 0.833811 6.089 0 8.26112 0C 10.5023 0 12.5999 0.879094 14.1672 2.47487C 17.3526 5.71894 17.2951 10.9404 14.0393 14.1138C 12.486 15.6275 10.4345 16.4613 8.26172 16.4613Z"/>
<path id="path17_fill" fill-rule="evenodd" d="M 1.23879 28.8924L 0 27.6583L 27.763 0L 29.0018 1.23411L 1.23879 28.8924Z"/>
<path id="path18_fill" fill-rule="evenodd" d="M 1.23879 28.8924L 0 27.6583L 27.7624 0L 29.0018 1.23411L 1.23879 28.8924Z"/>
<path id="path19_fill" fill-rule="evenodd" d="M 130.149 95.4461L 6.79705 95.4461C 3.0433 95.4461 0 92.3988 0 88.6394L 0 6.80667C 0 3.04727 3.0433 0 6.79705 0L 130.149 0C 133.903 0 136.945 3.04727 136.945 6.80667L 136.945 88.6394C 136.945 92.3988 133.903 95.4461 130.149 95.4461Z"/>
<path id="path20_fill" fill-rule="evenodd" d="M 8.61129 3.63455C 5.86391 3.63455 3.62909 5.87273 3.62909 8.62424L 3.62909 90.4564C 3.62909 93.2073 5.86391 95.4454 8.61129 95.4454L 131.963 95.4454C 134.71 95.4454 136.945 93.2073 136.945 90.4564L 136.945 8.62424C 136.945 5.87273 134.71 3.63455 131.963 3.63455L 8.61129 3.63455ZM 131.963 99.0806L 8.61129 99.0806C 3.86267 99.0806 0 95.2115 0 90.4564L 0 8.62424C 0 3.86848 3.86267 0 8.61129 0L 131.963 0C 136.712 0 140.575 3.86848 140.575 8.62424L 140.575 90.4564C 140.575 95.2115 136.712 99.0806 131.963 99.0806Z"/>
<path id="path21_fill" fill-rule="evenodd" d="M 122.108 10.6194L 0 10.6194L 0 0L 1.82816 0L 1.82816 8.78848L 120.281 8.78848L 120.281 0L 122.108 0L 122.108 10.6194Z"/>
<path id="path22_fill" fill-rule="evenodd" d="M 0 8.78788L 119.366 8.78788L 119.366 0L 0 0L 0 8.78788Z"/>
<path id="path23_fill" fill-rule="evenodd" d="M 59.9746 77.6067L 57.1068 73.8055C 55.5437 72.403 53.4808 71.623 51.3373 71.623L 0 71.623L 0 0L 51.5388 0C 56.1979 0 59.9746 3.61212 59.9746 8.06849L 59.9746 77.6067Z"/>
<path id="path24_fill" fill-rule="evenodd" d="M 1.82756 71.623L 52.2511 71.623C 54.6275 71.623 56.8932 72.4806 58.63 74.0388C 58.6742 74.0782 58.7141 74.1218 58.7498 74.1691L 59.9746 75.7921L 59.9746 8.98364C 59.9746 5.03939 56.5997 1.8303 52.4526 1.8303L 1.82756 1.8303L 1.82756 71.623ZM 60.8884 79.4376C 60.6076 79.4376 60.3353 79.3073 60.1592 79.0739L 57.3465 75.3455C 55.9534 74.1248 54.1476 73.4533 52.2511 73.4533L 0.913777 73.4533C 0.409082 73.4533 0 73.0436 0 72.5382L 0 0.915152C 0 0.409697 0.409082 0 0.913777 0L 52.4526 0C 57.6079 0 61.8022 4.0297 61.8022 8.98364L 61.8022 78.5224C 61.8022 78.9158 61.5516 79.2648 61.1789 79.3903C 61.0833 79.4218 60.9852 79.4376 60.8884 79.4376Z"/>
<path id="path25_fill" fill-rule="evenodd" d="M 0 77.6067L 2.86781 73.8055C 4.43152 72.403 6.49447 71.623 8.63731 71.623L 59.9746 71.623L 59.9746 0L 8.43579 0C 3.77674 0 0 3.61212 0 8.06849L 0 77.6067Z"/>
<path id="path26_fill" fill-rule="evenodd" d="M 9.34958 1.8303C 5.20188 1.8303 1.82756 5.03939 1.82756 8.98364L 1.82756 75.7921L 3.05238 74.1685C 3.08809 74.1218 3.12803 74.0782 3.1716 74.0388C 4.90899 72.4806 7.17467 71.623 9.55109 71.623L 59.9746 71.623L 59.9746 1.8303L 9.34958 1.8303ZM 0.913777 79.4376C 0.816348 79.4376 0.718313 79.4218 0.623305 79.3903C 0.250532 79.2648 0 78.9152 0 78.5218L 0 8.98364C 0 4.0297 4.1943 0 9.34957 0L 60.8884 0C 61.3937 0 61.8028 0.409697 61.8028 0.915152L 61.8028 72.5382C 61.8028 73.0436 61.3937 73.4533 60.8884 73.4533L 9.55109 73.4533C 7.65454 73.4533 5.84878 74.1248 4.45572 75.3455L 1.64298 79.0739C 1.46688 79.3073 1.19457 79.4376 0.913777 79.4376Z"/>
<path id="path27_fill" fill-rule="evenodd" d="M 0 3.53273L 32.1516 3.53273L 32.1516 0L 0 0L 0 3.53273Z"/>
<path id="path28_fill" fill-rule="evenodd" d="M 0 3.53273L 20.1007 3.53273L 20.1007 0L 0 0L 0 3.53273Z"/>
<path id="path29_fill" fill-rule="evenodd" d="M 0 3.53273L 32.1522 3.53273L 32.1522 0L 0 0L 0 3.53273Z"/>
<path id="path30_fill" fill-rule="evenodd" d="M 9.47302 20.4036L 4.59309 16.3788L 0 20.4036L 0 0L 9.47302 0L 9.47302 20.4036Z"/>
<path id="path31_fill" fill-rule="evenodd" d="M 5.45785 16.1036L 9.47303 19.4152L 9.47303 1.76667L 1.76341 1.76667L 1.76341 19.3406L 5.45785 16.1036ZM 0 23.2333L 0 0L 11.237 0L 11.237 23.1582L 5.49174 18.4206L 0 23.2333Z"/>
<path id="path32_fill" fill-rule="evenodd" d="M 81.6971 55.2257L 124.976 33.2533L 62.4882 0L 0 33.2533L 43.2794 55.2257L 81.6971 55.2257Z"/>
<path id="path33_fill" fill-rule="evenodd" d="M 66.416 0L 0 35.3444L 46.7737 59.0905L 86.0589 59.0905L 132.832 35.3444L 66.416 0ZM 7.85547 35.2688L 66.416 4.10532L 124.976 35.2688L 85.1901 55.4667L 47.6418 55.4667L 7.85547 35.2688Z"/>
<path id="path34_fill" fill-rule="evenodd" d="M 72.8314 35.2344C 72.3967 15.7023 56.4289 0 36.7799 0L 36.0515 0C 16.4031 0 0.435273 15.7023 0 35.2344L 72.8314 35.2344Z"/>
<path id="path35_fill" fill-rule="evenodd" d="M 3.75665 35.2344L 72.7818 35.2344C 72.1555 26.9525 68.579 19.2578 62.5959 13.3986C 56.1587 7.09473 47.6485 3.62319 38.6341 3.62319L 37.905 3.62319C 28.8906 3.62319 20.3804 7.09473 13.9432 13.3986C 7.95945 19.2578 4.38296 26.9525 3.75665 35.2344ZM 76.5385 38.8576L 0 38.8576L 0.0411091 37.0058C 0.262373 27.0727 4.29832 17.7698 11.4054 10.8104C 18.5251 3.83948 27.936 0 37.905 0L 38.6341 0C 48.603 0 58.014 3.83948 65.1337 10.8104C 72.2402 17.7698 76.2761 27.0727 76.4974 37.0058L 76.5385 38.8576Z"/>
<path id="path36_fill" fill-rule="evenodd" d="M 12.5068 48.6378C 12.6501 48.2892 12.7305 47.9171 12.7305 47.5292L 12.7305 47.4591C 12.7305 46.6411 12.3726 45.8991 11.7977 45.3065L 11.7977 0L 6.18692 2.17319L 6.18692 44.5452C 5.02075 45.1609 4.2433 46.2326 4.2433 47.4591L 4.2433 47.5292C 4.2433 47.9908 4.35515 48.4306 4.55404 48.8336C 1.84205 50.0461 0 52.4139 0 55.1375L 0 62.4479L 17.553 62.4479L 17.553 55.1375C 17.553 52.2538 15.4836 49.7749 12.5068 48.6378Z"/>
<path id="path37_fill" fill-rule="evenodd" d="M 3.62546 63.281L 17.553 63.281L 17.553 57.7819C 17.553 55.7622 16.0295 53.8747 13.6724 52.9745L 11.9374 52.3118L 12.6423 50.5947C 12.7015 50.4497 12.7305 50.312 12.7305 50.1736L 12.7305 50.1035C 12.7305 49.7259 12.5008 49.4106 12.3085 49.2118L 11.7977 48.685L 11.7977 5.28948L 9.81238 6.05858L 9.81238 48.2808L 8.84631 48.7913C 8.23451 49.1145 7.86937 49.6051 7.86937 50.1035L 7.86937 50.1736C 7.86937 50.3416 7.91048 50.5107 7.99269 50.6769L 8.82515 52.3637L 7.10703 53.1316C 4.95969 54.0916 3.62546 55.8733 3.62546 57.7819L 3.62546 63.281ZM 21.1784 66.9042L 0 66.9042L 0 57.7819C 0 54.891 1.59842 52.2284 4.25902 50.5542C 4.24875 50.428 4.2433 50.3011 4.2433 50.1736L 4.2433 50.1035C 4.2433 48.5961 4.95365 47.2048 6.18631 46.2188L 6.18631 3.57667L 15.4232 0L 15.4232 47.2996C 16.0289 48.14 16.356 49.1121 16.356 50.1035L 16.356 50.1736C 16.356 50.193 16.356 50.2129 16.356 50.2322C 19.3279 51.8647 21.1784 54.7019 21.1784 57.7819L 21.1784 66.9042Z"/>
</defs>
</svg>
