<svg xmlns="http://www.w3.org/2000/svg" viewBox="0 0 260 184" xmlns:xlink="http://www.w3.org/1999/xlink">
  <desc>
    Created using Figma
  </desc>
  <g transform="translate(-115 1009)">
    <mask id="b">
      <use fill="#FFF" xlink:href="#a" transform="translate(216 -1021)"/>
    </mask>
    <g mask="url(#b)">
      <mask id="e">
        <use fill="#FFF" xlink:href="#c" transform="translate(325.077 -1008.55)"/>
      </mask>
      <use fill="#DC5D2A" xlink:href="#d" transform="translate(324.428 -1008.22)" mask="url(#e)"/>
      <use fill="#DC5D2A" xlink:href="#f" transform="translate(333.802 -942.573)"/>
      <use fill="#FF8B4B" xlink:href="#g" transform="translate(275 -1008)"/>
      <use fill="#DC5D2A" xlink:href="#h" transform="translate(258 -920)"/>
      <use fill="#FF8B4B" xlink:href="#i" transform="translate(270 -905.745)"/>
      <use fill="#FF8B4B" xlink:href="#j" transform="translate(262.452 -909.25)"/>
      <use fill="#FF8B4B" xlink:href="#k" transform="translate(284 -892)"/>
      <use fill="#85252D" xlink:href="#l" transform="translate(282 -897.518)"/>
      <use fill="#BA928A" xlink:href="#m" transform="translate(289 -914)"/>
      <use fill="#EBBBA5" xlink:href="#n" transform="translate(294 -891)"/>
      <use fill="#FFD6B8" xlink:href="#o" transform="translate(288 -893.053)"/>
      <use fill="#BB414C" xlink:href="#p" transform="translate(270 -893)"/>
      <use fill="#BB414C" xlink:href="#q" transform="translate(257.51 -880.56)"/>
      <use fill="#9B2C35" xlink:href="#r" transform="translate(268 -882)"/>
      <use fill="#332B33" xlink:href="#s" transform="translate(295.082 -869.243)"/>
      <use fill="#BB414C" xlink:href="#t" transform="translate(251 -873)"/>
      <use fill="#9B2C35" xlink:href="#u" transform="translate(239 -871)"/>
      <use fill="#473B47" xlink:href="#v" transform="translate(294.184 -853.398)"/>
      <use fill="#BB414C" xlink:href="#w" transform="translate(239.003 -858.82)"/>
      <use fill="#9B2C35" xlink:href="#x" transform="translate(256 -874)"/>
      <use fill="#BB414C" xlink:href="#y" transform="translate(313 -894)"/>
      <use fill="#85252D" xlink:href="#z" transform="translate(323 -897)"/>
      <use fill="#BB414C" xlink:href="#A" transform="translate(309 -874)"/>
      <use fill="#9B2C35" xlink:href="#B" transform="translate(310.132 -882.492)"/>
      <use fill="#BB414C" xlink:href="#C" transform="translate(345 -862.573)"/>
      <use fill="#EBBBA5" xlink:href="#D" transform="translate(260 -982)"/>
      <use fill="#FFD6B8" xlink:href="#E" transform="translate(340 -936)"/>
      <use fill="#BA928A" xlink:href="#F" transform="translate(339 -933)"/>
      <use fill="#FFD6B8" xlink:href="#G" transform="translate(260 -950)"/>
      <use fill="#BA928A" xlink:href="#H" transform="translate(273 -934)"/>
      <use fill="#EBBBA5" xlink:href="#I" transform="translate(303 -915)"/>
      <use fill="#BA928A" xlink:href="#J" transform="translate(302 -918)"/>
      <use fill="#EBBBA5" xlink:href="#K" transform="translate(305 -919)"/>
      <use fill="#BA928A" xlink:href="#L" transform="translate(263 -932)"/>
      <use fill="#EBBBA5" xlink:href="#M" transform="translate(263 -931)"/>
      <use fill="#BA928A" xlink:href="#N" transform="translate(341 -932)"/>
      <use fill="#EBBBA5" xlink:href="#O" transform="translate(341 -931)"/>
      <use xlink:href="#P" transform="translate(313 -946)"/>
      <use xlink:href="#Q" transform="translate(277 -946)"/>
      <use fill="#715A72" xlink:href="#R" transform="translate(317 -992)"/>
      <use fill="#DC5D2A" xlink:href="#S" transform="translate(299 -993)"/>
      <use fill="#A88EA6" xlink:href="#T" transform="translate(317 -994)"/>
      <use fill="#DC5D2A" xlink:href="#U" transform="translate(307 -975)"/>
      <use fill="#FF8B4B" xlink:href="#V" transform="translate(260 -992.552)"/>
      <use fill="#DC5D2A" xlink:href="#W" transform="translate(331 -966)"/>
      <use fill="#DC5D2A" xlink:href="#X" transform="translate(334 -953)"/>
      <use fill="#DC5D2A" xlink:href="#Y" transform="translate(258 -975)"/>
      <use fill="#DC5D2A" xlink:href="#Z" transform="translate(290 -980)"/>
      <use fill="#DC5D2A" xlink:href="#aa" transform="translate(279 -968)"/>
      <use fill="#DC5D2A" xlink:href="#ab" transform="translate(267 -947)"/>
      <use fill="#DC5D2A" xlink:href="#ac" transform="translate(271 -967)"/>
    </g>
    <g mask="url(#b)">
      <use fill="#0A0001" xlink:href="#ad" transform="translate(284.27 -929)"/>
      <use fill="#FFF" xlink:href="#ae" transform="translate(285 -933)"/>
      <use fill="#388BBC" xlink:href="#af" transform="translate(288 -932)"/>
      <use fill="#070707" xlink:href="#ag" transform="translate(291 -929)"/>
      <use fill="#FFF" xlink:href="#ah" transform="translate(291 -929)"/>
      <use fill="#0A0001" xlink:href="#ai" transform="translate(283 -933)"/>
    </g>
    <g mask="url(#b)">
      <use fill="#0A0001" xlink:href="#ad" transform="matrix(-1 0 0 1 331.73 -929)"/>
      <use fill="#FFF" xlink:href="#ae" transform="matrix(-1 0 0 1 331 -933)"/>
      <use fill="#388BBC" xlink:href="#af" transform="matrix(-1 0 0 1 328 -932)"/>
      <use fill="#070707" xlink:href="#ag" transform="matrix(-1 0 0 1 325 -929)"/>
      <use fill="#FFF" xlink:href="#ah" transform="matrix(-1 0 0 1 325 -929)"/>
      <use fill="#0A0001" xlink:href="#ai" transform="matrix(-1 0 0 1 333 -933)"/>
    </g>
    <use fill="#93222F" xlink:href="#aj" transform="translate(299 -906)" mask="url(#b)"/>
    <use fill="#FEFEFE" xlink:href="#ak" transform="translate(301.486 -905.06)" mask="url(#b)"/>
  </g>
  <g transform="translate(-115 1009)">
    <mask id="al">
      <use fill="#FFF" xlink:href="#a" transform="translate(92 -1021)"/>
    </mask>
    <g mask="url(#al)">
      <use fill="#BB7B66" xlink:href="#am" transform="translate(169 -907)"/>
      <use fill="#5F2710" xlink:href="#an" transform="translate(161 -894)"/>
      <use fill="#5382C6" xlink:href="#ao" transform="translate(165.707 -893)"/>
      <use fill="#F0B9A0" xlink:href="#ap" transform="translate(169 -890)"/>
      <use fill="#7E9BD5" xlink:href="#aq" transform="translate(162 -892)"/>
      <use fill="#DC5D2A" xlink:href="#ar" transform="translate(158 -892)"/>
      <use fill="#FF8B4B" xlink:href="#as" transform="translate(152.583 -889)"/>
      <use fill="#DC5D2A" xlink:href="#at" transform="translate(126.03 -864.975)"/>
      <use fill="#DC5D2A" xlink:href="#au" transform="translate(145 -885)"/>
      <use fill="#FF8B4B" xlink:href="#av" transform="translate(130 -879)"/>
      <use fill="#FF8B4B" xlink:href="#aw" transform="translate(116 -852)"/>
      <use fill="#DC5D2A" xlink:href="#ax" transform="translate(220 -874)"/>
      <use fill="#FF8B4B" xlink:href="#ay" transform="translate(221 -871)"/>
      <use fill="#DC5D2A" xlink:href="#az" transform="translate(200 -892)"/>
      <use fill="#7E9BD5" xlink:href="#aA" transform="translate(196 -892)"/>
      <use fill="#556791" xlink:href="#aB" transform="translate(195 -879)"/>
      <use fill="#DA9781" xlink:href="#aC" transform="translate(168.574 -890)"/>
      <use fill="#6477A4" xlink:href="#aD" transform="translate(191 -876.69)"/>
      <use fill="#FF8B4B" xlink:href="#aE" transform="translate(205.15 -885.174)"/>
      <use fill="#556791" xlink:href="#aF" transform="translate(170 -877)"/>
      <use fill="#6477A4" xlink:href="#aG" transform="translate(171 -873)"/>
      <use fill="#7E9BD5" xlink:href="#aH" transform="translate(173.42 -859)"/>
      <use fill="#5382C6" xlink:href="#aI" transform="translate(207 -862.166)"/>
      <use fill="#5382C6" xlink:href="#aJ" transform="translate(192 -860)"/>
      <use fill="#556791" xlink:href="#aK" transform="translate(195 -845)"/>
      <use fill="#556791" xlink:href="#aL" transform="translate(207.248 -846)"/>
      <use fill="#7E9BD5" xlink:href="#aM" transform="translate(196 -860)"/>
      <use fill="#6477A4" xlink:href="#aN" transform="translate(200 -845)"/>
      <use fill="#6477A4" xlink:href="#aO" transform="translate(177 -844.403)"/>
      <use fill="#5382C6" xlink:href="#aP" transform="translate(207.954 -829.97)"/>
      <use fill="#5382C6" xlink:href="#aQ" transform="translate(197 -830)"/>
      <use fill="#7E9BD5" xlink:href="#aR" transform="translate(179.62 -829)"/>
      <use fill="#7E9BD5" xlink:href="#aS" transform="translate(201.507 -830.673)"/>
      <use fill="#FF8B4B" xlink:href="#aT" transform="translate(212 -883)"/>
      <use fill="#DC5D2A" xlink:href="#aU" transform="translate(219 -864)"/>
      <use fill="#BB7B66" xlink:href="#aV" transform="translate(216 -933)"/>
      <use fill="#F0B9A0" xlink:href="#aW" transform="translate(134 -949)"/>
      <use fill="#DA9781" xlink:href="#aX" transform="translate(146 -984)"/>
      <use fill="#DA9781" xlink:href="#aY" transform="translate(173 -936.572)"/>
      <use fill="#BB7B66" xlink:href="#aZ" transform="translate(148 -934)"/>
      <use fill="#DA9781" xlink:href="#ba" transform="translate(179 -916)"/>
      <use fill="#BB7B66" xlink:href="#bb" transform="translate(178 -918)"/>
      <use fill="#EBBBA5" xlink:href="#bc" transform="translate(182 -919)"/>
      <use fill="#DA9781" xlink:href="#bd" transform="translate(219 -932)"/>
      <use fill="#BB7B66" xlink:href="#be" transform="translate(218 -933)"/>
      <use fill="#BB7B66" xlink:href="#bf" transform="translate(138 -933)"/>
      <use fill="#DA9781" xlink:href="#bg" transform="translate(138 -932)"/>
      <use xlink:href="#bh" transform="translate(157.548 -935.477)"/>
      <use fill="#E6DFDD" xlink:href="#bi" transform="translate(158 -933.715)"/>
      <use fill="#FFF7F5" xlink:href="#bj" transform="translate(159.99 -931.747)"/>
      <use fill="#7F5757" xlink:href="#bk" transform="translate(163 -931)"/>
      <use xlink:href="#bl" transform="translate(164 -930)"/>
      <use fill="#FFF" xlink:href="#bm" transform="translate(165 -929)"/>
      <use xlink:href="#bh" transform="matrix(-1 0 0 1 208.452 -935.477)"/>
      <use fill="#E6DFDD" xlink:href="#bi" transform="matrix(-1 0 0 1 208 -933.715)"/>
      <use fill="#FFF7F5" xlink:href="#bj" transform="matrix(-1 0 0 1 206.01 -931.747)"/>
      <use fill="#7F5757" xlink:href="#bk" transform="matrix(-1 0 0 1 203 -931)"/>
      <use xlink:href="#bl" transform="matrix(-1 0 0 1 202 -930)"/>
      <use fill="#FFF" xlink:href="#bm" transform="matrix(-1 0 0 1 201 -929)"/>
      <use xlink:href="#bn" transform="translate(190 -947)"/>
      <use xlink:href="#bo" transform="translate(153 -947)"/>
      <use fill="#BB7B66" xlink:href="#bp" transform="translate(173 -907)"/>
      <use fill="#BB7B66" xlink:href="#bq" transform="translate(181 -898)"/>
      <use fill="#E7E0DA" xlink:href="#br" transform="translate(177 -905)"/>
      <use fill="#F3F0ED" xlink:href="#bs" transform="translate(177.32 -904.34)"/>
      <use fill="#6D4949" xlink:href="#bt" transform="translate(187 -996)"/>
      <use fill="#805858" xlink:href="#bu" transform="translate(128 -1003)"/>
      <use fill="#6D4949" xlink:href="#bv" transform="translate(169 -969)"/>
      <use fill="#6D4949" xlink:href="#bw" transform="translate(146 -973)"/>
      <use fill="#6D4949" xlink:href="#bx" transform="translate(159 -970)"/>
      <use fill="#6D4949" xlink:href="#by" transform="translate(134 -953)"/>
    </g>
  </g>
  <defs>
    <path id="a" fill-rule="evenodd" d="M0 0h180v196H0V0z"/>
    <path id="c" fill-rule="evenodd" d="M0 0h40.674v118.325H0V0z"/>
    <path id="d" fill-rule="evenodd" d="M0 .403c9.432 3.974 18.214 12.537 25.878 25.25 6.316 14.29 9.606 30.97 10.392 49.713l-2.772 23.29-4.854 20.068c12.267-24.383 15.824-51.206 9.227-79C29.93 12.722 19.83-.386 7.53.404 5.084-.302 2.133.064 0 .404z"/>
    <path id="f" fill-rule="evenodd" d="M13.848 34.63l-1.65.828C.908 57.795-1.292 73.423.608 81.598c1.818 2.923 4.026 5.563 6.68 7.975-3.157-8.656-3.157-17.57 0-26.736 8.917-18.024 14.535-33.407 16.91-46.18-.195-4.57-2.082-12.485-3.09-16.657-.726 10.785-3.57 24.24-7.873 34.63h.613z"/>
    <path id="g" fill-rule="evenodd" d="M73.052 101.37l.14-.51c4.325-10.36 6.853-20.92 7.584-31.676 1.01 4.16 1.63 8.492 1.825 13.05.57 13.502-2.49 28.646-9.21 45.46 1.8-2.972 3.46-6 5-9.03L83.47 98.2 86 74.874c-.786-18.825-4.325-35.385-10.644-49.737C67.688 12.37 59.122 3.99 49.686 0 43.028.963 38.17 6.88 35.108 17.72L1.432 81.526C.955 83.93.478 86.31 0 88.716l20.475 23.92c.14-.567.28-1.133.42-1.67l32.497-6.99c-.927 9.905-.702 20.21.702 30.94.955 4.44 2.556 8.46 4.803 12.084-1.91-8.152 2.808-23.353 14.155-45.63z"/>
    <path id="h" fill-rule="evenodd" d="M24.78 25.57L12.798 59.81c-1.07 5.397-2.25 10.793-3.544 16.19 8.354-15.115 14.57-31.163 18.593-48.142l3.543 4.35-5.288 14.154c-.31 1.498-.647 2.995-1.012 4.493C30.968 43.283 35.272 34.3 38 23.873L17.495 0c-.787 3.645-1.603 7.26-2.447 10.905l2.757 3.222-13.023 32.8c-1.49 4.55-3.094 9.1-4.782 13.62C7.173 47.577 13.417 32.83 18.733 16.33c.197-.593.393-1.214.59-1.836L24.78 25.57z"/>
    <path id="i" fill-rule="evenodd" d="M13.305 11.742L7.217 0C7.02.617 6.14 1.98 5.944 2.568 4.817 16.96 2.844 31.352 0 45.745l13.305-34.003z"/>
    <path id="j" fill-rule="evenodd" d="M13.86 3.543L10.802 0C7.91 12.085 3.932 25.174 0 37.09L13.86 3.542z"/>
    <path id="k" fill-rule="evenodd" d="M0 19L5 4.467 1.65 0C1.674 6.352 1.143 12.676 0 19z"/>
    <path id="l" fill-rule="evenodd" d="M6.943 5.85L7.523 0 0 4.746c1.216 4.708 3.19 8.965 5.92 12.772L6.942 5.85z"/>
    <path id="m" fill-rule="evenodd" d="M.34 16.88L0 21.725c7.584 4.564 15.452 6.16 23.632 4.815 3.41-.56 6.874-1.624 10.368-3.192V2.352L1.477 0 .34 16.88z"/>
    <path id="n" fill-rule="evenodd" d="M2.187 20.746L0 16.563c.227 1.713.455 3.453.654 5.277l4.146.955L9.6 37l6.988-14.71c.568-3.678 1.334-6.176 2.328-7.467 4.176-2.5 7.528-5.165 10.084-8.058V0c-3.494 1.572-6.96 2.64-10.367 3.2L9.63 29.393l-3.78-7.468-3.663-1.18z"/>
    <path id="o" fill-rule="evenodd" d="M7.842 23.412l3.6 1.18 4.184 7.88L25.44 4.836C17.403 6.182 8.474 4.573 1.023 0L0 13.117c1.647 2.188 3.544 4.236 5.693 6.116l2.15 4.18z"/>
    <path id="p" fill-rule="evenodd" d="M12.304 0L0 8.588l.47 2.582 4.957 27.563c4.866-10.02 11.958-16.59 19.506-19.366-2.13-1.88-4.942-4.464-6.574-6.653C15.56 8.924 13.55 4.687 12.3 0z"/>
    <path id="q" fill-rule="evenodd" d="M11.534 0L0 6.535c7.304 28.533 15.778 75.8 34.775 102.368 1.683-23.197 3-70.453-1.66-92.484-5.534 1.9-10.842 6.46-16.006 13.62C14.4 19.82 12.18 10.19 10.55 0h.976z"/>
    <path id="r" fill-rule="evenodd" d="M2.453 0L0 1.475c1.626 10.18 3.822 20.387 6.532 30.595 5.162-7.145 10.525-11.682 16.058-13.582 2.767 22.742 3.13 67.96 1.45 91.126.94 2.212 1.23 1.775 2.17 3.987.94-12.7 2.4-44.1 2.655-55.01.4-17.58-.085-32.66-1.483-45.51-.2-1.84-.428-3.6-.656-5.33-7.786 2.81-14.204 9.24-19.224 19.37L2.452 0z"/>
    <path id="s" fill-rule="evenodd" d="M4.007 1.2L0 0c1.372 12.765 1.767 28 1.375 45.273l3.5-27.926 6.44 8.172 2.858 79.18-1.737 4.14c.812 1.69 1.625 3.38 2.465 5.04 1.18-.2 2.36-.37 3.53-.51.73-.09 1.46-.17 2.19-.25 12.02-1.22 23.47.14 34.31 4.11L53.47 108c.33-.197.67-.366 1.03-.535l-1.38-4.453-.475-1.55c-10.95 1.72-22.516 2.48-34.726 2.283l-.11-3.69-3.11-89.33c.08-2 .22-3.803.39-5.467.14-1.69-.2-3.905 0-5.258L8.56 14.345 4.008 1.2z"/>
    <path id="t" fill-rule="evenodd" d="M0 2.723c3.44 20.225 9.01 40.052 16.66 59.425L8.84 108.98c1.11.397 2.247.765 3.384 1.106 6.652 2.07 13.22 3.375 19.7 3.914l2.837-17.99C21.01 64.127 11.07 32.223 5.18 0L0 2.723z"/>
    <path id="u" fill-rule="evenodd" d="M12.388 0c-1.22 4.027-2.353 8.14-3.402 12.336 3.005 16.024 7.654 31.936 13.92 47.68L20.21 92.12c-7.54.817-14.287 3.24-20.212 7.24l.085 4.673c6.32-4.618 12.67-7.35 18.993-8.167l-2.21 10.786 3.344 1.916-1.417 7.716c-7.37 2.056-12.728 4.112-16.074 6.17.99 1.885 2.12 3.715 3.4 5.546 1.41-1.52 2.89-2.816 4.39-3.886 3.37-2.394 6.97-3.634 10.77-3.69l2.43-10.25.85-3.577c-1.14-.34-2.27-.705-3.38-1.1L29 59.002C21.375 39.767 15.818 20.08 12.388 0z"/>
    <path id="v" fill-rule="evenodd" d="M1.66 29.477C1.4 40.584.95 71.35 0 84.043c4.146 9.52 5.374 11.05 10.038 20.43l6.983-2.735-4.8-93.035L5.5 0 1.66 29.477z"/>
    <path id="w" fill-rule="evenodd" d="M23.254 47.694C16.978 31.956 12.284 16.02 9.272 0 2.768 25.987-.435 55.808.047 87.82c5.937-3.997 12.697-6.418 20.252-7.235l2.95-32.89z"/>
    <path id="x" fill-rule="evenodd" d="M1.677 0L0 1.02c5.786 32.145 15.457 64.12 28.985 95.927l-2.04 17.798c2.207.17 4.387.255 6.568.255L36 101.927C20.935 69.13 9.475 35.145 1.677 0z"/>
    <path id="y" fill-rule="evenodd" d="M24 9.203L15.41 0c-.93 3.412-2.734 6.63-5.41 9.622-2.535 2.882-5.86 5.54-10 8.03C6.62 21.118 11.803 27.244 15.493 36c4.79-8 7.578-16.252 8.366-24.756.05-.67.11-1.342.14-2.04z"/>
    <path id="z" fill-rule="evenodd" d="M0 0v13c2.474-3.03 4.357-5.773 5.216-9.23L0 0z"/>
    <path id="A" fill-rule="evenodd" d="M.397 10.24c-.17 1.67-.312 3.486-.397 5.5l3.154 89.913c10.995 1.19 21.252-.68 30.77-5.645l-1.59-25.555C33.868 51.593 36.766 28.73 41 5.843L30.743 0c-2.557 8.395-6.564 16.507-11.99 24.364C11.705 9.954 5.596 5.247.396 10.24z"/>
    <path id="B" fill-rule="evenodd" d="M.063 18.543c5.125-4.967 11.287 1.322 18.232 15.66 5.35-7.818 8.954-16.815 11.474-25.17l9.69 5.9c-4.17 22.777-7.29 45.563-8.8 68.312l1.61 24.783c-9.39 4.94-18.66 6.646-29.49 5.46l.11 3.698c12.21.198 23.77-.565 34.72-2.286 1.06-.198 2.13-.367 3.19-.536l-5.85-33.756c1.65-20.01 4.98-40.05 9.99-60.06 6.41 29.295 9.74 60.003 10 92.122-5.63.65-11.23 1.92-16.86 3.783l1.37 4.46c5.74-2.965 11.23-4.178 16.47-3.586.47 7.536-.39 13.774-2.55 18.713l-7.51 2.963c.53 1.355 1.04 2.71 1.46 4.065 3.27-1.89 6.52-2.286 9.8-1.186.98.31 1.93.762 2.91 1.355 3.14-7.762 4.62-15.55 4.48-23.313-1.59-.818-3.25-1.468-4.9-1.92C61 73.664 56.85 38.414 47.14 12.22L26.61 0c-.783 8.58-3.555 15.736-8.317 23.808C14.625 14.974 9.363 9.415 2.78 5.916 1.8 7.214.623 10.472.063 14.17c-.196 1.354.14 2.68 0 4.373z"/>
    <path id="C" fill-rule="evenodd" d="M10 0C4.986 20.03 1.653 40.662 0 60.693l5.855 33.79c-1.065.17-2.13.338-3.194.536l.48 1.55c5.63-1.87 12.38-3.12 18.01-3.77C20.9 60.65 16.42 29.89 10.01.57V0z"/>
    <path id="D" fill-rule="evenodd" d="M83.103 50.666c-.395.45-.79.93-1.213 1.467-1.128 1.438-2.284 3.13-3.47 5.078.846-2.87 2.144-5.5 3.92-7.87C86.997 16.59 75.375.15 47.476 0 21.186-.14 9.506 15.997 12.44 48.41c2.426 2.933 3.893 5.867 4.428 8.8-1.438-2.34-2.82-4.315-4.146-5.924-.762-.93-1.523-1.75-2.256-2.454-.62-.592-1.24-1.1-1.834-1.523-3.075-2.21-5.868-2.18-8.322.11-.113.14-.226.28-.31.42 3.13-1.21 6.43-.14 9.9 3.16l9.057 10.21 5.246 7.64-1.833-10.29 5.16 3.69c-1.16-7.45-1.27-14.9-.397-22.35 4.033 5.19 8.21 8.83 12.524 10.92v-9.19c4.965 4.26 9.93 6.97 14.895 8.1-.31-6.01.62-12.02 2.764-18.03L73.31 46.06c1.44 7.844.395 16.39-3.13 25.67C64.26 84.6 54.923 90.895 42.2 90.61c4.824.706 9.507.452 14.048-.76l2.145-.593c3.243-.874 6.826-3.667 10.72-8.322 2.058-2.454 4.822-6.347 8.292-11.623.45-.704.902-1.41 1.382-2.143.14-.2.282-.43.423-.65 4.062.81 7.73-.48 11.03-3.84 5.472-7.48 7.052-12.56 4.71-15.26-.592-.54-1.184-.96-1.805-1.24 1.27 3.81.818 7.56-1.41 11.25-2.567 4.37-5.305 6.57-8.237 6.63l-3.244-2.46 2.85-10.95z"/>
    <path id="E" fill-rule="evenodd" d="M6.596 1.587c-1.19.802-2.412 1.88-3.66 3.29L0 15.597 3.34 18c3.024-.056 5.842-2.21 8.487-6.493 2.295-3.62 2.76-7.295 1.453-11.025-2.035-.91-4.272-.524-6.684 1.105z"/>
    <path id="F" fill-rule="evenodd" d="M3.54 2.84C3.682 1.863 3.855.916 4 0 2.187 2.408.863 5.075 0 8c1.21-1.978 2.388-3.7 3.54-5.16z"/>
    <path id="G" fill-rule="evenodd" d="M58.304 0c-2.154 6.018-3.09 12.035-2.777 18.053-4.988-1.13-9.976-3.842-14.964-8.108v9.21c-4.336-2.09-8.53-5.735-12.582-10.934-.87 7.46-.76 14.92.4 22.38l-5.18-3.7 1.85 10.31-5.27-7.65-9.1-10.22c-3.49-3.31-6.8-4.38-9.95-3.17-1.84 2.8-.14 7.74 5.07 14.86 3.29 3.37 6.97 4.67 11.08 3.85l1.45 2.8c2.21 4.07 4.68 7.66 7.4 10.77 4.23 4.81 8.76 8.08 13.61 9.81 1.27.31 2.52.57 3.8.76 12.78.29 22.16-6.01 28.117-18.9 3.54-9.29 4.59-17.85 3.144-25.71L58.3 0z"/>
    <path id="H" fill-rule="evenodd" d="M0 0c.076.952.153 1.933.255 2.942C1.452 4.587 2.7 6.605 4 9c-.484-3-1.81-6-4-9z"/>
    <path id="I" fill-rule="evenodd" d="M3.534 2.243c.655.45 1.31.7 1.966.757.655-.085 1.31-.337 1.965-.757.6-.477 1.34-.673 2.28-.533.883.028 1.282-.365 1.254-1.234-.77.45-1.8.59-3.02.45-1.89.532-3.71.476-5.48-.14C1.51.868.68.588 0 0v.476c-.027.87.372 1.262 1.255 1.234.94-.14 1.68.056 2.28.533z"/>
    <path id="J" fill-rule="evenodd" d="M6 5.554c-.65-.057-1.302-.307-1.952-.754-.595-.474-1.33-.67-2.264-.53C.907 4.297.51 3.906.54 3.04V1.703C.623.42 1.387.167 2.886.923 1.076-.505.114-.28.03 1.616L0 3.293C-.026 4.55.54 5.023 1.7 4.66c.96-.14 1.782.14 2.46.782.567.335 1.132.53 1.727.558h.226c.594-.028 1.16-.223 1.726-.558.67-.642 1.5-.92 2.46-.782 1.16.363 1.72-.11 1.7-1.367l-.03-1.675C11.88-.28 10.92-.502 9.11.92c1.5-.753 2.263-.5 2.348.782v1.34c.03.865-.366 1.256-1.243 1.227-.933-.14-1.67.05-2.264.53-.65.41-1.3.67-1.95.75z"/>
    <path id="K" fill-rule="evenodd" d="M5 1C3.43-.313 1.782-.343 0 .97 1.755.212 3.43.212 5 1z"/>
    <path id="L" fill-rule="evenodd" d="M2.704.09C1.9-.05 1.276-.03.85.173c-.468.2-.758.604-.824 1.19-.157 1.027.402 2.7 1.652 5.058.022.04.067.08.133.11.07.02.12 0 .18-.02.05-.02.09-.06.12-.1.02-.06 0-.12-.02-.16-.06-.1-.11-.22-.15-.32C.83 3.84.34 2.33.45 1.4.517.98.695.697 1.03.536c.38-.162.893-.182 1.585-.04h-.022c3.147.947 6.072 3.708 8.773 8.304-1.005-.142-1.72.1-2.1.725-.4.585-.468 1.572-.222 2.963.022.1.045.222.067.343.03.06.05.11.12.15.05.02.09.04.16.02s.11-.04.16-.08c.03-.06.05-.1.03-.16-.31-1.43-.27-2.44.11-3.02.36-.54 1.05-.68 2.06-.46.05 0 .09 0 .16-.02.05-.02.09-.06.11-.12.03-.06 0-.1-.02-.14C9.14 4.04 6.06 1.1 2.73.11L2.703.09z"/>
    <path id="M" fill-rule="evenodd" d="M8.888 9.06c.382-.622 1.1-.86 2.112-.722C8.282 3.775 5.34 1.034 2.172.094h.022C1.498-.046.982-.026.6.134c-.337.16-.517.44-.584.86-.113.92.38 2.42 1.482 4.483.337-2.502 1.573-2.782 3.706-.8l2.898 3.04C7.047 9 7.226 10.42 8.664 12c-.248-1.38-.18-2.36.224-2.94z"/>
    <path id="N" fill-rule="evenodd" d="M9.295.09c.804-.14 1.43-.12 1.853.082.47.2.76.604.827 1.19.155 1.027-.402 2.7-1.653 5.058-.022.04-.067.08-.134.102-.067.02-.11 0-.178-.02-.045-.02-.09-.06-.112-.1-.022-.062 0-.122.023-.163.07-.11.12-.23.16-.33 1.09-2.07 1.58-3.58 1.47-4.51-.06-.43-.24-.71-.58-.87-.38-.16-.89-.18-1.58-.04h.03C6.26 1.44 3.34 4.2.64 8.8c1-.142 1.72.1 2.093.725.41.585.47 1.572.23 2.963l-.063.343c-.03.06-.05.1-.12.14-.046.02-.09.04-.157.02s-.11-.04-.157-.08c-.02-.06-.044-.1-.02-.16.31-1.43.266-2.44-.113-3.03-.35-.54-1.042-.68-2.046-.46-.044 0-.09 0-.155-.02-.046-.02-.09-.06-.11-.12-.025-.06 0-.1.02-.14C2.87 4.04 5.95 1.1 9.275.11L9.3.09z"/>
    <path id="O" fill-rule="evenodd" d="M2.11 9.06c-.38-.622-1.1-.86-2.11-.722C2.718 3.775 5.66 1.034 8.828.094h-.022c.696-.14 1.213-.12 1.595.04.34.16.52.44.59.86.12.92-.38 2.42-1.48 4.483-.33-2.502-1.57-2.782-3.7-.8l-2.9 3.04C3.96 9 3.78 10.42 2.34 12c.245-1.38.18-2.36-.227-2.94z"/>
    <path id="P" fill-rule="evenodd" d="M4.505 1.556c-1.56.09-3.06-.213-4.505-.908.906 1.966 2.295 3.297 4.165 3.932C11.617.558 18.22 1.374 24 7 19.89.133 13.402-1.68 4.505 1.556z"/>
    <path id="Q" fill-rule="evenodd" d="M19.495 1.556c1.558.09 3.06-.213 4.505-.908-.907 1.966-2.296 3.297-4.165 3.932C12.382.558 5.78 1.374 0 7 4.11.133 10.598-1.68 19.495 1.556z"/>
    <path id="R" fill-rule="evenodd" d="M.28 0C.17.14.084.31 0 .508 18.796 4.998 28.937 16.18 30.45 34c3.22-4.942 4.257-9.122 3.08-12.482-.42 1.836-1.372 3.813-2.885 5.987C28.375 12.765 18.235 3.587.28 0z"/>
    <path id="S" fill-rule="evenodd" d="M17.232.926c-1.406-.34-2.84-.623-4.33-.878C8.292-.094 3.992.076 0 .586c20.127 3.767 33.62 11.33 40.45 22.69 3.627 6.4 5.594 12.433 5.875 18.127.338 14.502-1.602 25.89-5.79 34.13-.084 4.56-.59 9.717-1.462 15.467 5.313-14.19 8.18-29.345 8.63-45.405.365-3.937.394-7.62.084-11.076C46.27 16.64 36.094 5.43 17.232.92z"/>
    <path id="T" fill-rule="evenodd" d="M4.142.296C2.224-.354.862.07 0 1.51 17.82 5.093 27.885 14.266 30.136 29c1.502-2.174 2.447-4.15 2.864-5.984-.083-.254-.167-.48-.278-.705C27.718 11.11 18.182 3.77 4.142.3z"/>
    <path id="U" fill-rule="evenodd" d="M7.576 9.572L8 0C1.663 11.965-.91 23.9.284 35.81c1.43 1.14 2.943 2.193 4.56 3.19-.928-9.287-.08-18.802 2.493-28.545.08-.313.16-.598.24-.883z"/>
    <path id="V" fill-rule="evenodd" d="M54.842 17.39l-.673 9.58c-.09.283.75.623.67.935 5.02 9.295 10.33 16.978 15.95 23.072 2.62-5.64 4.6-13.803 5.73-24.008 1.55 9.21 1.49 17.31.02 23.81 1.24 4.62 1.64 9.15 1.21 13.69 2.71-6.38 4.8-14.63 6.24-24.69.56 10.74-.85 20.12-4.21 28.14.28 2.32.39 4.87.34 7.62 4.2-8.25 6.15-19.64 5.81-34.15-.28-5.7-2.26-11.74-5.9-18.14C73.19 11.89 60.12 3.77 39.9 0 18.53 2.693 4.885 15.036 0 35.926c3.474-7.284 7.823-11.974 16.012-17.048l-3.97 4.378c-.704 1.163-1.593 2.608-2.186 3.713-6.89 12.55-7.512 24.26-3.276 35.14-.226-5.59.875-10.97 3.276-16.13v5.98c1.61 8.93 4.35 15.87 8.218 20.83-4.067-9.19-6.354-18.2-6.835-27.02.39-6.72 1.04-12.08 2.99-18.82-1.05 11.11.53 19.19 3.61 27.01.45 1.16.96 2.29 1.52 3.4-.14-15.56 1.19-25.6 5.4-31.8-.09 2.49-.23 3.88 0 6.12.76 8.5 5.24 15.81 9.96 21.42-3.08-6.27-5.17-15.9-4.75-28.74.82-4.68 2.4-8.54 4.74-11.62-1.95 8.58-1.95 16.15 0 22.76 2.03 7 6.24 12.86 12.59 17.6-1.26-11.84 1.48-23.72 8.22-35.62l-.71-.12z"/>
    <path id="W" fill-rule="evenodd" d="M5.868 23.616c0-.056 0-.084.03-.113C7.4 17.026 7.37 9.193 5.78 0 4.625 10.182 2.688 18.073 0 23.7c1.474 1.557 2.948 2.97 4.48 4.3.55-1.386 1.013-2.828 1.388-4.384z"/>
    <path id="X" fill-rule="evenodd" d="M3.78 24.39C3.368 28.928 2.1 33.464 0 38c2.346-3.108 4.25-6.524 5.77-10.193C9.052 19.882 10.433 10.613 9.88 0c-1.408 9.94-3.45 18.09-6.1 24.39z"/>
    <path id="Y" fill-rule="evenodd" d="M12.187 9.56c.58-1.102 1.246-2.234 1.938-3.394L19 0C10.968 5.063 5.235 11.23 1.828 18.498.942 22.373.332 26.53 0 31c1.44-8.57 5.512-15.726 12.187-21.44z"/>
    <path id="Z" fill-rule="evenodd" d="M4.883 0C2.51 3.076.91 6.915.08 11.57c-.43 12.788.884 22.27 4 28.508C5.282 41.488 6.6 42.788 8 44c-2.144-7.113-3.174-14.225-3.117-21.337C2.91 16.087 2.91 8.553 4.883 0z"/>
    <path id="aa" fill-rule="evenodd" d="M6 7.15C5.786 4.9 5.706 2.507 5.786 0 1.8 6.24-.127 17.18.006 32.818c1.017 2.194 2.22 4.273 3.64 6.182C1.05 28.146 1.85 17.55 6 7.15z"/>
    <path id="ab" fill-rule="evenodd" d="M3 6.06V0C.82 5.226-.18 10.682.026 16.338.77 18.578 1.77 20.788 3 23 1.82 17.343 1.82 11.715 3 6.06z"/>
    <path id="ac" fill-rule="evenodd" d="M6.606 47.417C7.942 49.21 9.39 50.72 11 52c-3.085-7.827-4.64-15.654-4.613-23.48C3.412 20.663 2.402 11.156 3.412 0 1.53 6.774.382 13.547 0 20.293c.464 8.852 2.675 17.903 6.606 27.124z"/>
    <path id="ad" fill-rule="evenodd" d="M12.222 5.76C15.612 3.83.95-1.573.112.445c-1.168 5.317 6.965 8.25 12.11 5.317z"/>
    <path id="ae" fill-rule="evenodd" d="M7.057 10.928C2.437 10.408 0 6.955 0 2.518 0 1.33 2.452 1.098 6.16.298 7.08.1 8.006-.07 9.084.03c.595.05 1.482.29 1.95.466 3.597 1.348 4.184 5.863 4.184 5.863-.002 0-2.258 5.23-8.163 4.57z"/>
    <path id="af" fill-rule="evenodd" d="M9.997 5c.095 2.76-1.82 5.004-5 5C1.87 9.996 0 7.762 0 5 0 2.24 1.955.09 4.998.003c2.76-.077 4.896 2.018 5 5z"/>
    <path id="ag" fill-rule="evenodd" d="M4 2c.01 1.104-.894 2-1.996 2C.902 4 .106 3.1.008 2-.098.808.902 0 2.004 0 3.106 0 3.988.652 4 2z"/>
    <path id="ah" fill-rule="evenodd" d="M2 1c.005.552-.447 1-.998 1-.55 0-.95-.45-.998-1-.052-.596.447-1 .998-1 .55 0 .992.326.998 1z"/>
    <path id="ai" fill-rule="evenodd" d="M17 4.857s-3.492-3.073-7.264-2.88C5.312 2.2.08 5.22.01 4.987-.12 4.55.913 2.24 4.74.75 7.357-.266 14.82-1.22 17 4.858z"/>
    <path id="aj" fill-rule="evenodd" d="M17.352 0s-1.647 3.157-4.016 4.393C11.388 5.41 9.513 5.71 8.676 5.67c-.84.04-2.362-.263-4.31-1.277C1.996 3.158 0 .01 0 .01s2.916.985 8.675.98C14.435.988 17.352 0 17.352 0z"/>
    <path id="ak" fill-rule="evenodd" d="M6.192 2.23C2.485 2.232.12.088 0 .006 1.296.113 11.087.106 12.38 0c-.12.08-2.48 2.23-6.187 2.23z"/>
    <path id="am" fill-rule="evenodd" d="M30.947 0L0 1.832.44 12.79 0 14.592v2.638c7.393 3.043 15.75 4.14 23.23 2.75 2.95-.56 5.76-1.51 8.74-2.75.03-.5-.088-1.545-.06-2.048.03-.206.03-.383.06-.59.058-1.33.03-2.718-.06-4.106L30.948 0z"/>
    <path id="an" fill-rule="evenodd" d="M4.947 1.868L8 1.386 7.94 0 0 2.29C.336 3.403.64 4.307.977 5l3.97-3.132z"/>
    <path id="ao" fill-rule="evenodd" d="M3.124 0L0 1.055C.877 2.6 2.104 4.795 3.208 6.25l.54-3.125L3.125 0z"/>
    <path id="ap" fill-rule="evenodd" d="M.09 2.198c.147.21.326.393.474.603 6.032 5.64 13.923 9.63 21.738 12.13 1.604-3.22 1.705-7.64.992-12.73C15.687 3.62 7.517 3.1 0 0l.09 2.198z"/>
    <path id="aq" fill-rule="evenodd" d="M7.045 4.298C5.88 2.914 4.805 1.47 3.88 0L0 3c3.104 6.664 5.85 13.644 8.27 21 3.91-6.49 7.82-9.433 11.73-8.885-5.015-3.057-9.164-6.46-12.477-10.24-.15-.202-.33-.375-.478-.577z"/>
    <path id="ar" fill-rule="evenodd" d="M4.37 2.622c-.322-.67-.615-1.545-.938-2.622C2.258.96 1.115 1.894 0 2.797c11.294 23.16 17.982 51.914 20.035 86.26 1.907 30.65.528 58.85-4.136 84.632l3.75 1.31c.26-1.23.5-2.45.73-3.7.79-4.34 1.49-8.74 2.11-13.2.52-3.99.96-8.04 1.35-12.12.26-3.12.49-6.26.7-9.44.23-4.55.38-9.15.44-13.78.03-4.52-.03-9.09-.18-13.72-.09-2.8-.24-5.63-.38-8.45-.06-2.36-.15-4.72-.27-7.05-.21-4.14-.47-8.22-.79-12.21-.44-5.28-.97-10.46-1.65-15.5-.68-4.98-1.47-9.82-2.35-14.57-1.03-5.39-2.2-10.66-3.52-15.76-.74-2.74-1.47-5.45-2.26-8.1-.38-1.2-.74-2.39-1.12-3.58C10.1 16.4 7.4 9.35 4.35 2.62z"/>
    <path id="as" fill-rule="evenodd" d="M0 4.276C14.713 37.216 19.96 78.15 17.18 127.91c-.712 17.11-.836 30.642-2.672 40.73l6.898 2.36c4.707-25.8 6.098-54.017 4.174-84.684C23.508 51.946 16.758 23.176 5.36 0 3.675 1.312 1.6 3.08 0 4.276z"/>
    <path id="at" fill-rule="evenodd" d="M4.4 0L0 14.1l8.224 18.018-.58 43.876c.235 13.584 3.023 27.537 8.604 40.307L0 127.3l4.4 3.14 14.914-11.343 3.72 9.308-12.58 11.723 1.772 2.85L14.618 141l14.352-11.93c-2.244-4.188-4.252-8.435-6.024-12.77-5.227-12.827-7.146-26.17-8.476-40.306l1.034-44.458L4.4 0z"/>
    <path id="au" fill-rule="evenodd" d="M7.64 0C4.974 1.983 2.43 3.967 0 5.95c15.424 28.036 22.535 66.106 21.305 114.154 1.142 19.4-.907 32.323-6.174 38.828 1.03 1.663 2.08 3.297 3.19 4.93L21.57 165c1.814-10.094 3.072-23.717 3.775-40.842C28.095 74.36 22.185 32.965 7.64 0z"/>
    <path id="av" fill-rule="evenodd" d="M15.41 0C9.65 4.668 4.502 9.336 0 14.004l10.906 31.452-1.58 44.67c1.317 14.18 4.592 27.687 9.767 40.554 1.754 4.348 3.742 8.607 5.964 12.81 1.667 3.208 3.51 6.388 5.468 9.51 5.263-6.507 7.31-19.43 6.17-38.834C37.92 66.114 30.817 28.038 15.408 0z"/>
    <path id="aw" fill-rule="evenodd" d="M18.532 62.764V18.718L9.862 0 4.638 18.747C-2.97 50.567-1.218 82.652 9.89 115L27 102.51c-5.425-12.84-8.24-26.087-8.468-39.746z"/>
    <path id="ax" fill-rule="evenodd" d="M5.46 3.578L1.665 0C5.898 39.94 5.343 72.722 0 98.29c0 .03 0 .09.03.147.146 1.076.262 2.124.408 3.17.497 4.22.876 8.35 1.08 12.393l5.17-22.893C13.343 89.303 17.78 83.922 20 74.962c-4.292 6.545-8.555 10.705-12.846 12.42C10.307 59.46 9.752 31.532 5.46 3.58z"/>
    <path id="ay" fill-rule="evenodd" d="M8.768 6.476C7.355 4.298 5.884 2.12 4.298 0c4.24 27.906 4.787 55.782 1.672 83.66 4.24-1.714 8.45-5.867 12.69-12.4-2.19 8.943-6.575 14.316-13.152 16.116L.403 110.23 0 111.94c5.336 6.855 11.393 12.2 18.17 16.06 4.616-11.934 6.49-26.89 5.625-44.864-.028-.26-.028-.55-.058-.813C20.19 51.107 15.2 25.815 8.767 6.476z"/>
    <path id="az" fill-rule="evenodd" d="M12.01 9.266C10.785 7.81 9.142 6.294 7.05 4.69L.06 0C.03.205.03.38 0 .582l5.26 5.42c.147.467.267.933.416 1.43l5.05 7.224c2.927 27.33 4.272 52.943 4.063 76.835.05.27.11.5.17.76.92 3.64 1.73 7.23 2.48 10.75C19.02 73.17 17.2 41.93 12 9.27z"/>
    <path id="aA" fill-rule="evenodd" d="M9.75 6.963c-.15-.504-.268-.977-.417-1.45L4.085 0c-.03.504-.09.978-.12 1.482C3.46 5.6 2.148 9.512 0 13.155c5.696.652 10.05 4.268 13 10.845-.894-6.488-1.968-12.177-3.25-17.037z"/>
    <path id="aB" fill-rule="evenodd" d="M1.733 0C1.193.91.625 1.82 0 2.7c4.005.173 7.812 2.845 11.42 7.992L12.244 18 15 17.8c-.256-2.587-.568-5.033-.88-7.393C11.306 4.097 7.16.627 1.732 0z"/>
    <path id="aC" fill-rule="evenodd" d="M28.496 11.33c2.127-3.537 3.428-7.333 3.93-11.33-3.014 1.208-6.03 2.07-9.013 2.616.71 4.86.266 8.828-1.33 11.905C14.31 12.14 6 7.35 0 1.98c3.28 3.767 6.925 8.303 11.89 11.35 2.867 1.755 6.735 4.085 10.193 5.61 1.27-1.295 3.606-3.522 4.61-4.874.65-.89 1.242-1.81 1.803-2.73z"/>
    <path id="aD" fill-rule="evenodd" d="M16 8.345C12.285 3.21 8.598.17 4.473 0 3.48 1.334 1.258 3.3 0 4.577l2.194.936c1.023 3.717 2.7 8.38 3.605 12.097l11.07-.92L16 8.345z"/>
    <path id="aE" fill-rule="evenodd" d="M0 0c1.265 4.775 2.66 11.45 3.543 17.825.325 2.417 1.164 4.012 1.43 6.66.5 4.63.942 9.638 1.265 14.996.324 4.87.56 9.99.737 15.44.147 5.27.265 10.8.323 16.63v3.44c.913 3.12 1.738 6.18 2.532 9.2.206-23.87-1.118-49.47-4.004-76.78L0 0z"/>
    <path id="aF" fill-rule="evenodd" d="M23.075 5.003c-.73-.318-1.462.318-2.193 0-3.422-1.53-6.55-3.177-9.388-4.938C7.664-.485 3.832 2.462 0 8.96c.38 1.184.73 2.368 1.112 3.552l8.92-7.942 9.826 5.285L21.438 18l5.636-.725c-.907-3.783-2.21-7.5-3.235-11.285l-.77-.987z"/>
    <path id="aG" fill-rule="evenodd" d="M19.446 5.295L8.776 0 0 7.957c.777 2.633 1.858 6.55 2.577 9.27l18.613-2.843-1.744-9.09z"/>
    <path id="aH" fill-rule="evenodd" d="M18.704 0L0 2.82c1.32 5.01 2.7 10.307 3.726 15.6l17.853-3.625L18.7 0z"/>
    <path id="aI" fill-rule="evenodd" d="M3.274 0L0 1.367l.873 14.8h3.83c-.313-5.288-.943-10.23-1.43-14.8V0z"/>
    <path id="aJ" fill-rule="evenodd" d="M2.925 16L8 15.052C6.955 10.045 5.85 5.007 4.656 0L0 .68 2.925 16z"/>
    <path id="aK" fill-rule="evenodd" d="M5.17 0L0 .904 2.89 15 8 14.124C7.148 9.407 6.205 4.718 5.17 0z"/>
    <path id="aL" fill-rule="evenodd" d="M0 0l1.517 16.775h3.87C5.213 11.482 4.342 4.727 4.017 0H0z"/>
    <path id="aM" fill-rule="evenodd" d="M12 15.43L11.132 0 0 .78C1.197 5.842 2.305 10.936 3.352 16L12 15.43z"/>
    <path id="aN" fill-rule="evenodd" d="M8.363 0L0 .546c.984 4.8 1.88 9.57 2.69 14.367L9 15 8.363 0z"/>
    <path id="aO" fill-rule="evenodd" d="M18.093 0L0 3.698c.87 4.794 1.87 10.75 2.534 15.778l23.51-4.974L18.094 0z"/>
    <path id="aP" fill-rule="evenodd" d="M0 0l1.053 16.97h3.993C4.982 11.026 4.854 5.38 4.694 0H0z"/>
    <path id="aQ" fill-rule="evenodd" d="M0 .917L1.18 7.42 2.25 17 7 16.202C6.326 10.792 5.566 5.412 4.723 0L0 .917z"/>
    <path id="aR" fill-rule="evenodd" d="M19.28 6.48L18.065 0 0 3.677c.666 5.096.155 9.848.59 15.18l19.79-2.832-1.1-9.544z"/>
    <path id="aS" fill-rule="evenodd" d="M0 0c.868 5.182 1.74 12.378 2.433 17.56h5.71L6.8.76 0 0z"/>
    <path id="aT" fill-rule="evenodd" d="M0 0c5.054 32.603 6.825 63.78 5.286 93.563.32 1.716.64 3.403.96 5.09.493 2.82 1.41 6.664 1.788 9.427 5.315-25.565 6.182-58.934 1.97-98.866L0 0z"/>
    <path id="aU" fill-rule="evenodd" d="M24.318 39.215l-.03-.642c-.028-.087-.028-.204-.028-.292C22.546 24.72 17.897 11.97 10.285 0c6.48 19.433 11.505 44.847 15.08 76.212.03.263.03.555.057.817.872 18.06-1.017 33.08-5.666 45.08-6.827-3.88-12.928-9.25-18.303-16.14l-.755 2.24L0 110.26l15.486 16.368-6.77 13.773c.96.56 1.918 1.11 2.876 1.64.64.32 1.28.64 1.918.97l.872-1.4 10.43-16.98 2.906-2.65c3.922-25.5 2.788-53.07-3.4-82.75z"/>
    <path id="aV" fill-rule="evenodd" d="M0 8l.69-1.118c.98-1.52 1.93-2.867 2.85-4.043C3.682 1.86 3.855.91 4 0 2.244 2.35.92 4.96.086 7.8.058 7.856.03 7.913 0 8z"/>
    <path id="aW" fill-rule="evenodd" d="M81.805 24.006c.03-.086.058-.144.087-.202L79.5 27.192c-1.283-9.904-7.67-16.362-19.19-19.345C49.782 7.297 39.457 4.69 29.338 0c-1.313 4.082-3.53 7.963-6.65 11.584-.933 5.704-2.177 11.38-1.244 18.04-5.746-2.114-8.03-6.342-9.343-13.697-.84-.84-1.66-1.535-2.45-2.085-3.17-2.258-6.06-2.23-8.6.116-2.36 2.78-.73 7.992 4.9 15.666 3.38 3.446 7.18 4.78 11.41 3.938 3.5 13.003 10.5 21.053 21.03 24.182 19.31 1.91 33.1-6.864 41.39-26.324 11.55.922 17.3-5.33 17.24-18.74-2.04-.956-4.26-.55-6.68 1.16-1.57 1.1-3.21 2.75-4.93 4.95-.93 1.188-1.89 2.55-2.88 4.084l-.7 1.13z"/>
    <path id="aX" fill-rule="evenodd" d="M67.59 63.275l3.016-4.427c.847-2.873 1.575-5.717 3.36-8.096C78.79 17.062 66.74.146 37.816.002 10.556-.145-1.55 16.45 1.49 49.794c2.515 3.017 4.036 6.035 4.592 9.053-1.492-2.41-2.925-4.44-4.3-6.093C1.17 52.03.584 51.36 0 50.752c1.317 7.37 4.855 13.05 10.617 15.168-.936-6.674-.936-13.66 0-19.376 3.13-3.627 6.164-6.653 7.48-10.744 10.15 4.7 19.452 6.938 30.01 7.49 11.553 2.988 18.195 9.217 19.482 19.14v.845z"/>
    <path id="aY" fill-rule="evenodd" d="M57.964 0c.06 13.54-5.706 19.633-17.33 18.697C32.298 38.35 19.432 47.005 0 45.075c.264.088.558.146.822.234 3.287.9 6.9 1.31 10.86 1.25 17.202.2 28.15-8.42 32.846-25.91 3.29.64 6.342 0 9.13-1.96.792-.56 1.585-1.23 2.348-2.02 5.694-7.75 4.86-12.24 3.97-14.69 0 0-1.337-1.71-2.012-2z"/>
    <path id="aZ" fill-rule="evenodd" d="M5 9c-.605-3-2.26-6-5-9 .096.952.192 1.932.32 2.942C1.815 4.586 3.375 6.606 5 9z"/>
    <path id="ba" fill-rule="evenodd" d="M5.5 3c.655-.084 1.31-.337 1.966-.757.598-.476 1.34-.673 2.28-.533.883.03 1.282-.364 1.252-1.233-.768.45-1.794.59-3.02.45-1.88.53-3.703.475-5.47-.14C1.512.867.685.587 0 0v.477c-.027.87.37 1.262 1.255 1.233.94-.14 1.68.057 2.28.533.654.45 1.31.7 1.965.757z"/>
    <path id="bb" fill-rule="evenodd" d="M7.953 4.8c-.65.418-1.302.67-1.953.754-.65-.057-1.3-.307-1.952-.754-.594-.475-1.33-.67-2.264-.53C.907 4.296.51 3.906.54 3.04V1.703C.623.418 1.387.167 2.887.923 1.077-.505.114-.28.03 1.616L0 3.293C-.026 4.55.54 5.023 1.7 4.66c.96-.14 1.782.14 2.46.782.567.335 1.133.53 1.728.558h.226c.594-.028 1.16-.223 1.726-.558.68-.642 1.5-.92 2.462-.782 1.16.363 1.726-.11 1.697-1.367l-.03-1.675C11.88-.28 10.92-.502 9.11.92c1.5-.753 2.265-.502 2.35.782v1.34c.028.865-.368 1.255-1.245 1.227-.934-.14-1.67.05-2.264.53z"/>
    <path id="bc" fill-rule="evenodd" d="M5 1C3.43-.314 1.782-.343 0 .97 1.755.21 3.43.21 5 1z"/>
    <path id="bd" fill-rule="evenodd" d="M10.41.128c-.38-.15-.932-.18-1.6-.03h.03C5.67 1.105 2.732 4.07 0 9.025c1.017-.15 1.744.118 2.123.77.348.564.436 1.454.29 2.67L2.327 13l.436-.534c1.046-1.512 1.105-2.877.145-4.122l2.88-3.293c2.15-2.13 3.4-1.83 3.72.87 1.076-2.22 1.57-3.85 1.483-4.83-.05-.44-.26-.77-.58-.95z"/>
    <path id="be" fill-rule="evenodd" d="M9.403.538c.665-.148 1.215-.118 1.59.03.32.178.522.505.58.95.086.98-.405 2.613-1.476 4.84l-.174.356c-.028.03-.028.09 0 .177.03.04.058.09.087.12.087.03.145.03.202 0 .058-.03.088-.06.117-.08 1.24-2.53 1.79-4.37 1.64-5.47-.05-.62-.31-1.07-.81-1.28-.43-.2-1.07-.23-1.85-.09l-.03.03C5.96 1.17 2.87 4.34.03 9.66 0 9.72 0 9.78 0 9.84l.115.12c.06.03.117.03.174.03 1.01-.27 1.67-.09 2.05.473.31.536.4 1.366.26 2.465-.03.27-.09.538-.15.8-.03.06-.03.12 0 .18l.17.09c.06.03.11 0 .14-.03.06-.03.08-.09.11-.15.03-.143.06-.262.06-.352l.08-.533c.14-1.22.05-2.11-.29-2.677-.38-.653-1.1-.92-2.11-.772C3.35 4.52 6.27 1.55 9.42.54H9.4z"/>
    <path id="bf" fill-rule="evenodd" d="M.428 1.518c.058-.445.26-.772.578-.95.376-.148.926-.178 1.59-.03H2.57c3.154 1.01 6.076 3.98 8.796 8.937-1.013-.148-1.736.12-2.112.772-.376.623-.463 1.692-.203 3.206 0 .09.03.208.06.357.03.06.06.12.12.148.03.03.09.06.15.03l.18-.09c.03-.06.03-.118 0-.177-.31-1.51-.26-2.61.12-3.26.38-.56 1.04-.74 2.06-.47.06 0 .12 0 .18-.03l.11-.12c0-.06 0-.12-.02-.18C9.15 4.35 6.05 1.17 2.72.13L2.69.098C1.91-.05 1.27-.02.84.185.34.39.08.835.024 1.46c-.15 1.1.4 2.94 1.645 5.464.03.03.06.06.12.088.05.03.11.03.2 0 .03-.03.06-.088.08-.118.03-.09.03-.15 0-.178L1.9 6.36C.833 4.13.34 2.498.43 1.518z"/>
    <path id="bg" fill-rule="evenodd" d="M.59.128c-.32.177-.52.504-.58.95-.087.977.407 2.61 1.482 4.833.32-2.69 1.57-2.99 3.722-.86l2.88 3.3c-1.08 1.39-.874 2.93.58 4.65-.263-1.51-.176-2.58.202-3.2.378-.65 1.106-.92 2.123-.77C8.26 4.07 5.33 1.11 2.16.1h.03C1.522-.05.97-.02.59.125z"/>
    <path id="bh" fill-rule="evenodd" d="M.207 6.518c-.49.42-.452-3.678 4.096-5.692C8.85-1.19 15.668.206 16.863 8.102c.22.742.417 1.533.59 2.375-.123-.42-.247-.842-.395-1.237-.147-.445-.32-.865-.49-1.26-2.536-6.503-7.025-6.75-12.266-5.39C2.36 3.334.207 6.52.207 6.52z"/>
    <path id="bi" fill-rule="evenodd" d="M.192 4.51C.625 3.202 2.106 1.386 4.12.603 9.55-.832 13.777-.06 16.403 6.807 11.125.462 6.133 1.245 2.537 4.51c-2.27 2.584.026 3.054 6.528 7.205-3.01-1.306-5.38-2.95-7.114-4.908C.25 4.587-.34 2.707.2 1.22"/>
    <path id="bj" fill-rule="evenodd" d="M6.578 9.38C.355 8.335-.692 5.02.355 2.27 4.03-.98 9.093-1.294 14.49 5.02c.18.417-1.39 4.36-7.912 4.36z"/>
    <path id="bk" fill-rule="evenodd" d="M6.826 1.174C7.616 1.964 8 2.9 8 4s-.385 2.037-1.174 2.826C6.036 7.614 5.1 8 4 8s-2.036-.386-2.825-1.174C.385 6.036 0 5.1 0 4s.386-2.037 1.175-2.826C1.965.384 2.9 0 4 0s2.037.385 2.826 1.174z"/>
    <path id="bl" fill-rule="evenodd" d="M.734 4.246C.238 3.75 0 3.174 0 2.5 0 1.805.238 1.21.734.714 1.23.238 1.806 0 2.5 0c.675 0 1.27.238 1.766.714C4.762 1.21 5 1.804 5 2.5c0 .674-.238 1.25-.734 1.746S3.176 5 2.5 5c-.694 0-1.27-.258-1.766-.754z"/>
    <path id="bm" fill-rule="evenodd" d="M.29 1.71C.1 1.522 0 1.275 0 1 0 .725.1.478.29.29.478.102.724 0 1 0c.276 0 .522.102.71.29.188.188.29.435.29.71 0 .275-.102.522-.29.71-.188.188-.434.29-.71.29-.276 0-.522-.102-.71-.29z"/>
    <path id="bn" fill-rule="evenodd" d="M4.693 1.555C3.07 1.645 1.505 1.345 0 .648.944 2.614 2.39 3.945 4.338 4.58 12.1.557 18.978 1.373 25 7 20.72.133 13.96-1.68 4.693 1.555z"/>
    <path id="bo" fill-rule="evenodd" d="M20.307 1.555c1.623.09 3.188-.21 4.693-.907-.944 1.966-2.39 3.297-4.338 3.932C12.9.557 6.022 1.373 0 7 4.28.133 11.04-1.68 20.307 1.555z"/>
    <path id="bp" fill-rule="evenodd" d="M21.7.875c-.117.03-.233.06-.377.088-.52.146-1.042.233-1.564.32-.29.06-.58.117-.87.146-1.88.26-3.71.4-5.53.43-3.38.03-6.68-.38-9.92-1.22C3.06.52 2.66.4 2.28.29 1.938.206 1.59.09 1.242 0L0 1.05l1.88-.03C3.357 4.96 6.655 6.943 11.834 7c3.76-.176 6.452-1.02 8.07-2.538.812-.758 1.362-1.662 1.65-2.74.03.028.087.028.146 0l1.3.582L22.45.73c-.087 0-.144.03-.232.058-.2.03-.375.058-.52.087z"/>
    <path id="bq" fill-rule="evenodd" d="M8 2c-.383-.46-.797-.814-1.21-1.097C5.108-.3 3.336-.3 1.417.903.945 1.186.473 1.54 0 2 2.687.974 5.373.974 8 2z"/>
    <path id="br" fill-rule="evenodd" d="M15.94.563c.03 0 .06 0 .06-.032L15.97.5c-.324.063-.62.125-.914.157-1.89.28-3.78.437-5.64.468C6.26 1.155 3.1.782 0 0c.148.344.325.657.56.938 4.222.718 8.502.968 12.783.75.177.28-.384.72-1.653 1.312 2.214-.375 3.63-1.187 4.25-2.437z"/>
    <path id="bs" fill-rule="evenodd" d="M11.674 2.142c1.287-.52 2.594-1.12 2.415-1.366C9.74.968 4.28.63 0 0c1.288 1.34 3.602 2.36 7.585 2.333 1.288.028 2.396-.054 3.384-.19"/>
    <path id="bt" fill-rule="evenodd" d="M34.92 13.167l3.426-.816C31.584 11.19 24.79 8.54 17.97 4.43l5.862.058C19.74 2.446 15.56.962 11.262 0L0 2.127C8.39 1.98 17.766 6.35 28.187 15.235c6.183 5.856 9.58 12.03 10.13 18.498.088 3.932-.32 7.602-1.248 10.953-.5-2.36-1.25-4.836-2.21-7.4-.12 2.593-.32 5.07-.64 7.37-.96 6.584-2.76 11.886-5.4 15.935.9 2.54 1.33 5.34 1.25 8.36-.03.35-.03.7-.06 1.05.98-1.54 1.94-2.91 2.87-4.1 1.71-2.21 3.34-3.87 4.9-4.98 1.68-1.19 3.28-1.74 4.76-1.66 1.36-6.49 3.51-13.13 6.44-19.92l-4.74 3.16c-1.95-6.7-1.98-14.21-.03-22.51l-5.11 2.04c2.64-1.78 4.47-3.99 5.51-6.61-3.34.18-6.59-.58-9.7-2.24z"/>
    <path id="bu" fill-rule="evenodd" d="M54.28 0C36.41 3.605 24.81 11.047 19.416 22.27c-1.31-3.282-1.69-6.417-1.108-9.406-3.032 6.007-3.498 12.482-1.37 19.37C10.26 33.288 4.608 37.858 0 45.916c2.274-2.14 4.664-3.428 7.17-3.867-2.622 6.91-3.06 13.62-1.34 20.16l2.973-11.87.088 10.58c.53 2.02 1.23 3.95 2.13 5.8 2.31 4.77 5.86 8.85 10.64 12.28-1.45-2.64-1.54-5.16-2.24-8.06-1.83-7.68-1.16-16.76 2.25-26.32l4.19 5.71c.56-4.02.61-8.79 0-14.21-.2-1.59-.41-2.2-.7-3.9l2.58 3.9c1.34 3.37 4.04 6.27 5.79 8.49l-2.63-9.77 3.61 5.75c5.02 4.07 10.03 7.38 15.02 9.93-5.16-4.43-8.01-9.88-8.57-16.41C53.33 40.66 65.02 47.04 77.18 52c4.63 4.366 7.29 8.125 7.7 12.11.842 1.32 2.032 2.482 2.59 3.946 2.65-4.073 5.56-8.073 6.522-14.696.32-2.316-.12-6.14 0-8.747.96 2.58 1.76 6.372 2.25 8.745.934-3.37 1.56-8.165 1.474-12.12-.558-6.5-4.048-13.09-10.258-18.98C76.99 13.332 67.33 8.785 58.9 8.93l10.91-1.81c-7.87-1.7-16.207-1.613-25.01.233 2.244-2.96 5.42-5.39 9.474-7.355z"/>
    <path id="bv" fill-rule="evenodd" d="M44 30c-.404-4.016-2.916-8.238-7.506-12.638C24.454 12.372 12.27 6.585 0 0c.55 6.585 3.378 12.077 8.488 16.535 4.39 2.333 8.807 4.046 13.224 5.138-5.14-4.104-9.5-8.208-13.08-12.313l19.95 9.272C35.772 21.437 40.912 25.216 44 30z"/>
    <path id="bw" fill-rule="evenodd" d="M10.236 5.676L6.14 0c.29 1.68.523 3.3.727 4.866.61 5.357.64 9.99.087 13.958l-3.66-4.546C-.106 23.718-.86 32.233.97 39.82c.696 2.868 1.77 5.62 3.224 8.226C5.646 49.09 7.216 50.074 8.9 51c-1.8-8.95-1.86-18.014-.203-27.194l1.772 8.108c2.12-8.108 2.03-16.855-.24-26.238z"/>
    <path id="bx" fill-rule="evenodd" d="M9 16L3.634 6.55 0 0l1.53 10.37C3.692 13.185 6.2 15.052 9 16z"/>
    <path id="by" fill-rule="evenodd" d="M0 11.608c.486 1.892 1.17 3.755 2.057 5.618.114.258.228.516.37.774L3 10.347 2.914 0 0 11.608z"/>
  </defs>
</svg>
