<svg width="250" height="195" viewBox="0 0 250 195" version="1.1" xmlns="http://www.w3.org/2000/svg" xmlns:xlink="http://www.w3.org/1999/xlink">
<title>parents</title>
<desc>Created using Figma</desc>
<g id="Canvas" transform="translate(-580 1020)">
<g id="parents">
<g id="Page 1">
<mask id="mask0_outline" mask-type="alpha">
<g id="Mask Copy 2">
<use xlink:href="#path0_fill" transform="translate(689 -1021)" fill="#FFFFFF"/>
</g>
</mask>
<g id="Page 1" mask="url(#mask0_outline)">
<g id="Group 3">
<mask id="mask1_outline" mask-type="alpha">
<g id="Clip 2">
<use xlink:href="#path1_fill" transform="translate(770.84 -876.954)" fill="#FFFFFF"/>
</g>
</mask>
<g id="Fill 1" mask="url(#mask1_outline)">
<use xlink:href="#path2_fill" transform="translate(770.84 -876.954)" fill="#E2C103"/>
</g>
</g>
<g id="Fill 4">
<use xlink:href="#path3_fill" transform="translate(784 -932)"/>
</g>
<g id="Fill 6">
<use xlink:href="#path4_fill" transform="translate(765 -928)" fill="#BB6F4A"/>
</g>
<g id="Fill 8">
<use xlink:href="#path5_fill" transform="translate(786 -892)" fill="#797979"/>
</g>
<g id="Fill 10">
<use xlink:href="#path6_fill" transform="translate(764 -891)" fill="#CF8B5F"/>
</g>
<g id="Fill 12">
<use xlink:href="#path7_fill" transform="translate(752 -888)" fill="#FCD70D"/>
</g>
<g id="Fill 14">
<use xlink:href="#path8_fill" transform="translate(764 -888.258)" fill="#FCBD92"/>
</g>
<g id="Fill 16">
<use xlink:href="#path9_fill" transform="translate(715 -877)" fill="#E2C103"/>
</g>
<g id="Fill 18">
<use xlink:href="#path10_fill" transform="translate(755 -864.03)" fill="#FCD70D"/>
</g>
<g id="Fill 20">
<use xlink:href="#path11_fill" transform="translate(715 -875)" fill="#FCD70D"/>
</g>
<g id="Fill 22">
<use xlink:href="#path12_fill" transform="translate(779.644 -891)" fill="#FCD70D"/>
</g>
<g id="Fill 40">
<use xlink:href="#path13_fill" transform="translate(761 -843.376)" fill="#E2C103"/>
</g>
<g id="Fill 83">
<use xlink:href="#path14_fill" transform="translate(737 -1002)" fill="#CF8B5F"/>
</g>
<g id="Fill 85">
<use xlink:href="#path15_fill" transform="translate(739 -966)" fill="#FCBD92"/>
</g>
<g id="Fill 87">
<use xlink:href="#path16_fill" transform="translate(737 -949)" fill="#BB6F4A"/>
</g>
<g id="Fill 89">
<use xlink:href="#path17_fill" transform="translate(727 -951)" fill="#FCBD92"/>
</g>
<g id="Fill 91">
<use xlink:href="#path18_fill" transform="translate(804 -951)" fill="#FCBD92"/>
</g>
<g id="Fill 93">
<use xlink:href="#path19_fill" transform="translate(803 -949)" fill="#BB6F4A"/>
</g>
<g id="Fill 111">
<use xlink:href="#path20_fill" transform="translate(780 -957)"/>
</g>
<g id="Group 21">
<g id="Fill 105">
<use xlink:href="#path21_fill" transform="translate(779 -945)"/>
</g>
<g id="Fill 109">
<use xlink:href="#path22_fill" transform="translate(778.561 -942.579)" fill="#F8F3EF"/>
</g>
<g id="Fill 113">
<use xlink:href="#path23_fill" transform="translate(783 -942)" fill="#B26C52"/>
</g>
<g id="Fill 115">
<use xlink:href="#path24_fill" transform="translate(785 -941)"/>
</g>
<g id="Fill 117">
<use xlink:href="#path25_fill" transform="translate(788 -940)" fill="#FFFFFF"/>
</g>
</g>
<g id="Group 17">
<g id="Fill 105 Copy">
<use xlink:href="#path21_fill" transform="matrix(-1 0 0 1 765 -945)"/>
</g>
<g id="Fill 109 Copy">
<use xlink:href="#path22_fill" transform="matrix(-1 0 0 1 765.439 -942.579)" fill="#F8F3EF"/>
</g>
<g id="Fill 113 Copy">
<use xlink:href="#path23_fill" transform="matrix(-1 0 0 1 761 -942)" fill="#B26C52"/>
</g>
<g id="Fill 115 Copy">
<use xlink:href="#path24_fill" transform="matrix(-1 0 0 1 759 -941)"/>
</g>
<g id="Fill 117 Copy">
<use xlink:href="#path25_fill" transform="matrix(-1 0 0 1 756 -940)" fill="#FFFFFF"/>
</g>
</g>
<g id="Fill 125">
<use xlink:href="#path26_fill" transform="translate(743 -957)"/>
</g>
<g id="Fill 137">
<use xlink:href="#path27_fill" transform="translate(806 -947)" fill="#CF8B5F"/>
</g>
<g id="Fill 139">
<use xlink:href="#path28_fill" transform="translate(729 -946)" fill="#CF8B5F"/>
</g>
<g id="Group 143">
<mask id="mask2_outline" mask-type="alpha">
<g id="Clip 142">
<use xlink:href="#path29_fill" transform="translate(732.411 -1009.88)" fill="#FFFFFF"/>
</g>
</mask>
<g id="Fill 141" mask="url(#mask2_outline)">
<use xlink:href="#path30_fill" transform="translate(732.411 -1009.88)" fill="#424242"/>
</g>
</g>
<g id="Fill 144">
<use xlink:href="#path31_fill" transform="translate(783 -1009)"/>
</g>
<g id="Fill 146">
<use xlink:href="#path32_fill" transform="translate(735 -993)"/>
</g>
<g id="Fill 148">
<use xlink:href="#path33_fill" transform="translate(740 -951)"/>
</g>
<g id="Fill 54">
<use xlink:href="#path34_fill" transform="translate(761 -914)" fill="#DB786E"/>
</g>
<g id="Fill 56">
<use xlink:href="#path35_fill" transform="translate(761 -912)" fill="#A04747"/>
</g>
<g id="Fill 96">
<use xlink:href="#path36_fill" transform="translate(767 -922)" fill="#EBBBA5"/>
</g>
<g id="Fill 98">
<use xlink:href="#path37_fill" transform="translate(766 -925)" fill="#CF8B5F"/>
</g>
<g id="Fill 100">
<use xlink:href="#path38_fill" transform="translate(769 -926)" fill="#EBBBA5"/>
</g>
</g>
</g>
<g id="Page 1 Copy 2">
<mask id="mask3_outline" mask-type="alpha">
<g id="Mask Copy 2">
<use xlink:href="#path0_fill" transform="translate(580 -1021)" fill="#FFFFFF"/>
</g>
</mask>
<g id="Page 1" mask="url(#mask3_outline)">
<g id="Fill 6">
<use xlink:href="#path39_fill" transform="translate(595 -838)" fill="#35B3CA"/>
</g>
<g id="Fill 8">
<use xlink:href="#path40_fill" transform="translate(592 -850)" fill="#2B92A4"/>
</g>
<g id="Fill 10">
<use xlink:href="#path41_fill" transform="translate(616 -861)" fill="#35B3CA"/>
</g>
<g id="Fill 18">
<use xlink:href="#path42_fill" transform="translate(617 -864.244)" fill="#2B92A4"/>
</g>
<g id="Fill 22">
<use xlink:href="#path43_fill" transform="translate(660 -907)" fill="#CF8B5F"/>
</g>
<g id="Fill 24">
<use xlink:href="#path44_fill" transform="translate(669.388 -881)" fill="#E99D65"/>
</g>
<g id="Fill 26">
<use xlink:href="#path45_fill" transform="translate(678.001 -883)" fill="#35B3CA"/>
</g>
<g id="Fill 28">
<use xlink:href="#path46_fill" transform="translate(679 -880)" fill="#797979"/>
</g>
<g id="Fill 30">
<use xlink:href="#path47_fill" transform="translate(656 -882)" fill="#797979"/>
</g>
<g id="Fill 32">
<use xlink:href="#path48_fill" transform="translate(639 -882)" fill="#35B3CA"/>
</g>
<g id="Fill 34">
<use xlink:href="#path49_fill" transform="translate(656.537 -881)" fill="#F7B986"/>
</g>
<g id="Fill 38">
<use xlink:href="#path50_fill" transform="translate(669.926 -844.62)" fill="#E6E7E8"/>
</g>
<g id="Fill 40">
<use xlink:href="#path51_fill" transform="translate(681 -860)" fill="#2B92A4"/>
</g>
<g id="Fill 42">
<use xlink:href="#path52_fill" transform="translate(682.79 -849.56)" fill="#35B3CA"/>
</g>
<g id="Fill 44">
<use xlink:href="#path53_fill" transform="translate(673 -846)" fill="#CCCCCC"/>
</g>
<g id="Fill 46">
<use xlink:href="#path54_fill" transform="translate(704.3 -844.989)" fill="#35B3CA"/>
</g>
<g id="Fill 50">
<use xlink:href="#path55_fill" transform="translate(690 -830)" fill="#2B92A4"/>
</g>
<g id="Fill 107">
<use xlink:href="#path56_fill" transform="translate(633 -999)" fill="#E99D65"/>
</g>
<g id="Fill 109">
<use xlink:href="#path57_fill" transform="translate(633 -947)" fill="#CF8B5F"/>
</g>
<g id="Fill 111">
<use xlink:href="#path58_fill" transform="translate(623 -949)" fill="#F7B986"/>
</g>
<g id="Fill 113">
<use xlink:href="#path59_fill" transform="translate(636 -972.916)" fill="#F7B986"/>
</g>
<g id="Fill 115">
<use xlink:href="#path60_fill" transform="translate(699 -947)" fill="#CF8B5F"/>
</g>
<g id="Fill 117">
<use xlink:href="#path61_fill" transform="translate(700 -949)" fill="#F7B986"/>
</g>
<g id="Fill 119">
<use xlink:href="#path62_fill" transform="translate(659 -898)" fill="#B87B5F"/>
</g>
<g id="Fill 125">
<use xlink:href="#path63_fill" transform="translate(657 -916)" fill="#9F5A39"/>
</g>
<g id="Fill 127">
<use xlink:href="#path64_fill" transform="translate(701 -945)" fill="#CF8B5F"/>
</g>
<g id="Fill 129">
<use xlink:href="#path65_fill" transform="translate(625 -944)" fill="#CF8B5F"/>
</g>
<g id="Fill 139">
<use xlink:href="#path66_fill" transform="translate(673 -960)"/>
</g>
<g id="Fill 153">
<use xlink:href="#path67_fill" transform="translate(637 -960)"/>
</g>
<g id="Group 22">
<g id="Fill 145">
<use xlink:href="#path68_fill" transform="translate(641.318 -949.168)"/>
</g>
<g id="Fill 147">
<use xlink:href="#path69_fill" transform="translate(643 -947.1)" fill="#F8F3EF"/>
</g>
<g id="Fill 149">
<use xlink:href="#path70_fill" transform="translate(643 -942)" fill="#CF8B5F"/>
</g>
<g id="Fill 151">
<use xlink:href="#path71_fill" transform="translate(647 -947)" fill="#B26C52"/>
</g>
<g id="Fill 155">
<use xlink:href="#path72_fill" transform="translate(648 -946)"/>
</g>
<g id="Fill 157">
<use xlink:href="#path73_fill" transform="translate(649 -945)" fill="#FFFFFF"/>
</g>
</g>
<g id="Group 22 Copy">
<g id="Fill 145">
<use xlink:href="#path68_fill" transform="matrix(-1 0 0 1 694.682 -949.168)"/>
</g>
<g id="Fill 147">
<use xlink:href="#path69_fill" transform="matrix(-1 0 0 1 693 -947.1)" fill="#F8F3EF"/>
</g>
<g id="Fill 149">
<use xlink:href="#path70_fill" transform="matrix(-1 0 0 1 693 -942)" fill="#CF8B5F"/>
</g>
<g id="Fill 151">
<use xlink:href="#path71_fill" transform="matrix(-1 0 0 1 689 -947)" fill="#B26C52"/>
</g>
<g id="Fill 155">
<use xlink:href="#path72_fill" transform="matrix(-1 0 0 1 688 -946)"/>
</g>
<g id="Fill 157">
<use xlink:href="#path73_fill" transform="matrix(-1 0 0 1 687 -945)" fill="#FFFFFF"/>
</g>
</g>
<g id="Fill 159">
<use xlink:href="#path74_fill" transform="translate(625 -1020)" fill="#CC3300"/>
</g>
<g id="Fill 161">
<use xlink:href="#path75_fill" transform="translate(694 -978)" fill="#6D1601"/>
</g>
<g id="Fill 163">
<use xlink:href="#path76_fill" transform="translate(632 -1019)" fill="#9D2700"/>
</g>
<g id="Fill 165">
<use xlink:href="#path77_fill" transform="translate(638 -954)" fill="#9D2700"/>
</g>
<g id="Fill 167">
<use xlink:href="#path78_fill" transform="translate(633 -946)" fill="#CC3300"/>
</g>
<g id="Fill 171">
<use xlink:href="#path79_fill" transform="translate(634 -955)"/>
</g>
</g>
<g id="Fill 96" mask="url(#mask3_outline)">
<use xlink:href="#path36_fill" transform="translate(663 -929)" fill="#EBBBA5"/>
</g>
<g id="Fill 98" mask="url(#mask3_outline)">
<use xlink:href="#path37_fill" transform="translate(662 -932)" fill="#CF8B5F"/>
</g>
<g id="Fill 100" mask="url(#mask3_outline)">
<use xlink:href="#path38_fill" transform="translate(665 -933)" fill="#EBBBA5"/>
</g>
</g>
</g>
</g>
<defs>
<path id="path0_fill" fill-rule="evenodd" d="M 0 0L 180 0L 180 196L 0 196L 0 0Z"/>
<path id="path1_fill" fill-rule="evenodd" d="M 58.2786 144.046L 58.2786 0L 0 0L 0 144.046L 58.2786 144.046Z"/>
<path id="path2_fill" fill-rule="evenodd" d="M 58.2781 25.5697L 45.9795 15.8059L 26.1363 0L 20.3721 27.6965L 9.17721 9.86062C 7.97442 11.2617 6.67953 12.615 5.28419 13.9683L 0 21.0268L 7.63953 16.8686L 20.8507 38.9104L 31.5167 13.7759L 48.6698 33.2557L 43.3367 135.828L 0.0962791 132.443L 3.41023 138.825L 31.7567 141.822L 52.5126 144.046C 55.1553 105.908 57.0781 66.4146 58.2795 25.5697L 58.2781 25.5697Z"/>
<path id="path3_fill" fill-rule="evenodd" d="M 24.6362 0L 15.9353 0L 0 30.1167L 2.00451 40.7368L 6.06181 40.7368L 14.175 48.4977L 12.8065 55.1416L 32.9936 71C 36.4646 65.4237 35.096 59.8939 28.888 54.3176C 42.5249 43.3088 44.6274 31.135 35.2919 17.7979L 24.6362 0Z"/>
<path id="path4_fill" fill-rule="evenodd" d="M 21 37.1195L 19.0158 26.5627L 13.9344 0L 4.45182 0L 0.096962 40.0611L 0 40.8802C 5.46781 42.6163 10.7895 42.3265 15.9186 40.0611C 17.612 39.3387 19.3053 38.325 21 37.1195Z"/>
<path id="path5_fill" fill-rule="evenodd" d="M 0 0L 2 11.4897C 3.20364 8.23431 4 3.8335 4 0L 0 0Z"/>
<path id="path6_fill" fill-rule="evenodd" d="M 22.1464 0C 20.4819 1.1956 18.8188 2.20095 17.1557 2.91748L 19.0576 13.0058L 7.41434 27.8278L 0.37955 14.3916L 0 17.6909L 2.1379 21.8026L 6.79464 35L 12.0228 28.0194C 13.4002 26.6794 14.6838 25.3408 15.8721 23.955C 17.6788 21.8026 19.2466 19.6044 20.6255 17.3563C 22.0029 15.0151 23.1429 12.6711 24 10.2799L 22.1464 0Z"/>
<path id="path7_fill" fill-rule="evenodd" d="M 13.3508 0.827762L 13.451 0L 3.44917 6.04054L 2.52637 11.692L 0 40L 14 19.2437L 12.1498 14.7344L 12.1498 11.692L 13.3508 0.827762Z"/>
<path id="path8_fill" fill-rule="evenodd" d="M 0 11.774L 7.15519 25.2578L 19.3701 9.96924L 17.5654 0C 12.4405 2.25613 6.62304 2.80241 1.16117 1.07442L 0 11.774Z"/>
<path id="path9_fill" fill-rule="evenodd" d="M 39.7031 0L 35.1965 2.1403L 32.0783 38.3798L 39.9914 31.3159C 34.0448 49.5558 32.031 68.1504 31.7915 88.3864L 16.0628 102.785L 9.49371 76.4192C 4.50662 63.9178 4.50662 51.8545 9.49371 40.1796L 23.7837 17.7072L 7.43119 35.8016C 3.02066 45.969 2.15722 58.2754 4.8896 72.7715L 11.6509 95.5363C 5.89788 91.7911 2.01238 91.4507 0 94.4669L 0 98.3575C 0.0473502 98.212 0.190793 98.0171 0.334236 97.8716C 0.862051 97.3361 1.6294 96.9476 2.58894 96.8007C 2.97192 96.7513 3.40364 96.7032 3.83536 96.7032C 5.41742 96.7032 6.90477 97.0931 8.39073 97.8716C 9.87669 98.698 10.8362 99.6714 11.3626 100.741C 11.8431 101.86 11.747 102.785 11.1231 103.563L 16.3511 104L 20.667 100.741L 23.9272 100.936L 24.7906 100.061L 35.9151 88.3864L 37.2576 86.9257C 38.1684 85.3208 39.0806 83.9095 39.9914 82.6945C 39.3675 66.3011 41.3827 49.9572 46.0815 33.5638L 55.9634 20.6763L 50.4629 5.24609L 37.2576 27.3193L 39.7031 0Z"/>
<path id="path10_fill" fill-rule="evenodd" d="M 15.1927 8.27757L 6.23019 20.2599C 1.50897 36.5433 -0.515805 52.7761 0.111078 69.0594C 3.33925 64.8075 6.51984 62.8752 9.65146 63.2625C 9.94111 66.2571 7.14532 70.8471 1.26829 77.0803L 2.0393 94.4259L 5.94193 101.818L 27.9598 101.818L 23.4303 86.3095L 55.1562 21.2383L 53.1583 47.0269L 48.8219 110.709L 42.3655 110.177L 8.92802 107.52L 15.2878 119.647L 58.6505 123.03L 65.0034 20.2599L 47.5195 0L 36.707 24.708L 23.4303 3.54053L 15.1927 8.27757Z"/>
<path id="path11_fill" fill-rule="evenodd" d="M 32.0416 36.0079L 35.1562 0L 9.14759 12.2277C 3.25646 35.1376 0.190575 61.6227 0 91.735C 2.01147 88.7381 5.89112 89.0764 11.6376 92.7976L 4.884 70.1783C 2.15475 55.7762 3.41874 44.2866 7.82422 34.1855L 21.2329 19.4258L 9.48283 37.7962C 4.50146 49.395 4.50146 61.3826 9.48283 73.8026L 16.0444 100L 31.755 85.6934C 31.9943 65.5867 35.0588 46.4964 41 28.3717L 32.0416 36.0079Z"/>
<path id="path12_fill" fill-rule="evenodd" d="M 17.4067 14.9932L 19.0845 7.1709L 10.5145 0C 10.3252 3.52477 9.61578 7.00047 8.43573 10.3794C 7.58361 12.7938 6.09207 14.396 4.72266 16.7612C 3.35324 19.1265 1.79479 21.3932 0 23.5664L 12.0098 42.4048L 17.4067 14.9932Z"/>
<path id="path13_fill" fill-rule="evenodd" d="M 0 81.964L 2.99054 87.7L 36.4622 90.376L 29.6126 69.1758L 47.2645 26.8264L 49.4429 0L 17.5076 66.3572L 22.0403 81.964L 0 81.964Z"/>
<path id="path14_fill" fill-rule="evenodd" d="M 8.35601 47.6135C 26.6616 48.5793 40.4016 44.6654 49.4811 35.9151C 57.2183 38.1402 61.3011 43.9873 61.8299 53.5111L 59.4745 84.6404C 53.8618 99.5518 52.377 101.292 32.603 108.608C 35.5879 110.077 47.1803 106.794 53.6929 101.841C 60.2055 96.8876 64.4217 85.7186 65.3516 79.3032L 66.5378 71.8316L 68.4117 53.8495L 68.748 50.8522C 73.5048 18.1267 64.7127 1.15959 42.2755 0L 27.5727 0C 5.13695 1.15959 -3.60769 18.1267 1.34161 50.8522L 1.67788 53.8495L 2.15928 58.2478L 8.35601 47.6135Z"/>
<path id="path15_fill" fill-rule="evenodd" d="M 0 22.4484L 1.44935 36.1011L 2.41465 44.8473C 4.15443 56.5076 16.626 69.8159 30.7231 72.5918C 49.6426 68.7637 53.0869 62.8945 57.6345 48.9777L 60 17.6872C 59.4682 8.11403 55.3629 2.23524 47.5844 0C 38.4534 8.7942 24.6375 12.7299 6.23235 11.759L 0 22.4484Z"/>
<path id="path16_fill" fill-rule="evenodd" d="M 2.46108 5.56652L 1.9486 1.08441C 1.28119 0.690987 0.61527 0.344778 0 0L 3.28194 20C 3.53818 19.8512 3.74376 19.6552 4 19.4092L 2.46108 5.56652Z"/>
<path id="path17_fill" fill-rule="evenodd" d="M 9.94151 2.24831C 9.84572 2.20125 9.74992 2.1528 9.65413 2.10574C 9.55834 2.0573 9.46254 2.01024 9.36813 1.96179C 2.34042 -1.7076 -0.718066 -0.229324 0.141309 6.39523C 0.57169 8.8258 1.38386 11.0654 2.62642 13.1153C 2.6764 13.1153 2.6764 13.1624 2.6764 13.2094C 6.78584 19.8824 10.0845 22.7421 12.5224 21.8368C 12.6182 21.7884 12.714 21.7413 12.7612 21.6929C 12.857 21.6458 12.9528 21.6458 13 21.5974L 9.94151 2.24831Z"/>
<path id="path18_fill" fill-rule="evenodd" d="M 3.53141 1.96328C 3.43585 2.01037 3.33748 2.05886 3.24192 2.10734C 3.14496 2.15443 3.048 2.20153 2.95104 2.25001L 0 21.6131C 0.0477787 21.6602 0.143336 21.7073 0.241704 21.7572C 0.289483 21.8043 0.386445 21.8043 0.483408 21.8514C 2.95104 22.7102 6.24074 19.8485 10.3539 13.2191C 10.3539 13.1706 10.3539 13.1235 10.4017 13.1235C 11.6608 11.0721 12.4829 8.8309 12.8707 6.39856C 13.6928 -0.229428 10.5956 -1.70878 3.53141 1.96328Z"/>
<path id="path19_fill" fill-rule="evenodd" d="M 4 0C 3.37684 0.344803 2.70087 0.689606 2.02641 1.08305L 0 19.4091C 0.259525 19.6566 0.57186 19.8526 0.831384 20L 4 0Z"/>
<path id="path20_fill" fill-rule="evenodd" d="M 17.1052 0C 11.3158 0.755132 5.61365 2.56305 0 5.42229C 0.591724 6.38416 1.44769 6.90909 2.56648 7C 9.16681 2.67742 16.6442 1.92229 25 4.68915C 23.3106 3.34018 20.6794 1.78446 17.1052 0Z"/>
<path id="path21_fill" fill-rule="evenodd" d="M 20 0C 18.6079 2.49813 16.8657 3.10286 14.7552 1.81579C 14.6032 1.71554 14.4734 1.6153 14.32 1.5393C 9.68475 -1.38731 4.9184 0.404228 0 6.88805C 5.35361 1.94191 9.98884 1.20438 14.7552 4.98796C 15.1248 5.92092 16.2505 7.98747 15.9452 9C 16.577 8.51978 16.7792 7.72076 17.1488 7.08855C 18.7823 4.99464 19.7392 2.65012 20 0Z"/>
<path id="path22_fill" fill-rule="evenodd" d="M 0 5.74499C 3.91138 10.7731 12.8386 11.1949 16.4244 6.01747C 16.49 4.68994 16.3345 3.60771 15.9564 2.77511C 12.2666 -2.12575 1.80099 -0.162438 0 5.74499Z"/>
<path id="path23_fill" fill-rule="evenodd" d="M 4.50077 0C 3.23215 0 2.15528 0.441526 1.27016 1.32309C 0.431055 2.22844 0 3.29286 0 4.52379C 0 5.75173 0.431055 6.79683 1.27016 7.70069C 2.15528 8.55847 3.23215 9 4.50077 9C 5.74484 9 6.82171 8.55847 7.70683 7.70069C 8.56894 6.79683 9 5.75173 9 4.52379C 9 3.29286 8.56894 2.22844 7.70683 1.32309C 6.82171 0.441526 5.74484 0 4.50077 0L 12.647 2.39282Z"/>
<path id="path24_fill" fill-rule="evenodd" d="M 6 3.01065C 6 2.19163 5.70651 1.4819 5.14265 0.884315C 4.53398 0.286728 3.83422 0 3 0C 2.16578 0 1.44434 0.286728 0.857349 0.884315C 0.293494 1.4819 0 2.19163 0 3.01065C 0 3.82967 0.293494 4.53939 0.857349 5.1384C 1.44434 5.71327 2.16578 6 3 6C 3.83422 6 4.53398 5.71327 5.14265 5.1384C 5.70651 4.53939 6 3.82967 6 3.01065Z"/>
<path id="path25_fill" fill-rule="evenodd" d="M 2 0.993115C 2 0.724613 1.90493 0.496558 1.71391 0.295181C 1.50981 0.0938038 1.27867 0 1.00654 0C 0.734409 0 0.503271 0.0938038 0.299171 0.295181C 0.095072 0.496558 0 0.724613 0 0.993115C 0 1.27539 0.095072 1.50344 0.299171 1.70482C 0.503271 1.9062 0.734409 2 1.00654 2C 1.27867 2 1.50981 1.9062 1.71391 1.70482C 1.90493 1.50344 2 1.27539 2 0.993115Z"/>
<path id="path26_fill" fill-rule="evenodd" d="M 7.89525 0C 13.6849 0.755132 19.386 2.56305 25 5.42229C 24.4096 6.38416 23.5536 6.90909 22.4348 7C 15.8341 2.67742 8.35629 1.92229 0 4.68915C 1.68953 3.34018 4.32081 1.78446 7.89525 0Z"/>
<path id="path27_fill" fill-rule="evenodd" d="M 0 13C 3.34597 11.3565 4.0291 9.13549 2.0248 6.29731C 3.02626 6.14678 3.98538 6.59427 4.94449 7.61924C 4.77507 5.69793 3.72989 4.97265 1.81166 5.46392C 3.75175 2.47522 5.45684 1.15056 6.88458 1.49267C 8.26996 1.57751 8.35604 3.82041 7.14143 8.23915C 9.16486 3.90525 9.52829 1.29972 8.26996 0.381486C 5.64948 -0.877492 3.02626 0.9795 0.404413 5.9552C 0.639409 6.16868 0.830685 6.38079 1.02333 6.61616C 2.77077 8.72906 2.43057 10.8652 0 13Z"/>
<path id="path28_fill" fill-rule="evenodd" d="M 9 13C 5.65429 11.3564 4.97121 9.13528 6.97536 6.29559C 5.97397 6.14642 5.01356 6.59529 4.05452 7.61895C 4.22529 5.69891 5.26903 4.97222 7.18848 5.46352C 5.24854 2.47329 3.54358 1.14992 2.11459 1.49206C 0.729306 1.5769 0.644604 3.81992 1.85912 8.23889C -0.165525 3.90477 -0.527555 1.30046 0.729306 0.382179C 3.35095 -0.878234 5.97397 0.978857 8.59562 5.95482C 8.36064 6.16694 8.16801 6.3818 7.97675 6.61582C 6.22944 8.7302 6.56961 10.8651 9 13Z"/>
<path id="path29_fill" fill-rule="evenodd" d="M 1.00002e-13 0L 74.8259 0L 74.8259 57.1915L 0 57.1915L 0 0L 1.00002e-13 0Z"/>
<path id="path30_fill" fill-rule="evenodd" d="M 51.1811 0.883642C 49.7272 0.542715 48.2255 0.299398 46.6267 0.054666C 22.5418 -0.820993 7.51909 8.82398 1.55872 28.9401C -0.816987 37.9513 -0.476395 47.353 2.57627 57.1917L 6.16235 42.8233C 14.3999 44.4784 23.0752 42.0424 32.1361 35.5153L 32.1361 42.0919C 44.1061 37.2199 53.0234 28.7449 58.7895 16.7148L 56.4152 26.8464C 55.7847 28.1606 55.1556 29.4762 54.4758 30.6942C 63.4424 35.2239 69.3057 43.3099 72.067 54.951C 76.7692 43.1628 75.4603 30.499 68.1432 16.9086C 64.1208 10.4805 58.4503 5.12189 51.1811 0.883642Z"/>
<path id="path31_fill" fill-rule="evenodd" d="M 0 0C 7.33184 4.19333 13.0511 9.49517 17.1081 15.8551C 24.4882 29.3015 25.8083 41.8311 21.0657 53.4943C 21.7996 56.7233 22.3376 60.1916 22.6797 64C 28.1037 55.5658 30.4999 46.0244 29.9136 35.4697L 29.9136 34.2646C 29.766 15.6634 19.7952 4.24091 0 0Z"/>
<path id="path32_fill" fill-rule="evenodd" d="M 53.6347 10.0193L 56 0C 50.2557 11.8981 41.3722 20.2792 29.449 25.0958L 29.449 18.5935C 20.4211 25.0483 11.7802 27.4559 3.57247 25.8191L 0 40.0283C 0.821612 42.6779 1.8339 45.424 3.08876 48.1688C 3.62014 48.7955 4.19919 49.4208 4.77825 50L 6.3738 31.8402C 12.2611 31.8877 17.6212 30.4902 22.4485 27.6489L 15.448 33.9596C 31.8143 34.5863 43.931 27.842 51.7041 13.8245C 52.3799 12.62 53.0066 11.3203 53.6347 10.0193Z"/>
<path id="path33_fill" fill-rule="evenodd" d="M 18.3053 4.3061C 20.0018 4.47755 21.7927 4.82295 23.7261 5.38236C 26.1318 6.02936 27.6872 6.84782 28.3458 7.88277C 28.8648 8.65743 29.1016 9.99273 28.9592 11.9325C 28.8182 14.0012 28.0172 15.9822 26.6028 17.922C 24.8584 20.2922 22.5006 21.8003 19.6252 22.5336C 16.7485 23.2657 14.0155 23.1356 11.5167 22.1457C 9.39441 21.326 7.60347 19.9906 6.23561 18.181C 4.86913 16.3714 3.92573 14.2164 3.36025 11.6747C 2.79476 9.13173 2.88786 7.36467 3.69023 6.37351C 4.30227 5.59886 5.67013 4.99566 7.88553 4.52135C 10.1023 4.04705 12.5067 3.91815 15.0041 4.04705C 16.9375 4.17595 18.0219 4.26355 18.3053 4.3061ZM 46.6375 4.30612C 46.9677 4.26232 48.0542 4.17597 49.9874 4.04707C 52.4865 3.91817 54.8937 4.04707 57.1105 4.52012C 59.3287 4.99567 60.7426 5.59888 61.3085 6.37353C 62.1114 7.36468 62.2059 9.13174 61.6401 11.6747C 61.0742 14.2164 60.1302 16.3714 58.8094 18.181C 57.3941 19.9906 55.6007 21.326 53.4784 22.1457C 50.978 23.1356 48.2419 23.2657 45.3633 22.5336C 42.4862 21.8003 40.1282 20.2922 38.3827 17.922C 36.966 15.9822 36.1645 14.0012 36.0234 11.9325C 35.9289 9.99275 36.118 8.65744 36.6372 7.88154C 37.2976 6.84783 38.854 6.02938 41.2599 5.38237C 43.1945 4.82297 44.9866 4.47757 46.6375 4.30612ZM 35.1668 4.34531C 34.1094 4.73477 33.235 4.90689 32.5007 4.90689C 31.7197 4.90689 30.8452 4.73477 29.7878 4.34531C 29.697 4.30259 28.5008 3.78372 26.1565 2.78744C 25.1004 2.31129 23.72 1.83513 22.0205 1.44692C 19.9511 0.884079 17.791 0.495868 15.5841 0.278521C 9.60842 -0.369753 4.4137 0.105145 0 1.79242L 1.01197 3.35028C 0.965247 3.39425 0.919855 3.43697 0.827736 3.52366C 0.643498 3.61035 0.505987 3.73975 0.413868 3.95584C 0 4.64809 0 5.68583 0.368476 7.07032C 0.505987 7.6319 0.736952 8.62819 1.10409 10.0994C 1.51796 11.5266 1.93049 12.8244 2.39109 13.9488C 3.77021 17.15 5.74609 19.7029 8.27469 21.5622C 10.2052 22.9467 12.3653 23.7244 14.8031 23.9418C 17.1475 24.1579 19.3997 23.7671 21.5599 22.8601C 24.1339 21.8211 26.2486 20.0911 27.9041 17.6261C 30.0175 14.5971 30.984 11.0064 30.7998 6.89694L 31.2591 7.0276C 31.6262 7.11303 32.0401 7.15701 32.5007 7.15701C 33.1896 7.15701 33.7423 7.07032 34.1548 6.89694C 34.0173 11.0064 34.9825 14.5971 37.0505 17.6261C 38.7527 20.0911 40.8661 21.8211 43.3947 22.8601C 45.5562 23.7671 47.8071 24.1579 50.1528 23.9418C 52.5893 23.7244 54.7494 22.9467 56.6799 21.5622C 59.2085 19.7029 61.1844 17.15 62.5635 13.9488C 63.0241 12.8244 63.438 11.5266 63.8518 10.0994C 64.219 8.62819 64.4486 7.6319 64.5861 7.07032C 64.9546 5.68583 64.9546 4.64809 64.5407 3.95584C 64.4953 3.73975 64.3565 3.61035 64.1269 3.52366L 63.9426 3.35028L 65 1.79242C 60.5422 0.105145 55.3475 -0.369753 49.4172 0.278521C 47.2557 0.495868 45.0956 0.884079 42.9368 1.44692C 41.28 1.83513 39.9009 2.31129 38.7981 2.78744C 36.4992 3.78372 35.3043 4.30259 35.1668 4.34531Z"/>
<path id="path34_fill" fill-rule="evenodd" d="M 0 1.08906C 0 1.08906 4.17894 -0.539031 8.42923 0.186061C 9.44499 0.358764 11.0929 1.15111 11.0929 1.15111C 11.0929 1.15111 13.7743 0.222511 14.7283 0.186061C 19.2631 0.00988656 22 1.0704 22 1.0704L 20.4752 1.78942C 20.4752 1.78942 18.0509 8.11217 10.6973 7.99849C 4.49214 7.90259 1.54639 1.71392 1.54639 1.71392L 0 1.08906Z"/>
<path id="path35_fill" fill-rule="evenodd" d="M 11.0195 3C 10.6523 3 10.2709 2.95634 9.87012 2.86739C 9.49769 2.78538 9.14794 2.68052 8.74243 2.55852C 7.88745 2.30269 6.82357 1.98321 4.97088 1.72411C 1.66722 1.261 0.173249 0.427003 0.111335 0.391505C -0.00304051 0.327037 -0.0342338 0.194837 0.0409137 0.0965037C 0.116061 -0.00223798 0.268719 -0.0295756 0.383095 0.0348922C 0.397746 0.0430527 1.8643 0.855836 5.0498 1.30181C 6.94456 1.56743 8.0316 1.89344 8.90454 2.15539C 9.29966 2.27372 9.64089 2.37613 9.993 2.45406C 10.7218 2.61442 11.3731 2.61197 11.9832 2.44713C 12.2299 2.38021 12.4762 2.30636 12.738 2.22802C 13.6733 1.94689 14.8384 1.59803 16.9505 1.30181C 20.1356 0.855836 21.6026 0.0430527 21.6172 0.0348922C 21.7311 -0.0295756 21.8847 -0.00223798 21.9594 0.0965037C 22.0341 0.194837 22.0029 0.327037 21.889 0.391505C 21.8271 0.427003 20.3326 1.261 17.0295 1.72411C 14.9598 2.01381 13.818 2.35614 12.9006 2.63155C 12.6336 2.71153 12.3831 2.7866 12.1312 2.85474C 11.7724 2.95145 11.4038 3 11.0195 3Z"/>
<path id="path36_fill" fill-rule="evenodd" d="M 3.53435 2.24285C 4.18929 2.69153 4.8448 2.94335 5.49974 3C 6.15525 2.91531 6.8102 2.66293 7.46514 2.24285C 8.06365 1.76612 8.80466 1.56983 9.74461 1.71004C 10.6276 1.73808 11.0266 1.34549 10.9986 0.476164C 10.2291 0.924846 9.2031 1.06506 7.97872 0.924846C 6.09825 1.45766 4.27479 1.40157 2.50833 0.784633C 1.51138 0.869321 0.685435 0.588895 0.00142294 0L 0.00142294 0.476164C -0.0270776 1.34549 0.37193 1.73808 1.25488 1.71004C 2.19482 1.56983 2.93584 1.76612 3.53435 2.24285Z"/>
<path id="path37_fill" fill-rule="evenodd" d="M 6 5.55382C 5.34949 5.49742 4.69841 5.24668 4.04789 4.79994C 3.45343 4.32584 2.71743 4.12984 1.78384 4.26944C 0.906861 4.29792 0.510551 3.90702 0.538859 3.04147L 0.538859 2.5668L 0.538859 1.70236C 0.623783 0.418544 1.38809 0.167252 2.88727 0.920568C 1.07671 -0.502857 0.114242 -0.279487 0.0293188 1.61804L 0.001011 3.29276C -0.0272968 4.54865 0.538859 5.02331 1.69891 4.66034C 2.66138 4.52073 3.48174 4.79994 4.16056 5.44213C 4.72672 5.77663 5.2923 5.97208 5.88677 6L 6.05662 6L 6.11323 6C 6.70713 5.97208 7.27328 5.77663 7.83944 5.44213C 8.51826 4.79994 9.33862 4.52073 10.3011 4.66034C 11.4611 5.02331 12.0273 4.54865 11.999 3.29276L 11.9707 1.61804C 11.8858 -0.279487 10.9233 -0.502857 9.11273 0.920568C 10.6119 0.167252 11.3762 0.418544 11.4611 1.70236L 11.4611 3.04147C 11.4894 3.90702 11.0931 4.29792 10.2162 4.26944C 9.28257 4.12984 8.54657 4.32584 7.95211 4.79994C 7.30159 5.2182 6.65051 5.47006 6 5.55382Z"/>
<path id="path38_fill" fill-rule="evenodd" d="M 5 1C 3.43125 -0.31331 1.78214 -0.343092 0 0.970218C 1.755 0.211664 3.43125 0.211664 5 1Z"/>
<path id="path39_fill" fill-rule="evenodd" d="M 16.3767 0C 14.0028 6.3341 11.8231 13.0041 9.78689 20.0587C 5.95938 33.2537 2.66378 47.65 0 63.2462C 6.78258 67.6125 13.9057 68.1881 21.4158 64.8768C 23.7897 49.9537 24.5158 37.0444 23.6447 26.1531C 22.8201 15.4513 20.397 6.76474 16.3767 0Z"/>
<path id="path40_fill" fill-rule="evenodd" d="M 23.8232 0C 22.2467 3.67174 20.7202 7.53462 19.2394 11.4931C 23.2021 18.2161 25.5883 26.849 26.4008 37.4848C 27.2604 48.3088 26.5436 61.1385 24.2045 75.9695C 16.806 79.2604 9.78607 78.6883 3.10442 74.349C 2.81741 76.0651 2.53179 77.7825 2.24478 79.5457C 9.45192 82.885 16.709 84.2673 23.966 83.6953L 21.9126 93.9487C 14.8954 94.903 7.82969 93.1856 0.811115 88.8462C 0.525492 90.752 0.237095 92.6606 0 94.6163C 1.52795 95.1883 3.05451 95.6648 4.58245 96.0955C 10.5972 97.7645 16.806 98.3365 23.2021 97.8116C 24.73 97.716 26.3037 97.5249 27.8816 97.2396C 28.9312 92.2313 29.8865 87.3185 30.6976 82.5498C 31.1274 79.975 31.5101 77.4003 31.8429 74.8726C 33.6107 62.3781 34.2776 51.0277 33.8963 40.7742C 33.2751 24.2258 29.9322 10.6343 23.8232 0Z"/>
<path id="path41_fill" fill-rule="evenodd" d="M 10.0966 52.9243C 10.4788 63.25 9.81028 74.6803 8.03835 87.2628L 11.1973 118C 22.8253 103.256 33.9753 86.6868 44.6931 68.2935C 46.1288 65.7969 47.5658 63.25 49 60.7044L 45.0295 17.1937L 23.3993 37.9399C 19.0939 26.4147 17.561 13.7834 18.7575 0L 0 11.8628C 6.12465 22.572 9.47535 36.2592 10.0966 52.9243Z"/>
<path id="path42_fill" fill-rule="evenodd" d="M 10.1896 123.187L 0 144.244C 19.7624 120.895 36.3316 97.4528 49.619 73.9146C 51.7128 70.19 53.714 66.4655 55.6667 62.6952C 55.8562 59.0179 55.9516 55.3419 56 51.6659C 56 41.4006 55.2366 31.0867 53.6656 20.6315C 53.4291 19.0548 53.1898 17.4796 52.952 15.9044C 52.4748 13.1353 51.9507 10.3648 51.3795 7.59701C 49.998 7.07148 48.7616 6.49879 47.6663 5.87897C 38.4282 12.0856 31.4298 20.186 25.4775 31.501C 22.4779 22.6681 21.5551 12.4146 22.6504 0L 17.428 3.20413C 16.2373 16.9069 18.366 30.3826 22.6504 41.8418L 43.2367 21.4097L 47.5239 63.5536C 46.0953 66.0842 44.6653 68.6148 43.2367 71.0983C 32.5714 89.3839 21.4759 105.856 9.90472 120.514L 10.1896 123.187Z"/>
<path id="path43_fill" fill-rule="evenodd" d="M 14.611 26.312C 16.0576 26.0291 17.5043 25.6531 19 25.135L 18.902 23.9102L 17.1654 0L 5.35395 0L 0.288494 24.1453L 0 25.6996C 4.48566 27.2061 9.35505 27.3947 14.611 26.312Z"/>
<path id="path44_fill" fill-rule="evenodd" d="M 9.3854 0C 7.9344 0.520019 5.16599 0.946736 3.76123 1.22938L 6.43701 20.7002L 0 33.2612C 0.2339 34.8199 0.693834 35.334 0.927734 36.894C 3.40816 38.1687 7.27758 38.3154 9.75937 37.606C 11.2117 37.1807 12.6165 36.378 14.0675 35.2913C 13.9736 34.4406 15.7537 34.1586 15.6123 33.2612C 15.0507 29.5758 12.4764 25.1818 11.5857 21.2604C 13.8812 19.2283 15.2383 17.055 15.6123 14.6456L 10.3224 12.9456L 9.47787 1.22938L 9.3854 0Z"/>
<path id="path45_fill" fill-rule="evenodd" d="M 0.0971274 1.2586L 0.195683 2.5158C 1.22695 3.62832 2.16394 4.74083 2.94953 5.75643C 5.85193 9.62635 7.0803 13.1086 6.63752 16.2523C 6.24472 18.7189 4.81781 20.944 2.40819 23.0229L 26.4908 53.8096C 27.1792 51.8753 31.0238 42.0637 31.8579 39.3555C 29.9411 27.2161 10.0813 5.22405 0 0L 0.0971274 1.2586Z"/>
<path id="path46_fill" fill-rule="evenodd" d="M 2.53119 3.30279C 1.80818 2.26772 0.948704 1.13386 0 0L 0.81355 12.2248L 5.91923 14C 6.32601 10.7946 5.19622 7.24553 2.53119 3.30279Z"/>
<path id="path47_fill" fill-rule="evenodd" d="M 4 0C 0.0554972 5.25743 -0.984911 9.95426 0.937582 14L 3.68939 1.53454L 4 0Z"/>
<path id="path48_fill" fill-rule="evenodd" d="M 20.7248 0L 0.961304 12.824C 0.723971 14.5537 0.581846 16.2347 0.438342 17.9156C -0.654496 30.4048 0.296218 41.1154 3.28911 50C 9.22796 38.6184 16.7826 29.8287 26 23.5834C 22.1516 21.2789 19.4913 18.2518 17.9224 14.4575C 16.1645 10.2796 17.1152 5.42784 20.7248 0Z"/>
<path id="path49_fill" fill-rule="evenodd" d="M 0 12.8735C 1.54028 16.6591 4.23054 20.4444 8.01074 22.7441C 9.0846 23.366 10.1811 23.8062 11.5356 24.3335C 12.0956 27.1104 12.7251 29.8911 13.1929 32.6694L 19.4629 20.9813L 17.0833 0.623277C 11.9947 1.72514 7.27892 1.53315 2.93602 0L 0 12.8735Z"/>
<path id="path50_fill" fill-rule="evenodd" d="M 9.07422 1.43175C 6.40755 2.14782 2.66667 1.28809 0 0C 1.65991 10.4446 2.42285 22.7719 2.42285 33.0254L 9.07422 20.555L 9.07422 1.43175Z"/>
<path id="path51_fill" fill-rule="evenodd" d="M 0 0C 0.941253 3.93617 1.68533 7.77731 2.27973 11.4766L 21.1992 36.1777C 22.0426 34.043 22.9155 32.6402 23.707 30.5068L 0 0Z"/>
<path id="path52_fill" fill-rule="evenodd" d="M 0.023412 0C 0.164491 0.920911 -0.0720237 3.88673 0.023412 4.75977C 0.927976 12.2749 1.16743 20.7373 0.737279 27.4287C 2.45236 23.3071 17.7115 29.3237 19.2827 25.2993L 0.023412 0Z"/>
<path id="path53_fill" fill-rule="evenodd" d="M 10.0358 0C 8.5477 1.1085 7.10565 1.92728 5.61758 2.36117L 5.61758 21.6872L 0.336106 32.8674C 0.287294 36.5792 0.191065 40.2882 0 44C 3.93705 36.4336 7.53799 28.8197 10.8028 21.2043C 11.2352 14.5533 10.9465 7.4698 10.0358 0Z"/>
<path id="path54_fill" fill-rule="evenodd" d="M 5.23486 0C 4.15327 3.3435 1.17298 11.7942 0 15.1377C 3.00473 31.2769 6.28772 47.4383 8.40044 63.8646C 8.871 67.3981 9.29382 70.9316 9.71664 74.5122C 9.71664 74.655 9.71664 74.8478 9.76301 74.9893L 25.0093 70.8506L 5.23486 0Z"/>
<path id="path55_fill" fill-rule="evenodd" d="M 16.9961 55.1948C 17.0441 55.6731 17.1428 56.1527 17.1893 56.6782C 21.2692 94.5458 22.2888 135.906 20.2975 180.759L 23.1631 180.808L 29.8152 181C 29.8631 178.845 29.8631 176.691 29.9125 174.537C 30.203 153.856 29.7672 133.367 28.6503 113.023C 27.9212 100.24 26.9016 87.5554 25.6395 74.9175C 25.1529 69.9876 24.6185 65.0562 24.036 60.1248C 23.9881 59.9816 23.9881 59.7897 23.9881 59.6465C 23.5523 56.0568 23.1137 52.5143 22.6272 48.9718C 20.4428 32.5038 17.7718 16.1803 14.665 0C 10.392 11.6326 5.48722 23.0247 0 34.2263L 0.291919 41.3127L 11.9461 19.435C 13.9373 30.9716 15.6353 42.8921 16.9961 55.1948Z"/>
<path id="path56_fill" fill-rule="evenodd" d="M 1.67853 53.4011L 2.64058 62.2693L 14.9002 26.5098C 29.6606 33.603 43.9867 36.3344 57.8339 34.7543C 62.545 46.4027 62.9774 61.8119 60.094 80.9363C 60.0451 81.1298 43.0274 116.053 20.2843 111.739C 22.1107 113.177 24.0348 114.327 26.0539 115.238C 32.7855 117.588 38.8427 117.588 44.2757 115.238C 49.9001 112.793 54.8528 108.096 59.085 101.144C 62.4026 95.7289 64.5641 90.3593 65.6225 85.0384L 66.0554 79.6702L 66.5343 71.1848L 68.4095 53.4011L 68.746 50.4289C 73.5089 17.9772 64.7093 1.15133 42.2567 0L 27.5926 0C 5.13997 1.15133 -3.6093 17.9772 1.34202 50.4289L 1.67853 53.4011Z"/>
<path id="path57_fill" fill-rule="evenodd" d="M 2.09544 1.22571C 1.33333 0.784397 0.618257 0.343085 0 0L 3.33333 20C 3.57123 19.8534 3.7621 19.6569 4 19.4106L 3.04703 10.294L 2.09544 1.22571Z"/>
<path id="path58_fill" fill-rule="evenodd" d="M 9.3774 2.00328C 9.28327 1.95624 9.18637 1.86077 9.09085 1.81373C 2.27477 -1.66452 -0.679242 -0.139845 0.130549 6.38637C 0.55967 8.81589 1.37084 11.0545 2.60837 13.1035C 2.65682 13.1506 2.65682 13.1506 2.65682 13.199C 6.80406 19.9161 10.0931 22.7746 12.5224 21.8213C 12.6179 21.7742 12.7135 21.7742 12.7605 21.7258C 12.809 21.6788 12.9045 21.6304 13 21.5833L 9.66394 2.14717C 9.56842 2.09874 9.47153 2.05032 9.3774 2.00328Z"/>
<path id="path59_fill" fill-rule="evenodd" d="M 0.951365 44.4803L 1.47683 52.9447L 1.9055 58.2997C 2.99791 63.6075 5.23666 68.9625 8.52218 74.3661C 11.2366 78.8129 14.1875 82.3042 17.473 84.9344C 39.9947 89.2368 53.2308 79.3864 57.1828 55.4306C 57.1828 55.3348 57.1828 55.2389 57.2285 55.0959L 57.2769 54.8084C 57.3253 54.5696 57.3253 54.3793 57.3737 54.1863C 60.2291 35.1077 59.3248 19.7593 54.6578 8.13967C 40.946 9.71589 26.2943 7.07565 11.6768 0L 0 35.5854L 0.951365 44.4803Z"/>
<path id="path60_fill" fill-rule="evenodd" d="M 2.74243 0.141345C 2.40025 0.373748 2.05682 0.60887 1.67109 0.842632L 0 18.2036C 0.299876 18.5311 0.599751 18.7662 0.900871 18.9538C 0.986727 19 1.07134 19 1.11365 19L 3 0C 2.91414 0.047568 2.82829 0.0937768 2.74243 0.141345Z"/>
<path id="path61_fill" fill-rule="evenodd" d="M 2.3098 2.33816C 2.21859 2.38523 2.12469 2.4323 2.03348 2.48076L 0 21.8354C 0.0938943 21.8825 0.186447 21.8825 0.277659 21.9295C 2.58746 22.5013 5.63634 19.594 9.42297 13.2061C 9.42297 13.1576 9.46857 13.1576 9.51552 13.1106C 10.6691 11.0602 11.4551 8.82154 11.8709 6.38906C 12.7026 -0.426589 9.51552 -1.80966 2.3098 2.33816Z"/>
<path id="path62_fill" fill-rule="evenodd" d="M 7.5 0.025313C 3.54031 -0.176708 1.02543 0.831933 0 3C 4.75244 1.68833 9.73485 1.63855 15 2.84775C 13.9286 0.881707 11.4597 -0.0259242 7.5 0.025313Z"/>
<path id="path63_fill" fill-rule="evenodd" d="M 0.0938181 1.75356L 2.76344 1.75356C 7.75613 4.70554 12.9968 4.74777 18.4797 1.88271C 18.6234 1.79578 18.722 1.71133 18.7685 1.66911L 21 1.66911L 19.7391 0C 17.2653 1.49648 14.4027 2.22424 11.1555 2.09632C 7.90405 1.96716 4.55681 1.32635 1.21097 0.172624C 0.189615 1.24065 -0.196389 1.79578 0.0938181 1.75356Z"/>
<path id="path64_fill" fill-rule="evenodd" d="M 0 13C 3.34437 11.3551 4.02746 9.13549 2.02466 6.29594C 3.02606 6.14541 3.98511 6.59427 4.94415 7.61924C 4.77338 5.69793 3.72963 4.97265 1.81017 5.46256C 3.75012 2.47385 5.4551 1.15056 6.88411 1.4913C 8.27077 1.57751 8.3541 3.81904 7.13958 8.23915C 9.1656 3.90389 9.52764 1.29972 8.27077 0.381486C 5.64773 -0.877492 3.02606 0.9795 0.404385 5.9552C 0.639365 6.16731 0.830629 6.38216 1.02189 6.61616C 2.76922 8.72906 2.42904 10.8652 0 13Z"/>
<path id="path65_fill" fill-rule="evenodd" d="M 9 13C 5.65315 11.3564 4.97148 9.13665 6.97549 6.29695C 5.9728 6.14642 5.01383 6.59529 4.05485 7.61895C 4.22561 5.69891 5.27065 4.97222 7.1886 5.46352C 5.24879 2.47466 3.54258 1.15129 2.11504 1.49206C 0.729854 1.5769 0.643792 3.81855 1.85959 8.24026C -0.164917 3.90477 -0.52829 1.30046 0.729854 0.382179C 3.35133 -0.878234 5.9728 0.978857 8.59428 5.95482C 8.36068 6.16694 8.16807 6.3818 7.97682 6.61582C 6.22826 8.7302 6.57114 10.8651 9 13Z"/>
<path id="path66_fill" fill-rule="evenodd" d="M 27 9C 26.6933 6.11028 25.4188 3.66523 23.2031 1.66081C 15.6319 0.0578072 8.16754 -0.384166 0.859355 0.332182C -0.568519 3.39086 -0.216826 5.3723 1.91303 6.27923C 12.0305 3.47465 20.3938 4.38158 27 9Z"/>
<path id="path67_fill" fill-rule="evenodd" d="M 0 9C 0.30809 6.11028 1.58125 3.66523 3.79696 1.66081C 11.3698 0.0578072 18.8315 -0.384166 26.1412 0.332182C 27.5677 3.39086 27.2174 5.3723 25.0875 6.27923C 14.9698 3.47465 6.60635 4.38158 0 9Z"/>
<path id="path68_fill" fill-rule="evenodd" d="M 2.30738 6.09603C 2.28528 6.43676 1.6865 7.75039 1.70998 8.13937C 1.51526 7.86445 0.195802 7.46626 0.00246149 7.16794C -0.0845416 5.66318 2.15726 2.28739 3.17092 1.89987C 4.8716 0.638152 8.81777 -1.27747 13.5642 1.21261C 18.3107 3.7027 18.6819 6.83322 18.6819 6.83322C 13.1027 2.47687 2.37091 5.16013 2.30738 6.09603Z"/>
<path id="path69_fill" fill-rule="evenodd" d="M 16.7102 5.07893C 16.6445 5.78421 13.9644 7.83133 13.9644 7.83133C 7.44869 10.4187 3.89967 9.36793 0 5.07893C 0.0362234 4.53647 0.366943 0.436803 7.43115 0.0249376C 8.84592 -0.0575478 10.0686 0.0696963 11.1189 0.331183C 15.313 1.37535 16.7585 4.5601 16.7102 5.07893Z"/>
<path id="path70_fill" fill-rule="evenodd" d="M 0.031863 0C 4.01699 3.66872 8.48779 4.61987 13.7812 2.85205C 13.7812 2.85205 8.95125 4.30893 7.13721 4.26172C 5.32317 4.21451 1.53957 2.41426 0.00976182 0.912203C -0.0137207 0.581172 0.00976182 0.289964 0.031863 0Z"/>
<path id="path71_fill" fill-rule="evenodd" d="M 8 4.0106C 8 5.09129 7.61463 6.03779 6.86997 6.85432C 6.08041 7.62705 5.13147 8 3.99855 8C 2.89315 8 1.94277 7.62705 1.15176 6.85432C 0.383919 6.03779 0 5.09129 0 4.0106C 0 2.90871 0.383919 1.96221 1.15176 1.18948C 1.94277 0.39555 2.89315 0 3.99855 0C 5.13147 0 6.08041 0.39555 6.86997 1.18948C 7.61463 1.96221 8 2.90871 8 4.0106Z"/>
<path id="path72_fill" fill-rule="evenodd" d="M 4.28589 4.26196C 3.78589 4.75479 3.18564 5 2.49134 5C 1.81559 5 1.21658 4.75479 0.714109 4.26196C 0.231436 3.76912 0 3.1816 0 2.50061C 0 1.80019 0.231436 1.21267 0.714109 0.739257C 1.21658 0.246419 1.81559 0 2.49134 0C 3.18564 0 3.78589 0.246419 4.28589 0.739257C 4.7698 1.21267 5 1.80019 5 2.50061C 5 3.1816 4.7698 3.76912 4.28589 4.26196Z"/>
<path id="path73_fill" fill-rule="evenodd" d="M 2 0.993811C 2 1.26967 1.90229 1.50398 1.70596 1.69673C 1.50964 1.90363 1.27208 2 0.99238 2C 0.727028 2 0.489467 1.90363 0.294039 1.69673C 0.097714 1.50398 0 1.26967 0 0.993811C 0 0.731211 0.097714 0.49779 0.294039 0.304156C 0.489467 0.0963749 0.727028 0 0.99238 0C 1.27208 0 1.50964 0.0963749 1.70596 0.304156C 1.90229 0.49779 2 0.731211 2 0.993811Z"/>
<path id="path74_fill" fill-rule="evenodd" d="M 43.7197 0C 27.7253 0.665583 16.9163 8.36673 11.3919 23.1076L 1.44926 22.489L 6.4938 26.4355C -0.999077 31.3335 -2.00771 38.8455 3.46791 48.9728C 4.66906 53.0133 6.54493 58.5426 7.21875 63.2017C 12.068 52.9321 14.9851 41.8931 15.9951 30.4346C 25.8415 37.1871 35.8565 41.1176 47.4341 42.1643L 36.8298 30.4346C 51.577 35.2842 64.232 36.3232 76.1919 34.3264C 70.5726 19.8244 62.2628 7.98837 51.6938 0.570302C 49.1967 0.18918 46.5544 0 43.7197 0Z"/>
<path id="path75_fill" fill-rule="evenodd" d="M 11.538 2.49942L 0 0C 2.96491 7.25682 4.86526 15.3286 5.65258 24.2657C 5.97693 28.3504 6.1169 32.5789 6.02404 37C 7.32009 34.4531 8.38735 31.8588 9.26754 29.1194C 11.8166 21.0462 12.6039 12.1566 11.538 2.49942Z"/>
<path id="path76_fill" fill-rule="evenodd" d="M 42.2851 35.5136L 62.4544 41.1353L 74.2977 43.6349L 86 43.6349C 78.9601 35.7048 73.3458 27.1034 69.2084 17.8294C 64.7835 7.73746 56.6992 1.77945 44.9485 0C 55.4145 7.49741 63.4518 18.5495 69.0177 33.2066C 57.1731 35.2247 43.9028 33.783 29.2994 28.8815L 40.4781 40.9915C 29.0148 39.9336 18.4549 35.9937 8.70319 29.1704C 7.7044 40.7515 4.80333 51.7073 0 62.0867C 0.522192 65.6916 0.855123 69.5366 1.09273 73.5254L 3.42326 77.6091C 3.47023 77.1764 3.47023 76.7452 3.51858 76.3111L 7.6077 102.983C 8.41723 103.896 9.27374 104.567 10.1316 105L 5.08792 63.5758C 6.56331 54.3981 8.94081 45.0766 12.1278 35.7048C 26.589 44.4039 41.2863 47.8162 56.2696 45.9419L 42.2851 35.5136Z"/>
<path id="path77_fill" fill-rule="evenodd" d="M 62.2502 0L 55.954 39.516L 54.5104 54.3769C 51.0022 74.9217 32.8325 80.4642 0 71.0514C 4.18398 78.4576 14.1798 82.758 29.9482 84C 51.8691 82.2321 62.5866 74.5387 62.1553 60.8255L 62.1553 32.4443L 66 4.82641C 65.087 7.55045 63.9799 10.1302 62.6355 12.6627C 62.7318 8.2665 62.5866 4.06179 62.2502 0Z"/>
<path id="path78_fill" fill-rule="evenodd" d="M 35.0002 25.9767C 39.333 24.3852 43.0947 25.6869 46.1898 29.8314C 47.7622 30.9399 48.7607 32.7231 49.0954 35.0844C 49.047 37.5912 48.0001 39.2302 45.9519 39.9525C 44.9036 40.0966 43.9992 39.8573 43.2855 39.2792L 30.666 39.6152C 26.4285 42.0586 25.0371 39.9525 21.084 39.2792C 18.0843 35.0396 18.381 31.567 26.4285 25.5428C 29.5236 24.5308 32.3808 24.675 35.0002 25.9767ZM 2.42849 2.79516C 2.38009 3.22907 2.38009 3.66297 2.33307 4.09687L 0 0L 3.66763 25.302L 3.28593 53.2061C 3.14211 57.1098 3.9055 60.5796 5.5706 63.5189C 38.0953 73.0144 56.0946 67.4241 59.57 46.7004L 61 31.7126C 58.3323 32.8197 55.5234 31.567 52.5238 28.0006C 52.2845 27.7123 52.1905 27.5667 52.0467 27.4226C 47.2381 21.7832 41.6177 20 35.2381 22.073C 28.8086 20 23.1896 21.7832 18.381 27.4226C 18.2372 27.5667 18.1432 27.7123 17.9993 27.8551C 14.7618 31.7126 11.8106 32.9163 9.04877 31.567C 8.18994 31.1331 7.3325 30.4585 6.52347 29.5431L 2.42849 2.79516Z"/>
<path id="path79_fill" fill-rule="evenodd" d="M 15.1618 1.03526C 15.3532 0.987488 15.6389 0.987488 16.0688 0.987488C 20.7953 0.987488 24.1875 2.38972 26.2872 5.24476C 27.4827 6.84089 28.1027 8.67868 28.1983 10.7595C 28.294 12.9851 27.8641 15.2093 26.8614 17.4363C 25.7145 19.9035 24.139 21.7413 22.1807 22.9511C 21.1309 23.6283 19.9368 24.1608 18.6484 24.5472C 17.3586 24.8858 16.116 25.0319 14.8276 25.0319C 11.8195 25.0319 9.23988 24.2086 7.09163 22.5155C 6.08892 21.7413 5.27622 20.7255 4.5606 19.4188C 3.84497 18.1121 3.3665 16.6621 3.08081 15.0646C 2.79373 13.6146 2.69942 12.1618 2.74519 10.7118C 2.88803 9.25896 3.12796 7.95368 3.51074 6.84089C 4.22636 4.90474 5.89753 3.40556 8.47711 2.38972C 9.6712 1.90638 10.961 1.56777 12.3922 1.3261C 13.3963 1.13221 14.3019 1.03526 15.1618 1.03526ZM 51.9318 0.987488C 52.3604 0.987488 52.6474 0.987488 52.886 1.03526C 53.7458 1.03526 54.6542 1.13221 55.5612 1.3261C 56.9925 1.56777 58.3308 1.90638 59.5235 2.38972C 62.1031 3.40556 63.7271 4.90474 64.4413 6.84089C 64.8741 7.95368 65.1112 9.25896 65.2069 10.7118C 65.2541 12.1618 65.1584 13.6146 64.9198 15.0646C 64.6341 16.6621 64.157 18.1121 63.44 19.4188C 62.723 20.7255 61.8646 21.7413 60.8605 22.5155C 59.8106 23.3389 58.6165 24.0147 57.3267 24.4517C 56.0383 24.8366 54.6528 25.0319 53.2202 25.0319C 51.8847 25.0319 50.5935 24.8858 49.3522 24.5472C 48.0638 24.1608 46.8684 23.6283 45.7714 22.9511C 43.8131 21.7413 42.2862 19.9035 41.1392 17.4363C 40.1365 15.2093 39.7066 12.9851 39.8023 10.7595C 39.898 8.77703 40.5179 6.93783 41.6635 5.24476C 43.7659 2.38972 47.204 0.987488 51.9318 0.987488ZM 58.9507 1.17996C 57.041 0.551905 55.0356 0.165519 52.886 0.019395C 47.8724 -0.174501 44.1473 1.08442 41.6163 3.84111C 40.9007 4.66305 40.2793 5.53558 39.8494 6.55002L 39.7537 4.66305L 39.658 4.56751C 39.4195 4.13195 38.9909 3.69639 38.4182 3.30859C 37.2712 2.53442 35.7443 2.14803 33.8817 2.14803C 32.1149 2.14803 30.6337 2.53442 29.4396 3.30859C 29.1067 3.55167 28.7711 3.8411 28.484 4.13195C 28.294 4.37362 28.1983 4.51833 28.1983 4.56751L 28.1027 6.50225C 27.6713 5.485 27.0514 4.61528 26.3372 3.84111C 23.8048 1.08442 20.081 -0.174501 15.1146 0.019395C 12.965 0.165519 10.961 0.551905 9.00273 1.17996C 5.70753 2.29275 3.55789 4.035 2.64949 6.45308L 2.60234 6.5978C 2.2681 6.5978 1.93387 6.55002 1.50394 6.50225C 1.0754 6.45308 0.836857 6.4053 0.788317 6.4053C 0.358388 6.35753 0.119847 6.69615 0.0241531 7.37338C -0.0715407 8.00143 0.119847 8.43699 0.549775 8.67866C 0.882623 8.87256 1.36109 8.9695 2.02956 8.9695C 1.59963 11.5337 1.74248 14.1457 2.50664 16.8068C 3.31935 19.6605 4.65629 21.8383 6.51885 23.2897C 7.71294 24.1608 8.9528 24.8366 10.3383 25.3214C 11.7224 25.7569 13.2521 25.9494 14.8276 25.9494C 16.213 25.9494 17.5971 25.7569 18.9341 25.4169C 20.3182 25.0319 21.5608 24.4994 22.7064 23.773C 24.8546 22.4663 26.4786 20.4838 27.6242 17.8704C 28.7226 15.4524 29.2482 13.0821 29.1539 10.7118C 29.1067 10.1792 29.0582 9.64673 28.9625 9.01868L 29.1067 5.00307C 29.3453 4.71223 29.8224 4.42139 30.4423 4.17972C 31.3978 3.79333 32.5434 3.59944 33.8817 3.59944C 35.2658 3.59944 36.4599 3.79333 37.4626 4.17972C 38.0354 4.42139 38.4653 4.71223 38.7996 5.00307L 39.0381 9.01868L 39.0853 9.01868C 38.941 9.54978 38.8953 10.0809 38.8467 10.7118C 38.7524 13.0821 39.2295 15.4524 40.2793 17.8704C 41.4734 20.4838 43.1446 22.4663 45.2943 23.773C 46.4398 24.4994 47.681 25.0797 49.018 25.4661C 50.4035 25.8047 51.7876 26 53.2202 26C 54.7485 26 56.2283 25.7569 57.6138 25.3214C 58.9979 24.8858 60.2877 24.2086 61.4818 23.2897C 63.3443 21.8383 64.6813 19.6605 65.5411 16.8068C 66.2567 14.1457 66.3996 11.5337 65.971 8.9695C 66.6867 8.9695 67.1651 8.87256 67.4037 8.72784C 67.8821 8.48477 68.0708 8.00143 67.9765 7.37338C 67.8821 6.69615 67.6422 6.35753 67.2123 6.4053C 66.5438 6.55002 65.9239 6.5978 65.3497 6.5978L 65.3026 6.45308C 64.3942 4.035 62.2931 2.29275 58.9493 1.17996L 58.9507 1.17996Z"/>
</defs>
</svg>
